<?xml version="1.0" encoding="UTF-8" standalone="no"?>
<!DOCTYPE svg PUBLIC "-//W3C//DTD SVG 1.1//EN"
 "http://www.w3.org/Graphics/SVG/1.1/DTD/svg11.dtd">
<!-- Generated by graphviz version 2.40.1 (20161225.0304)
 -->
<!-- Title: %0 Pages: 1 -->
<svg width="182pt" height="92pt"
 viewBox="0.00 0.00 181.59 92.19" xmlns="http://www.w3.org/2000/svg" xmlns:xlink="http://www.w3.org/1999/xlink">
<g id="graph0" class="graph" transform="scale(1 1) rotate(0) translate(4 88.1869)">
<title>%0</title>
<polygon fill="#ffffff" stroke="transparent" points="-4,4 -4,-88.1869 177.5884,-88.1869 177.5884,4 -4,4"/>
<!-- start -->
<g id="node1" class="node">
<title>start</title>
<ellipse fill="#000000" stroke="#000000" cx="1.8" cy="-24.6935" rx="1.8" ry="1.8"/>
</g>
<!-- q1 -->
<g id="node3" class="node">
<title>q1</title>
<ellipse fill="none" stroke="#000000" cx="61.2935" cy="-24.6935" rx="20.8887" ry="20.8887"/>
<text text-anchor="middle" x="61.2935" y="-20.4935" font-family="Times,serif" font-size="14.00" fill="#000000">q1</text>
</g>
<!-- start&#45;&gt;q1 -->
<g id="edge1" class="edge">
<title>start&#45;&gt;q1</title>
<path fill="none" stroke="#000000" d="M3.7795,-24.6935C8.1326,-24.6935 19.0417,-24.6935 30.2036,-24.6935"/>
<polygon fill="#000000" stroke="#000000" points="30.3445,-28.1936 40.3444,-24.6935 30.3444,-21.1936 30.3445,-28.1936"/>
</g>
<!-- q2 -->
<g id="node2" class="node">
<title>q2</title>
<ellipse fill="none" stroke="#000000" cx="148.895" cy="-24.6935" rx="20.8568" ry="20.8568"/>
<ellipse fill="none" stroke="#000000" cx="148.895" cy="-24.6935" rx="24.8884" ry="24.8884"/>
<text text-anchor="middle" x="148.895" y="-20.4935" font-family="Times,serif" font-size="14.00" fill="#000000">q2</text>
</g>
<!-- q2&#45;&gt;q2 -->
<g id="edge4" class="edge">
<title>q2&#45;&gt;q2</title>
<path fill="none" stroke="#000000" d="M140.7437,-48.4015C140.0763,-58.6297 142.7934,-67.3869 148.895,-67.3869 152.8038,-67.3869 155.3236,-63.7929 156.4544,-58.5207"/>
<polygon fill="#000000" stroke="#000000" points="159.9563,-58.5888 157.0463,-48.4015 152.9683,-58.1801 159.9563,-58.5888"/>
<text text-anchor="middle" x="148.895" y="-71.5869" font-family="Times,serif" font-size="14.00" fill="#000000">a,b</text>
</g>
<!-- q1&#45;&gt;q2 -->
<g id="edge2" class="edge">
<title>q1&#45;&gt;q2</title>
<path fill="none" stroke="#000000" d="M82.0538,-24.6935C91.5626,-24.6935 103.0967,-24.6935 113.888,-24.6935"/>
<polygon fill="#000000" stroke="#000000" points="113.9165,-28.1936 123.9164,-24.6935 113.9164,-21.1936 113.9165,-28.1936"/>
<text text-anchor="middle" x="103.0942" y="-28.8935" font-family="Times,serif" font-size="14.00" fill="#000000">c</text>
</g>
<!-- q1&#45;&gt;q1 -->
<g id="edge3" class="edge">
<title>q1&#45;&gt;q1</title>
<path fill="none" stroke="#000000" d="M54.3789,-44.602C53.4222,-54.5307 55.727,-63.3869 61.2935,-63.3869 64.7725,-63.3869 66.9774,-59.9274 67.9083,-54.9089"/>
<polygon fill="#000000" stroke="#000000" points="71.4158,-54.6995 68.208,-44.602 64.4187,-54.496 71.4158,-54.6995"/>
<text text-anchor="middle" x="61.2935" y="-67.5869" font-family="Times,serif" font-size="14.00" fill="#000000">a,b</text>
</g>
</g>
</svg>
