<?xml version="1.0" encoding="UTF-8" standalone="no"?>
<!DOCTYPE svg PUBLIC "-//W3C//DTD SVG 1.1//EN"
 "http://www.w3.org/Graphics/SVG/1.1/DTD/svg11.dtd">
<!-- Generated by graphviz version 2.40.1 (20161225.0304)
 -->
<!-- Title: %0 Pages: 1 -->
<svg width="537pt" height="263pt"
 viewBox="0.00 0.00 537.38 262.56" xmlns="http://www.w3.org/2000/svg" xmlns:xlink="http://www.w3.org/1999/xlink">
<g id="graph0" class="graph" transform="scale(1 1) rotate(0) translate(4 258.555)">
<title>%0</title>
<polygon fill="#ffffff" stroke="transparent" points="-4,4 -4,-258.555 533.3751,-258.555 533.3751,4 -4,4"/>
<!-- start -->
<g id="node1" class="node">
<title>start</title>
<ellipse fill="#000000" stroke="#000000" cx="1.8" cy="-132.2775" rx="1.8" ry="1.8"/>
</g>
<!-- q1s1 -->
<g id="node5" class="node">
<title>q1s1</title>
<ellipse fill="none" stroke="#000000" cx="69.8775" cy="-132.2775" rx="29.0567" ry="29.0567"/>
<text text-anchor="middle" x="69.8775" y="-128.0775" font-family="Times,serif" font-size="14.00" fill="#000000">q1s1</text>
</g>
<!-- start&#45;&gt;q1s1 -->
<g id="edge1" class="edge">
<title>start&#45;&gt;q1s1</title>
<path fill="none" stroke="#000000" d="M3.764,-132.2775C8.0131,-132.2775 18.608,-132.2775 30.1014,-132.2775"/>
<polygon fill="#000000" stroke="#000000" points="30.2962,-135.7776 40.2962,-132.2775 30.2961,-128.7776 30.2962,-135.7776"/>
</g>
<!-- q1s3 -->
<g id="node2" class="node">
<title>q1s3</title>
<ellipse fill="none" stroke="#000000" cx="276.9876" cy="-33.2775" rx="29.0831" ry="29.0831"/>
<ellipse fill="none" stroke="#000000" cx="276.9876" cy="-33.2775" rx="33.0565" ry="33.0565"/>
<text text-anchor="middle" x="276.9876" y="-29.0775" font-family="Times,serif" font-size="14.00" fill="#000000">q1s3</text>
</g>
<!-- q1s3&#45;&gt;q1s3 -->
<g id="edge7" class="edge">
<title>q1s3&#45;&gt;q1s3</title>
<path fill="none" stroke="#000000" d="M266.8632,-65.0752C266.81,-75.8747 270.1848,-84.555 276.9876,-84.555 281.4518,-84.555 284.4399,-80.8167 285.9516,-75.1944"/>
<polygon fill="#000000" stroke="#000000" points="289.4498,-75.4088 287.1119,-65.0752 282.4954,-74.6113 289.4498,-75.4088"/>
<text text-anchor="middle" x="276.9876" y="-88.755" font-family="Times,serif" font-size="14.00" fill="#000000">b</text>
</g>
<!-- q2s3 -->
<g id="node3" class="node">
<title>q2s3</title>
<ellipse fill="none" stroke="#000000" cx="386.5426" cy="-53.2775" rx="29.0831" ry="29.0831"/>
<ellipse fill="none" stroke="#000000" cx="386.5426" cy="-53.2775" rx="33.0565" ry="33.0565"/>
<text text-anchor="middle" x="386.5426" y="-49.0775" font-family="Times,serif" font-size="14.00" fill="#000000">q2s3</text>
</g>
<!-- q1s3&#45;&gt;q2s3 -->
<g id="edge6" class="edge">
<title>q1s3&#45;&gt;q2s3</title>
<path fill="none" stroke="#000000" d="M309.8577,-39.2782C320.4739,-41.2162 332.4045,-43.3942 343.6357,-45.4446"/>
<polygon fill="#000000" stroke="#000000" points="343.2296,-48.9282 353.6957,-47.2811 344.4868,-42.042 343.2296,-48.9282"/>
<text text-anchor="middle" x="331.7651" y="-48.4775" font-family="Times,serif" font-size="14.00" fill="#000000">a</text>
</g>
<!-- q2s3&#45;&gt;q2s3 -->
<g id="edge13" class="edge">
<title>q2s3&#45;&gt;q2s3</title>
<path fill="none" stroke="#000000" d="M376.4182,-85.0752C376.365,-95.8747 379.7398,-104.555 386.5426,-104.555 391.0069,-104.555 393.9949,-100.8167 395.5066,-95.1944"/>
<polygon fill="#000000" stroke="#000000" points="399.0049,-95.4088 396.667,-85.0752 392.0504,-94.6113 399.0049,-95.4088"/>
<text text-anchor="middle" x="386.5426" y="-108.755" font-family="Times,serif" font-size="14.00" fill="#000000">b</text>
</g>
<!-- q3s3 -->
<g id="node4" class="node">
<title>q3s3</title>
<ellipse fill="none" stroke="#000000" cx="496.0976" cy="-110.2775" rx="29.0831" ry="29.0831"/>
<ellipse fill="none" stroke="#000000" cx="496.0976" cy="-110.2775" rx="33.0565" ry="33.0565"/>
<text text-anchor="middle" x="496.0976" y="-106.0775" font-family="Times,serif" font-size="14.00" fill="#000000">q3s3</text>
</g>
<!-- q2s3&#45;&gt;q3s3 -->
<g id="edge12" class="edge">
<title>q2s3&#45;&gt;q3s3</title>
<path fill="none" stroke="#000000" d="M416.1897,-68.7025C428.8557,-75.2925 443.8103,-83.0731 457.3364,-90.1106"/>
<polygon fill="#000000" stroke="#000000" points="455.9401,-93.3295 466.4267,-94.8402 459.171,-87.1197 455.9401,-93.3295"/>
<text text-anchor="middle" x="441.3201" y="-88.4775" font-family="Times,serif" font-size="14.00" fill="#000000">a</text>
</g>
<!-- q3s3&#45;&gt;q3s3 -->
<g id="edge16" class="edge">
<title>q3s3&#45;&gt;q3s3</title>
<path fill="none" stroke="#000000" d="M485.9732,-142.0752C485.9201,-152.8747 489.2949,-161.555 496.0976,-161.555 500.5619,-161.555 503.5499,-157.8167 505.0616,-152.1944"/>
<polygon fill="#000000" stroke="#000000" points="508.5599,-152.4088 506.222,-142.0752 501.6054,-151.6113 508.5599,-152.4088"/>
<text text-anchor="middle" x="496.0976" y="-165.755" font-family="Times,serif" font-size="14.00" fill="#000000">b</text>
</g>
<!-- q2s1 -->
<g id="node6" class="node">
<title>q2s1</title>
<ellipse fill="none" stroke="#000000" cx="171.4325" cy="-171.2775" rx="29.0567" ry="29.0567"/>
<text text-anchor="middle" x="171.4325" y="-167.0775" font-family="Times,serif" font-size="14.00" fill="#000000">q2s1</text>
</g>
<!-- q1s1&#45;&gt;q2s1 -->
<g id="edge2" class="edge">
<title>q1s1&#45;&gt;q2s1</title>
<path fill="none" stroke="#000000" d="M97.3598,-142.8315C108.7622,-147.2103 122.1654,-152.3575 134.4135,-157.0612"/>
<polygon fill="#000000" stroke="#000000" points="133.3382,-160.3974 143.9283,-160.7151 135.8478,-153.8627 133.3382,-160.3974"/>
<text text-anchor="middle" x="120.655" y="-156.4775" font-family="Times,serif" font-size="14.00" fill="#000000">a</text>
</g>
<!-- q1s2 -->
<g id="node7" class="node">
<title>q1s2</title>
<ellipse fill="none" stroke="#000000" cx="171.4325" cy="-94.2775" rx="29.0567" ry="29.0567"/>
<text text-anchor="middle" x="171.4325" y="-90.0775" font-family="Times,serif" font-size="14.00" fill="#000000">q1s2</text>
</g>
<!-- q1s1&#45;&gt;q1s2 -->
<g id="edge3" class="edge">
<title>q1s1&#45;&gt;q1s2</title>
<path fill="none" stroke="#000000" d="M97.3598,-121.9942C108.7622,-117.7276 122.1654,-112.7123 134.4135,-108.1293"/>
<polygon fill="#000000" stroke="#000000" points="135.7891,-111.3517 143.9283,-104.5691 133.3359,-104.7956 135.7891,-111.3517"/>
<text text-anchor="middle" x="120.655" y="-119.4775" font-family="Times,serif" font-size="14.00" fill="#000000">b</text>
</g>
<!-- q2s2 -->
<g id="node8" class="node">
<title>q2s2</title>
<ellipse fill="none" stroke="#000000" cx="276.9876" cy="-148.2775" rx="29.0567" ry="29.0567"/>
<text text-anchor="middle" x="276.9876" y="-144.0775" font-family="Times,serif" font-size="14.00" fill="#000000">q2s2</text>
</g>
<!-- q2s1&#45;&gt;q2s2 -->
<g id="edge9" class="edge">
<title>q2s1&#45;&gt;q2s2</title>
<path fill="none" stroke="#000000" d="M200.2759,-164.9927C212.0282,-162.4319 225.7892,-159.4334 238.3864,-156.6885"/>
<polygon fill="#000000" stroke="#000000" points="239.1535,-160.1036 248.1791,-154.5548 237.6631,-153.2641 239.1535,-160.1036"/>
<text text-anchor="middle" x="222.21" y="-164.4775" font-family="Times,serif" font-size="14.00" fill="#000000">b</text>
</g>
<!-- q3s1 -->
<g id="node9" class="node">
<title>q3s1</title>
<ellipse fill="none" stroke="#000000" cx="276.9876" cy="-225.2775" rx="29.0567" ry="29.0567"/>
<text text-anchor="middle" x="276.9876" y="-221.0775" font-family="Times,serif" font-size="14.00" fill="#000000">q3s1</text>
</g>
<!-- q2s1&#45;&gt;q3s1 -->
<g id="edge8" class="edge">
<title>q2s1&#45;&gt;q3s1</title>
<path fill="none" stroke="#000000" d="M197.5248,-184.6258C210.8462,-191.4408 227.2457,-199.8305 241.6801,-207.2148"/>
<polygon fill="#000000" stroke="#000000" points="240.3329,-210.457 250.8296,-211.8956 243.521,-204.2252 240.3329,-210.457"/>
<text text-anchor="middle" x="222.21" y="-202.4775" font-family="Times,serif" font-size="14.00" fill="#000000">a</text>
</g>
<!-- q1s2&#45;&gt;q1s3 -->
<g id="edge5" class="edge">
<title>q1s2&#45;&gt;q1s3</title>
<path fill="none" stroke="#000000" d="M196.9845,-79.5111C209.5973,-72.2222 225.0667,-63.2824 239.0301,-55.213"/>
<polygon fill="#000000" stroke="#000000" points="241.0365,-58.096 247.9434,-50.062 237.5339,-52.0353 241.0365,-58.096"/>
<text text-anchor="middle" x="222.21" y="-70.4775" font-family="Times,serif" font-size="14.00" fill="#000000">b</text>
</g>
<!-- q1s2&#45;&gt;q2s2 -->
<g id="edge4" class="edge">
<title>q1s2&#45;&gt;q2s2</title>
<path fill="none" stroke="#000000" d="M197.5248,-107.6258C210.8462,-114.4408 227.2457,-122.8305 241.6801,-130.2148"/>
<polygon fill="#000000" stroke="#000000" points="240.3329,-133.457 250.8296,-134.8956 243.521,-127.2252 240.3329,-133.457"/>
<text text-anchor="middle" x="222.21" y="-125.4775" font-family="Times,serif" font-size="14.00" fill="#000000">a</text>
</g>
<!-- q2s2&#45;&gt;q2s3 -->
<g id="edge11" class="edge">
<title>q2s2&#45;&gt;q2s3</title>
<path fill="none" stroke="#000000" d="M299.1576,-129.0528C314.773,-115.5121 335.9468,-97.1513 353.5407,-81.8949"/>
<polygon fill="#000000" stroke="#000000" points="356.0776,-84.3277 361.3397,-75.132 351.4916,-79.0391 356.0776,-84.3277"/>
<text text-anchor="middle" x="331.7651" y="-108.4775" font-family="Times,serif" font-size="14.00" fill="#000000">b</text>
</g>
<!-- q3s2 -->
<g id="node10" class="node">
<title>q3s2</title>
<ellipse fill="none" stroke="#000000" cx="386.5426" cy="-168.2775" rx="29.0567" ry="29.0567"/>
<text text-anchor="middle" x="386.5426" y="-164.0775" font-family="Times,serif" font-size="14.00" fill="#000000">q3s2</text>
</g>
<!-- q2s2&#45;&gt;q3s2 -->
<g id="edge10" class="edge">
<title>q2s2&#45;&gt;q3s2</title>
<path fill="none" stroke="#000000" d="M306.0587,-153.5846C318.7884,-155.9085 333.9135,-158.6697 347.5967,-161.1677"/>
<polygon fill="#000000" stroke="#000000" points="347.2498,-164.6621 357.7158,-163.015 348.5069,-157.7759 347.2498,-164.6621"/>
<text text-anchor="middle" x="331.7651" y="-162.4775" font-family="Times,serif" font-size="14.00" fill="#000000">a</text>
</g>
<!-- q3s1&#45;&gt;q3s2 -->
<g id="edge14" class="edge">
<title>q3s1&#45;&gt;q3s2</title>
<path fill="none" stroke="#000000" d="M303.2287,-211.6246C317.728,-204.0808 335.928,-194.6116 351.616,-186.4494"/>
<polygon fill="#000000" stroke="#000000" points="353.2599,-189.5395 360.5155,-181.819 350.0289,-183.3297 353.2599,-189.5395"/>
<text text-anchor="middle" x="331.7651" y="-202.4775" font-family="Times,serif" font-size="14.00" fill="#000000">b</text>
</g>
<!-- q3s2&#45;&gt;q3s3 -->
<g id="edge15" class="edge">
<title>q3s2&#45;&gt;q3s3</title>
<path fill="none" stroke="#000000" d="M412.5056,-154.5323C425.9199,-147.4306 442.5572,-138.6226 457.4485,-130.7389"/>
<polygon fill="#000000" stroke="#000000" points="459.2502,-133.7454 466.4504,-125.9731 455.9749,-127.5588 459.2502,-133.7454"/>
<text text-anchor="middle" x="441.3201" y="-144.4775" font-family="Times,serif" font-size="14.00" fill="#000000">b</text>
</g>
</g>
</svg>
