<?xml version="1.0" encoding="UTF-8" standalone="no"?>
<!DOCTYPE svg PUBLIC "-//W3C//DTD SVG 1.1//EN"
 "http://www.w3.org/Graphics/SVG/1.1/DTD/svg11.dtd">
<!-- Generated by graphviz version 2.40.1 (20161225.0304)
 -->
<!-- Title: %0 Pages: 1 -->
<svg width="281pt" height="92pt"
 viewBox="0.00 0.00 281.19 92.19" xmlns="http://www.w3.org/2000/svg" xmlns:xlink="http://www.w3.org/1999/xlink">
<g id="graph0" class="graph" transform="scale(1 1) rotate(0) translate(4 88.1869)">
<title>%0</title>
<polygon fill="#ffffff" stroke="transparent" points="-4,4 -4,-88.1869 277.1899,-88.1869 277.1899,4 -4,4"/>
<!-- start -->
<g id="node1" class="node">
<title>start</title>
<ellipse fill="#000000" stroke="#000000" cx="1.8" cy="-24.6935" rx="1.8" ry="1.8"/>
</g>
<!-- q1 -->
<g id="node2" class="node">
<title>q1</title>
<ellipse fill="none" stroke="#000000" cx="65.2935" cy="-24.6935" rx="20.8568" ry="20.8568"/>
<ellipse fill="none" stroke="#000000" cx="65.2935" cy="-24.6935" rx="24.8884" ry="24.8884"/>
<text text-anchor="middle" x="65.2935" y="-20.4935" font-family="Times,serif" font-size="14.00" fill="#000000">q1</text>
</g>
<!-- start&#45;&gt;q1 -->
<g id="edge1" class="edge">
<title>start&#45;&gt;q1</title>
<path fill="none" stroke="#000000" d="M3.6318,-24.6935C7.8464,-24.6935 18.7548,-24.6935 30.2464,-24.6935"/>
<polygon fill="#000000" stroke="#000000" points="30.3416,-28.1936 40.3415,-24.6935 30.3415,-21.1936 30.3416,-28.1936"/>
</g>
<!-- q1&#45;&gt;q1 -->
<g id="edge3" class="edge">
<title>q1&#45;&gt;q1</title>
<path fill="none" stroke="#000000" d="M57.5127,-48.4015C56.8756,-58.6297 59.4692,-67.3869 65.2935,-67.3869 69.0246,-67.3869 71.4299,-63.7929 72.5093,-58.5207"/>
<polygon fill="#000000" stroke="#000000" points="76.0113,-58.5811 73.0742,-48.4015 69.0222,-58.1908 76.0113,-58.5811"/>
<text text-anchor="middle" x="65.2935" y="-71.5869" font-family="Times,serif" font-size="14.00" fill="#000000">b</text>
</g>
<!-- q2 -->
<g id="node3" class="node">
<title>q2</title>
<ellipse fill="none" stroke="#000000" cx="156.895" cy="-24.6935" rx="20.8568" ry="20.8568"/>
<ellipse fill="none" stroke="#000000" cx="156.895" cy="-24.6935" rx="24.8884" ry="24.8884"/>
<text text-anchor="middle" x="156.895" y="-20.4935" font-family="Times,serif" font-size="14.00" fill="#000000">q2</text>
</g>
<!-- q1&#45;&gt;q2 -->
<g id="edge2" class="edge">
<title>q1&#45;&gt;q2</title>
<path fill="none" stroke="#000000" d="M90.324,-24.6935C100.0178,-24.6935 111.2865,-24.6935 121.7659,-24.6935"/>
<polygon fill="#000000" stroke="#000000" points="121.8947,-28.1936 131.8947,-24.6935 121.8947,-21.1936 121.8947,-28.1936"/>
<text text-anchor="middle" x="111.0942" y="-28.8935" font-family="Times,serif" font-size="14.00" fill="#000000">a</text>
</g>
<!-- q2&#45;&gt;q2 -->
<g id="edge4" class="edge">
<title>q2&#45;&gt;q2</title>
<path fill="none" stroke="#000000" d="M148.7437,-48.4015C148.0763,-58.6297 150.7934,-67.3869 156.895,-67.3869 160.8038,-67.3869 163.3236,-63.7929 164.4544,-58.5207"/>
<polygon fill="#000000" stroke="#000000" points="167.9563,-58.5888 165.0463,-48.4015 160.9683,-58.1801 167.9563,-58.5888"/>
<text text-anchor="middle" x="156.895" y="-71.5869" font-family="Times,serif" font-size="14.00" fill="#000000">b</text>
</g>
<!-- q3 -->
<g id="node4" class="node">
<title>q3</title>
<ellipse fill="none" stroke="#000000" cx="248.4965" cy="-24.6935" rx="20.8568" ry="20.8568"/>
<ellipse fill="none" stroke="#000000" cx="248.4965" cy="-24.6935" rx="24.8884" ry="24.8884"/>
<text text-anchor="middle" x="248.4965" y="-20.4935" font-family="Times,serif" font-size="14.00" fill="#000000">q3</text>
</g>
<!-- q2&#45;&gt;q3 -->
<g id="edge5" class="edge">
<title>q2&#45;&gt;q3</title>
<path fill="none" stroke="#000000" d="M181.9255,-24.6935C191.6193,-24.6935 202.888,-24.6935 213.3674,-24.6935"/>
<polygon fill="#000000" stroke="#000000" points="213.4962,-28.1936 223.4962,-24.6935 213.4962,-21.1936 213.4962,-28.1936"/>
<text text-anchor="middle" x="202.6957" y="-28.8935" font-family="Times,serif" font-size="14.00" fill="#000000">a</text>
</g>
<!-- q3&#45;&gt;q3 -->
<g id="edge6" class="edge">
<title>q3&#45;&gt;q3</title>
<path fill="none" stroke="#000000" d="M240.3452,-48.4015C239.6778,-58.6297 242.3949,-67.3869 248.4965,-67.3869 252.4053,-67.3869 254.9251,-63.7929 256.056,-58.5207"/>
<polygon fill="#000000" stroke="#000000" points="259.5579,-58.5888 256.6478,-48.4015 252.5698,-58.1801 259.5579,-58.5888"/>
<text text-anchor="middle" x="248.4965" y="-71.5869" font-family="Times,serif" font-size="14.00" fill="#000000">b</text>
</g>
</g>
</svg>
