<?xml version="1.0" encoding="UTF-8" standalone="no"?>
<!DOCTYPE svg PUBLIC "-//W3C//DTD SVG 1.1//EN"
 "http://www.w3.org/Graphics/SVG/1.1/DTD/svg11.dtd">
<!-- Generated by graphviz version 2.40.1 (20161225.0304)
 -->
<!-- Title: %0 Pages: 1 -->
<svg width="98pt" height="92pt"
 viewBox="0.00 0.00 97.99 92.19" xmlns="http://www.w3.org/2000/svg" xmlns:xlink="http://www.w3.org/1999/xlink">
<g id="graph0" class="graph" transform="scale(1 1) rotate(0) translate(4 88.1869)">
<title>%0</title>
<polygon fill="#ffffff" stroke="transparent" points="-4,4 -4,-88.1869 93.9869,-88.1869 93.9869,4 -4,4"/>
<!-- start -->
<g id="node1" class="node">
<title>start</title>
<ellipse fill="#000000" stroke="#000000" cx="1.8" cy="-24.6935" rx="1.8" ry="1.8"/>
</g>
<!-- q1 -->
<g id="node2" class="node">
<title>q1</title>
<ellipse fill="none" stroke="#000000" cx="65.2935" cy="-24.6935" rx="20.8568" ry="20.8568"/>
<ellipse fill="none" stroke="#000000" cx="65.2935" cy="-24.6935" rx="24.8884" ry="24.8884"/>
<text text-anchor="middle" x="65.2935" y="-20.4935" font-family="Times,serif" font-size="14.00" fill="#000000">q1</text>
</g>
<!-- start&#45;&gt;q1 -->
<g id="edge1" class="edge">
<title>start&#45;&gt;q1</title>
<path fill="none" stroke="#000000" d="M3.6318,-24.6935C7.8464,-24.6935 18.7548,-24.6935 30.2464,-24.6935"/>
<polygon fill="#000000" stroke="#000000" points="30.3416,-28.1936 40.3415,-24.6935 30.3415,-21.1936 30.3416,-28.1936"/>
</g>
<!-- q1&#45;&gt;q1 -->
<g id="edge2" class="edge">
<title>q1&#45;&gt;q1</title>
<path fill="none" stroke="#000000" d="M57.5127,-48.4015C56.8756,-58.6297 59.4692,-67.3869 65.2935,-67.3869 69.0246,-67.3869 71.4299,-63.7929 72.5093,-58.5207"/>
<polygon fill="#000000" stroke="#000000" points="76.0113,-58.5811 73.0742,-48.4015 69.0222,-58.1908 76.0113,-58.5811"/>
<text text-anchor="middle" x="65.2935" y="-71.5869" font-family="Times,serif" font-size="14.00" fill="#000000">λ</text>
</g>
</g>
</svg>
