<?xml version="1.0" encoding="UTF-8" standalone="no"?>
<!DOCTYPE svg PUBLIC "-//W3C//DTD SVG 1.1//EN"
 "http://www.w3.org/Graphics/SVG/1.1/DTD/svg11.dtd">
<!-- Generated by graphviz version 2.40.1 (20161225.0304)
 -->
<!-- Title: %0 Pages: 1 -->
<svg width="521pt" height="289pt"
 viewBox="0.00 0.00 521.38 289.36" xmlns="http://www.w3.org/2000/svg" xmlns:xlink="http://www.w3.org/1999/xlink">
<g id="graph0" class="graph" transform="scale(1 1) rotate(0) translate(4 285.355)">
<title>%0</title>
<polygon fill="#ffffff" stroke="transparent" points="-4,4 -4,-285.355 517.3751,-285.355 517.3751,4 -4,4"/>
<!-- start -->
<g id="node1" class="node">
<title>start</title>
<ellipse fill="#000000" stroke="#000000" cx="1.8" cy="-124.2775" rx="1.8" ry="1.8"/>
</g>
<!-- q1s1 -->
<g id="node3" class="node">
<title>q1s1</title>
<ellipse fill="none" stroke="#000000" cx="69.8775" cy="-124.2775" rx="29.0567" ry="29.0567"/>
<text text-anchor="middle" x="69.8775" y="-120.0775" font-family="Times,serif" font-size="14.00" fill="#000000">q1s1</text>
</g>
<!-- start&#45;&gt;q1s1 -->
<g id="edge1" class="edge">
<title>start&#45;&gt;q1s1</title>
<path fill="none" stroke="#000000" d="M3.764,-124.2775C8.0131,-124.2775 18.608,-124.2775 30.1014,-124.2775"/>
<polygon fill="#000000" stroke="#000000" points="30.2962,-127.7776 40.2962,-124.2775 30.2961,-120.7776 30.2962,-127.7776"/>
</g>
<!-- q3s3 -->
<g id="node2" class="node">
<title>q3s3</title>
<ellipse fill="none" stroke="#000000" cx="480.0976" cy="-105.2775" rx="29.0831" ry="29.0831"/>
<ellipse fill="none" stroke="#000000" cx="480.0976" cy="-105.2775" rx="33.0565" ry="33.0565"/>
<text text-anchor="middle" x="480.0976" y="-101.0775" font-family="Times,serif" font-size="14.00" fill="#000000">q3s3</text>
</g>
<!-- q3s3&#45;&gt;q3s3 -->
<g id="edge18" class="edge">
<title>q3s3&#45;&gt;q3s3</title>
<path fill="none" stroke="#000000" d="M469.9732,-137.0752C469.9201,-147.8747 473.2949,-156.555 480.0976,-156.555 484.5619,-156.555 487.5499,-152.8167 489.0616,-147.1944"/>
<polygon fill="#000000" stroke="#000000" points="492.5599,-147.4088 490.222,-137.0752 485.6054,-146.6113 492.5599,-147.4088"/>
<text text-anchor="middle" x="480.0976" y="-160.755" font-family="Times,serif" font-size="14.00" fill="#000000">b</text>
</g>
<!-- q2s1 -->
<g id="node4" class="node">
<title>q2s1</title>
<ellipse fill="none" stroke="#000000" cx="171.4325" cy="-163.2775" rx="29.0567" ry="29.0567"/>
<text text-anchor="middle" x="171.4325" y="-159.0775" font-family="Times,serif" font-size="14.00" fill="#000000">q2s1</text>
</g>
<!-- q1s1&#45;&gt;q2s1 -->
<g id="edge2" class="edge">
<title>q1s1&#45;&gt;q2s1</title>
<path fill="none" stroke="#000000" d="M97.3598,-134.8315C108.7622,-139.2103 122.1654,-144.3575 134.4135,-149.0612"/>
<polygon fill="#000000" stroke="#000000" points="133.3382,-152.3974 143.9283,-152.7151 135.8478,-145.8627 133.3382,-152.3974"/>
<text text-anchor="middle" x="120.655" y="-148.4775" font-family="Times,serif" font-size="14.00" fill="#000000">a</text>
</g>
<!-- q1s2 -->
<g id="node5" class="node">
<title>q1s2</title>
<ellipse fill="none" stroke="#000000" cx="171.4325" cy="-86.2775" rx="29.0567" ry="29.0567"/>
<text text-anchor="middle" x="171.4325" y="-82.0775" font-family="Times,serif" font-size="14.00" fill="#000000">q1s2</text>
</g>
<!-- q1s1&#45;&gt;q1s2 -->
<g id="edge3" class="edge">
<title>q1s1&#45;&gt;q1s2</title>
<path fill="none" stroke="#000000" d="M97.3598,-113.9942C108.7622,-109.7276 122.1654,-104.7123 134.4135,-100.1293"/>
<polygon fill="#000000" stroke="#000000" points="135.7891,-103.3517 143.9283,-96.5691 133.3359,-96.7956 135.7891,-103.3517"/>
<text text-anchor="middle" x="120.655" y="-111.4775" font-family="Times,serif" font-size="14.00" fill="#000000">b</text>
</g>
<!-- q2s2 -->
<g id="node6" class="node">
<title>q2s2</title>
<ellipse fill="none" stroke="#000000" cx="272.9876" cy="-140.2775" rx="29.0567" ry="29.0567"/>
<text text-anchor="middle" x="272.9876" y="-136.0775" font-family="Times,serif" font-size="14.00" fill="#000000">q2s2</text>
</g>
<!-- q2s1&#45;&gt;q2s2 -->
<g id="edge9" class="edge">
<title>q2s1&#45;&gt;q2s2</title>
<path fill="none" stroke="#000000" d="M199.9915,-156.8095C210.7001,-154.3843 223.0508,-151.5871 234.5119,-148.9914"/>
<polygon fill="#000000" stroke="#000000" points="235.3112,-152.3991 244.2911,-146.7766 233.7649,-145.572 235.3112,-152.3991"/>
<text text-anchor="middle" x="222.21" y="-156.4775" font-family="Times,serif" font-size="14.00" fill="#000000">b</text>
</g>
<!-- q3s1 -->
<g id="node9" class="node">
<title>q3s1</title>
<ellipse fill="none" stroke="#000000" cx="272.9876" cy="-217.2775" rx="29.0567" ry="29.0567"/>
<text text-anchor="middle" x="272.9876" y="-213.0775" font-family="Times,serif" font-size="14.00" fill="#000000">q3s1</text>
</g>
<!-- q2s1&#45;&gt;q3s1 -->
<g id="edge8" class="edge">
<title>q2s1&#45;&gt;q3s1</title>
<path fill="none" stroke="#000000" d="M197.3219,-177.0437C209.6408,-183.594 224.556,-191.5249 237.8766,-198.6079"/>
<polygon fill="#000000" stroke="#000000" points="236.3197,-201.7441 246.7923,-203.3487 239.6061,-195.5635 236.3197,-201.7441"/>
<text text-anchor="middle" x="222.21" y="-195.4775" font-family="Times,serif" font-size="14.00" fill="#000000">a</text>
</g>
<!-- q1s2&#45;&gt;q2s2 -->
<g id="edge4" class="edge">
<title>q1s2&#45;&gt;q2s2</title>
<path fill="none" stroke="#000000" d="M197.3219,-100.0437C209.6408,-106.594 224.556,-114.5249 237.8766,-121.6079"/>
<polygon fill="#000000" stroke="#000000" points="236.3197,-124.7441 246.7923,-126.3487 239.6061,-118.5635 236.3197,-124.7441"/>
<text text-anchor="middle" x="222.21" y="-119.4775" font-family="Times,serif" font-size="14.00" fill="#000000">a</text>
</g>
<!-- q1s3 -->
<g id="node7" class="node">
<title>q1s3</title>
<ellipse fill="none" stroke="#000000" cx="272.9876" cy="-29.2775" rx="29.0567" ry="29.0567"/>
<text text-anchor="middle" x="272.9876" y="-25.0775" font-family="Times,serif" font-size="14.00" fill="#000000">q1s3</text>
</g>
<!-- q1s2&#45;&gt;q1s3 -->
<g id="edge5" class="edge">
<title>q1s2&#45;&gt;q1s3</title>
<path fill="none" stroke="#000000" d="M197.0592,-71.894C209.5676,-64.8734 224.8001,-56.3238 238.3293,-48.7302"/>
<polygon fill="#000000" stroke="#000000" points="240.3619,-51.6031 247.3691,-43.6564 236.9357,-45.4988 240.3619,-51.6031"/>
<text text-anchor="middle" x="222.21" y="-64.4775" font-family="Times,serif" font-size="14.00" fill="#000000">b</text>
</g>
<!-- q2s3 -->
<g id="node8" class="node">
<title>q2s3</title>
<ellipse fill="none" stroke="#000000" cx="374.5426" cy="-50.2775" rx="29.0567" ry="29.0567"/>
<text text-anchor="middle" x="374.5426" y="-46.0775" font-family="Times,serif" font-size="14.00" fill="#000000">q2s3</text>
</g>
<!-- q2s2&#45;&gt;q2s3 -->
<g id="edge11" class="edge">
<title>q2s2&#45;&gt;q2s3</title>
<path fill="none" stroke="#000000" d="M295.0235,-120.7489C309.6622,-107.7757 329.053,-90.5912 345.0214,-76.4398"/>
<polygon fill="#000000" stroke="#000000" points="347.387,-79.02 352.5497,-69.7681 342.7442,-73.7812 347.387,-79.02"/>
<text text-anchor="middle" x="323.7651" y="-102.4775" font-family="Times,serif" font-size="14.00" fill="#000000">b</text>
</g>
<!-- q3s2 -->
<g id="node10" class="node">
<title>q3s2</title>
<ellipse fill="none" stroke="#000000" cx="374.5426" cy="-161.2775" rx="29.0567" ry="29.0567"/>
<text text-anchor="middle" x="374.5426" y="-157.0775" font-family="Times,serif" font-size="14.00" fill="#000000">q3s2</text>
</g>
<!-- q2s2&#45;&gt;q3s2 -->
<g id="edge10" class="edge">
<title>q2s2&#45;&gt;q3s2</title>
<path fill="none" stroke="#000000" d="M301.8175,-146.2391C312.3234,-148.4115 324.3814,-150.905 335.619,-153.2287"/>
<polygon fill="#000000" stroke="#000000" points="335.1389,-156.7034 345.6405,-155.301 336.5565,-149.8484 335.1389,-156.7034"/>
<text text-anchor="middle" x="323.7651" y="-155.4775" font-family="Times,serif" font-size="14.00" fill="#000000">a</text>
</g>
<!-- q1s3&#45;&gt;q1s3 -->
<g id="edge7" class="edge">
<title>q1s3&#45;&gt;q1s3</title>
<path fill="none" stroke="#000000" d="M263.6332,-57.4285C263.3265,-67.9194 266.4446,-76.555 272.9876,-76.555 277.1791,-76.555 279.9652,-73.011 281.3457,-67.7055"/>
<polygon fill="#000000" stroke="#000000" points="284.8606,-67.7196 282.342,-57.4285 277.8933,-67.0441 284.8606,-67.7196"/>
<text text-anchor="middle" x="272.9876" y="-80.755" font-family="Times,serif" font-size="14.00" fill="#000000">b</text>
</g>
<!-- q1s3&#45;&gt;q2s3 -->
<g id="edge6" class="edge">
<title>q1s3&#45;&gt;q2s3</title>
<path fill="none" stroke="#000000" d="M301.8175,-35.2391C312.3234,-37.4115 324.3814,-39.905 335.619,-42.2287"/>
<polygon fill="#000000" stroke="#000000" points="335.1389,-45.7034 345.6405,-44.301 336.5565,-38.8484 335.1389,-45.7034"/>
<text text-anchor="middle" x="323.7651" y="-45.4775" font-family="Times,serif" font-size="14.00" fill="#000000">a</text>
</g>
<!-- q2s3&#45;&gt;q3s3 -->
<g id="edge12" class="edge">
<title>q2s3&#45;&gt;q3s3</title>
<path fill="none" stroke="#000000" d="M400.6348,-63.873C412.9365,-70.2829 427.863,-78.0604 441.443,-85.1363"/>
<polygon fill="#000000" stroke="#000000" points="440.0949,-88.3805 450.5806,-89.8975 443.3296,-82.1727 440.0949,-88.3805"/>
<text text-anchor="middle" x="425.3201" y="-82.4775" font-family="Times,serif" font-size="14.00" fill="#000000">a</text>
</g>
<!-- q2s3&#45;&gt;q2s3 -->
<g id="edge13" class="edge">
<title>q2s3&#45;&gt;q2s3</title>
<path fill="none" stroke="#000000" d="M365.1882,-78.4285C364.8815,-88.9194 367.9996,-97.555 374.5426,-97.555 378.7342,-97.555 381.5202,-94.011 382.9007,-88.7055"/>
<polygon fill="#000000" stroke="#000000" points="386.4156,-88.7196 383.897,-78.4285 379.4483,-88.0441 386.4156,-88.7196"/>
<text text-anchor="middle" x="374.5426" y="-101.755" font-family="Times,serif" font-size="14.00" fill="#000000">b</text>
</g>
<!-- q3s1&#45;&gt;q3s1 -->
<g id="edge15" class="edge">
<title>q3s1&#45;&gt;q3s1</title>
<path fill="none" stroke="#000000" d="M263.6332,-245.4285C263.3265,-255.9194 266.4446,-264.555 272.9876,-264.555 277.1791,-264.555 279.9652,-261.011 281.3457,-255.7055"/>
<polygon fill="#000000" stroke="#000000" points="284.8606,-255.7196 282.342,-245.4285 277.8933,-255.0441 284.8606,-255.7196"/>
<text text-anchor="middle" x="272.9876" y="-268.755" font-family="Times,serif" font-size="14.00" fill="#000000">a</text>
</g>
<!-- q3s1&#45;&gt;q3s2 -->
<g id="edge14" class="edge">
<title>q3s1&#45;&gt;q3s2</title>
<path fill="none" stroke="#000000" d="M298.8769,-203.0015C311.2913,-196.1559 326.3424,-187.8563 339.7411,-180.4679"/>
<polygon fill="#000000" stroke="#000000" points="341.6337,-183.4212 348.7005,-175.5275 338.2535,-177.2914 341.6337,-183.4212"/>
<text text-anchor="middle" x="323.7651" y="-194.4775" font-family="Times,serif" font-size="14.00" fill="#000000">b</text>
</g>
<!-- q3s2&#45;&gt;q3s3 -->
<g id="edge16" class="edge">
<title>q3s2&#45;&gt;q3s3</title>
<path fill="none" stroke="#000000" d="M400.6348,-147.4348C412.9365,-140.9084 427.863,-132.9895 441.443,-125.7849"/>
<polygon fill="#000000" stroke="#000000" points="443.3871,-128.7156 450.5806,-120.9371 440.1065,-122.5319 443.3871,-128.7156"/>
<text text-anchor="middle" x="425.3201" y="-138.4775" font-family="Times,serif" font-size="14.00" fill="#000000">b</text>
</g>
<!-- q3s2&#45;&gt;q3s2 -->
<g id="edge17" class="edge">
<title>q3s2&#45;&gt;q3s2</title>
<path fill="none" stroke="#000000" d="M365.1882,-189.4285C364.8815,-199.9194 367.9996,-208.555 374.5426,-208.555 378.7342,-208.555 381.5202,-205.011 382.9007,-199.7055"/>
<polygon fill="#000000" stroke="#000000" points="386.4156,-199.7196 383.897,-189.4285 379.4483,-199.0441 386.4156,-199.7196"/>
<text text-anchor="middle" x="374.5426" y="-212.755" font-family="Times,serif" font-size="14.00" fill="#000000">a</text>
</g>
</g>
</svg>
