<?xml version="1.0" encoding="UTF-8" standalone="no"?>
<!DOCTYPE svg PUBLIC "-//W3C//DTD SVG 1.1//EN"
 "http://www.w3.org/Graphics/SVG/1.1/DTD/svg11.dtd">
<!-- Generated by graphviz version 2.40.1 (20161225.0304)
 -->
<!-- Title: %0 Pages: 1 -->
<svg width="260pt" height="90pt"
 viewBox="0.00 0.00 260.32 90.04" xmlns="http://www.w3.org/2000/svg" xmlns:xlink="http://www.w3.org/1999/xlink">
<g id="graph0" class="graph" transform="scale(1 1) rotate(0) translate(4 86.0411)">
<title>%0</title>
<polygon fill="#ffffff" stroke="transparent" points="-4,4 -4,-86.0411 256.3234,-86.0411 256.3234,4 -4,4"/>
<!-- start -->
<g id="node1" class="node">
<title>start</title>
<ellipse fill="#000000" stroke="#000000" cx="1.8" cy="-23.6206" rx="1.8" ry="1.8"/>
</g>
<!-- s1 -->
<g id="node3" class="node">
<title>s1</title>
<ellipse fill="none" stroke="#000000" cx="60.2206" cy="-23.6206" rx="19.7419" ry="19.7419"/>
<text text-anchor="middle" x="60.2206" y="-19.4206" font-family="Times,serif" font-size="14.00" fill="#000000">s1</text>
</g>
<!-- start&#45;&gt;s1 -->
<g id="edge1" class="edge">
<title>start&#45;&gt;s1</title>
<path fill="none" stroke="#000000" d="M3.7438,-23.6206C8.1093,-23.6206 19.1896,-23.6206 30.3912,-23.6206"/>
<polygon fill="#000000" stroke="#000000" points="30.5235,-27.1207 40.5235,-23.6206 30.5234,-20.1207 30.5235,-27.1207"/>
</g>
<!-- s3 -->
<g id="node2" class="node">
<title>s3</title>
<ellipse fill="none" stroke="#000000" cx="228.7028" cy="-23.6206" rx="19.7212" ry="19.7212"/>
<ellipse fill="none" stroke="#000000" cx="228.7028" cy="-23.6206" rx="23.7418" ry="23.7418"/>
<text text-anchor="middle" x="228.7028" y="-19.4206" font-family="Times,serif" font-size="14.00" fill="#000000">s3</text>
</g>
<!-- s3&#45;&gt;s3 -->
<g id="edge6" class="edge">
<title>s3&#45;&gt;s3</title>
<path fill="none" stroke="#000000" d="M220.616,-45.8869C219.7338,-56.2162 222.4294,-65.2411 228.7028,-65.2411 232.7218,-65.2411 235.2723,-61.5373 236.3546,-56.1595"/>
<polygon fill="#000000" stroke="#000000" points="239.8633,-56.0261 236.7897,-45.8869 232.8695,-55.7298 239.8633,-56.0261"/>
<text text-anchor="middle" x="228.7028" y="-69.4411" font-family="Times,serif" font-size="14.00" fill="#000000">a,b</text>
</g>
<!-- s1&#45;&gt;s1 -->
<g id="edge3" class="edge">
<title>s1&#45;&gt;s1</title>
<path fill="none" stroke="#000000" d="M53.3895,-42.2028C52.2287,-52.1651 54.5057,-61.2411 60.2206,-61.2411 63.8816,-61.2411 66.1318,-57.5163 66.9711,-52.2199"/>
<polygon fill="#000000" stroke="#000000" points="70.471,-52.2306 67.0516,-42.2028 63.4713,-52.1743 70.471,-52.2306"/>
<text text-anchor="middle" x="60.2206" y="-65.4411" font-family="Times,serif" font-size="14.00" fill="#000000">a</text>
</g>
<!-- s2 -->
<g id="node4" class="node">
<title>s2</title>
<ellipse fill="none" stroke="#000000" cx="142.4617" cy="-23.6206" rx="19.7419" ry="19.7419"/>
<text text-anchor="middle" x="142.4617" y="-19.4206" font-family="Times,serif" font-size="14.00" fill="#000000">s2</text>
</g>
<!-- s1&#45;&gt;s2 -->
<g id="edge2" class="edge">
<title>s1&#45;&gt;s2</title>
<path fill="none" stroke="#000000" d="M80.1289,-23.6206C89.8266,-23.6206 101.692,-23.6206 112.4581,-23.6206"/>
<polygon fill="#000000" stroke="#000000" points="112.7368,-27.1207 122.7367,-23.6206 112.7367,-20.1207 112.7368,-27.1207"/>
<text text-anchor="middle" x="101.3411" y="-27.8206" font-family="Times,serif" font-size="14.00" fill="#000000">b</text>
</g>
<!-- s2&#45;&gt;s3 -->
<g id="edge4" class="edge">
<title>s2&#45;&gt;s3</title>
<path fill="none" stroke="#000000" d="M162.4639,-23.6206C172.0417,-23.6206 183.7799,-23.6206 194.7005,-23.6206"/>
<polygon fill="#000000" stroke="#000000" points="194.823,-27.1207 204.823,-23.6206 194.823,-20.1207 194.823,-27.1207"/>
<text text-anchor="middle" x="183.5823" y="-27.8206" font-family="Times,serif" font-size="14.00" fill="#000000">b</text>
</g>
<!-- s2&#45;&gt;s2 -->
<g id="edge5" class="edge">
<title>s2&#45;&gt;s2</title>
<path fill="none" stroke="#000000" d="M135.2711,-42.2028C134.0492,-52.1651 136.4461,-61.2411 142.4617,-61.2411 146.3155,-61.2411 148.6841,-57.5163 149.5675,-52.2199"/>
<polygon fill="#000000" stroke="#000000" points="153.0675,-52.232 149.6523,-42.2028 146.0677,-52.1728 153.0675,-52.232"/>
<text text-anchor="middle" x="142.4617" y="-65.4411" font-family="Times,serif" font-size="14.00" fill="#000000">a</text>
</g>
</g>
</svg>
