<?xml version="1.0" encoding="UTF-8" standalone="no"?>
<!DOCTYPE svg PUBLIC "-//W3C//DTD SVG 1.1//EN"
 "http://www.w3.org/Graphics/SVG/1.1/DTD/svg11.dtd">
<!-- Generated by graphviz version 2.40.1 (20161225.0304)
 -->
<!-- Title: %0 Pages: 1 -->
<svg width="265pt" height="92pt"
 viewBox="0.00 0.00 265.19 92.19" xmlns="http://www.w3.org/2000/svg" xmlns:xlink="http://www.w3.org/1999/xlink">
<g id="graph0" class="graph" transform="scale(1 1) rotate(0) translate(4 88.1869)">
<title>%0</title>
<polygon fill="#ffffff" stroke="transparent" points="-4,4 -4,-88.1869 261.1899,-88.1869 261.1899,4 -4,4"/>
<!-- start -->
<g id="node1" class="node">
<title>start</title>
<ellipse fill="#000000" stroke="#000000" cx="1.8" cy="-24.6935" rx="1.8" ry="1.8"/>
</g>
<!-- q1 -->
<g id="node3" class="node">
<title>q1</title>
<ellipse fill="none" stroke="#000000" cx="61.2935" cy="-24.6935" rx="20.8887" ry="20.8887"/>
<text text-anchor="middle" x="61.2935" y="-20.4935" font-family="Times,serif" font-size="14.00" fill="#000000">q1</text>
</g>
<!-- start&#45;&gt;q1 -->
<g id="edge1" class="edge">
<title>start&#45;&gt;q1</title>
<path fill="none" stroke="#000000" d="M3.7795,-24.6935C8.1326,-24.6935 19.0417,-24.6935 30.2036,-24.6935"/>
<polygon fill="#000000" stroke="#000000" points="30.3445,-28.1936 40.3444,-24.6935 30.3444,-21.1936 30.3445,-28.1936"/>
</g>
<!-- q3 -->
<g id="node2" class="node">
<title>q3</title>
<ellipse fill="none" stroke="#000000" cx="232.4965" cy="-24.6935" rx="20.8568" ry="20.8568"/>
<ellipse fill="none" stroke="#000000" cx="232.4965" cy="-24.6935" rx="24.8884" ry="24.8884"/>
<text text-anchor="middle" x="232.4965" y="-20.4935" font-family="Times,serif" font-size="14.00" fill="#000000">q3</text>
</g>
<!-- q3&#45;&gt;q3 -->
<g id="edge6" class="edge">
<title>q3&#45;&gt;q3</title>
<path fill="none" stroke="#000000" d="M224.3452,-48.4015C223.6778,-58.6297 226.3949,-67.3869 232.4965,-67.3869 236.4053,-67.3869 238.9251,-63.7929 240.056,-58.5207"/>
<polygon fill="#000000" stroke="#000000" points="243.5579,-58.5888 240.6478,-48.4015 236.5698,-58.1801 243.5579,-58.5888"/>
<text text-anchor="middle" x="232.4965" y="-71.5869" font-family="Times,serif" font-size="14.00" fill="#000000">a,b</text>
</g>
<!-- q1&#45;&gt;q1 -->
<g id="edge3" class="edge">
<title>q1&#45;&gt;q1</title>
<path fill="none" stroke="#000000" d="M54.3789,-44.602C53.4222,-54.5307 55.727,-63.3869 61.2935,-63.3869 64.7725,-63.3869 66.9774,-59.9274 67.9083,-54.9089"/>
<polygon fill="#000000" stroke="#000000" points="71.4158,-54.6995 68.208,-44.602 64.4187,-54.496 71.4158,-54.6995"/>
<text text-anchor="middle" x="61.2935" y="-67.5869" font-family="Times,serif" font-size="14.00" fill="#000000">b</text>
</g>
<!-- q2 -->
<g id="node4" class="node">
<title>q2</title>
<ellipse fill="none" stroke="#000000" cx="144.895" cy="-24.6935" rx="20.8887" ry="20.8887"/>
<text text-anchor="middle" x="144.895" y="-20.4935" font-family="Times,serif" font-size="14.00" fill="#000000">q2</text>
</g>
<!-- q1&#45;&gt;q2 -->
<g id="edge2" class="edge">
<title>q1&#45;&gt;q2</title>
<path fill="none" stroke="#000000" d="M82.3896,-24.6935C91.9672,-24.6935 103.4849,-24.6935 114.0098,-24.6935"/>
<polygon fill="#000000" stroke="#000000" points="114.0952,-28.1936 124.0951,-24.6935 114.0951,-21.1936 114.0952,-28.1936"/>
<text text-anchor="middle" x="103.0942" y="-28.8935" font-family="Times,serif" font-size="14.00" fill="#000000">a</text>
</g>
<!-- q2&#45;&gt;q3 -->
<g id="edge4" class="edge">
<title>q2&#45;&gt;q3</title>
<path fill="none" stroke="#000000" d="M165.6553,-24.6935C175.1641,-24.6935 186.6982,-24.6935 197.4895,-24.6935"/>
<polygon fill="#000000" stroke="#000000" points="197.518,-28.1936 207.5179,-24.6935 197.5179,-21.1936 197.518,-28.1936"/>
<text text-anchor="middle" x="186.6957" y="-28.8935" font-family="Times,serif" font-size="14.00" fill="#000000">a</text>
</g>
<!-- q2&#45;&gt;q2 -->
<g id="edge5" class="edge">
<title>q2&#45;&gt;q2</title>
<path fill="none" stroke="#000000" d="M137.6586,-44.2043C136.5453,-54.2929 138.9575,-63.3869 144.895,-63.3869 148.6987,-63.3869 151.0556,-59.6547 151.9656,-54.3198"/>
<polygon fill="#000000" stroke="#000000" points="155.467,-54.2603 152.1313,-44.2043 148.4679,-54.1456 155.467,-54.2603"/>
<text text-anchor="middle" x="144.895" y="-67.5869" font-family="Times,serif" font-size="14.00" fill="#000000">b</text>
</g>
</g>
</svg>
