<?xml version="1.0" encoding="UTF-8" standalone="no"?>
<!DOCTYPE svg PUBLIC "-//W3C//DTD SVG 1.1//EN"
 "http://www.w3.org/Graphics/SVG/1.1/DTD/svg11.dtd">
<!-- Generated by graphviz version 2.40.1 (20161225.0304)
 -->
<!-- Title: %0 Pages: 1 -->
<svg width="685pt" height="116pt"
 viewBox="0.00 0.00 684.88 115.87" xmlns="http://www.w3.org/2000/svg" xmlns:xlink="http://www.w3.org/1999/xlink">
<g id="graph0" class="graph" transform="scale(1 1) rotate(0) translate(4 111.8655)">
<title>%0</title>
<polygon fill="#ffffff" stroke="transparent" points="-4,4 -4,-111.8655 680.8754,-111.8655 680.8754,4 -4,4"/>
<!-- q3s0,q3s1 -->
<g id="node1" class="node">
<title>q3s0,q3s1</title>
<ellipse fill="none" stroke="#000000" cx="511.673" cy="-53.9327" rx="49.8706" ry="49.8706"/>
<ellipse fill="none" stroke="#000000" cx="511.673" cy="-53.9327" rx="53.8656" ry="53.8656"/>
<text text-anchor="middle" x="511.673" y="-49.7327" font-family="Times,serif" font-size="14.00" fill="#000000">q3s0,q3s1</text>
</g>
<!-- q3s0 -->
<g id="node5" class="node">
<title>q3s0</title>
<ellipse fill="none" stroke="#000000" cx="647.5979" cy="-53.9327" rx="29.0567" ry="29.0567"/>
<text text-anchor="middle" x="647.5979" y="-49.7327" font-family="Times,serif" font-size="14.00" fill="#000000">q3s0</text>
</g>
<!-- q3s0,q3s1&#45;&gt;q3s0 -->
<g id="edge5" class="edge">
<title>q3s0,q3s1&#45;&gt;q3s0</title>
<path fill="none" stroke="#000000" d="M565.7847,-53.9327C579.9216,-53.9327 594.8935,-53.9327 608.1112,-53.9327"/>
<polygon fill="#000000" stroke="#000000" points="608.286,-57.4328 618.2859,-53.9327 608.2859,-50.4328 608.286,-57.4328"/>
<text text-anchor="middle" x="591.9631" y="-58.1327" font-family="Times,serif" font-size="14.00" fill="#000000">a,b</text>
</g>
<!-- q0s1,q0s0 -->
<g id="node2" class="node">
<title>q0s1,q0s0</title>
<ellipse fill="none" stroke="#000000" cx="49.9327" cy="-53.9327" rx="49.8656" ry="49.8656"/>
<text text-anchor="middle" x="49.9327" y="-49.7327" font-family="Times,serif" font-size="14.00" fill="#000000">q0s1,q0s0</text>
</g>
<!-- q1s0,q1s1 -->
<g id="node3" class="node">
<title>q1s0,q1s1</title>
<ellipse fill="none" stroke="#000000" cx="202.5128" cy="-53.9327" rx="49.8656" ry="49.8656"/>
<text text-anchor="middle" x="202.5128" y="-49.7327" font-family="Times,serif" font-size="14.00" fill="#000000">q1s0,q1s1</text>
</g>
<!-- q0s1,q0s0&#45;&gt;q1s0,q1s1 -->
<g id="edge1" class="edge">
<title>q0s1,q0s0&#45;&gt;q1s0,q1s1</title>
<path fill="none" stroke="#000000" d="M99.8932,-53.9327C113.4609,-53.9327 128.295,-53.9327 142.3619,-53.9327"/>
<polygon fill="#000000" stroke="#000000" points="142.4402,-57.4328 152.4402,-53.9327 142.4401,-50.4328 142.4402,-57.4328"/>
<text text-anchor="middle" x="126.2228" y="-58.1327" font-family="Times,serif" font-size="14.00" fill="#000000">a,b</text>
</g>
<!-- q2s0,q2s1 -->
<g id="node4" class="node">
<title>q2s0,q2s1</title>
<ellipse fill="none" stroke="#000000" cx="355.0929" cy="-53.9327" rx="49.8656" ry="49.8656"/>
<text text-anchor="middle" x="355.0929" y="-49.7327" font-family="Times,serif" font-size="14.00" fill="#000000">q2s0,q2s1</text>
</g>
<!-- q1s0,q1s1&#45;&gt;q2s0,q2s1 -->
<g id="edge2" class="edge">
<title>q1s0,q1s1&#45;&gt;q2s0,q2s1</title>
<path fill="none" stroke="#000000" d="M252.4733,-53.9327C266.041,-53.9327 280.8751,-53.9327 294.942,-53.9327"/>
<polygon fill="#000000" stroke="#000000" points="295.0203,-57.4328 305.0203,-53.9327 295.0202,-50.4328 295.0203,-57.4328"/>
<text text-anchor="middle" x="278.8029" y="-58.1327" font-family="Times,serif" font-size="14.00" fill="#000000">a,b</text>
</g>
<!-- q2s0,q2s1&#45;&gt;q3s0,q3s1 -->
<g id="edge3" class="edge">
<title>q2s0,q2s1&#45;&gt;q3s0,q3s1</title>
<path fill="none" stroke="#000000" d="M405.0664,-53.9327C418.5341,-53.9327 433.2939,-53.9327 447.4229,-53.9327"/>
<polygon fill="#000000" stroke="#000000" points="447.5721,-57.4328 457.5721,-53.9327 447.5721,-50.4328 447.5721,-57.4328"/>
<text text-anchor="middle" x="431.383" y="-58.1327" font-family="Times,serif" font-size="14.00" fill="#000000">a,b</text>
</g>
<!-- q3s0&#45;&gt;q3s0,q3s1 -->
<g id="edge4" class="edge">
<title>q3s0&#45;&gt;q3s0,q3s1</title>
<path fill="none" stroke="#000000" d="M621.1267,-41.378C614.4802,-38.7965 607.2607,-36.462 600.3204,-35.1327 591.3561,-33.4158 581.902,-33.4426 572.6406,-34.5109"/>
<polygon fill="#000000" stroke="#000000" points="572.0478,-31.0609 562.6989,-36.0458 573.1159,-37.9789 572.0478,-31.0609"/>
<text text-anchor="middle" x="591.9631" y="-40.1327" font-family="Times,serif" font-size="14.00" fill="#000000">a,b</text>
</g>
</g>
</svg>
