<?xml version="1.0" encoding="UTF-8" standalone="no"?>
<!DOCTYPE svg PUBLIC "-//W3C//DTD SVG 1.1//EN"
 "http://www.w3.org/Graphics/SVG/1.1/DTD/svg11.dtd">
<!-- Generated by graphviz version 2.40.1 (20161225.0304)
 -->
<!-- Title: %0 Pages: 1 -->
<svg width="188pt" height="55pt"
 viewBox="0.00 0.00 187.80 55.24" xmlns="http://www.w3.org/2000/svg" xmlns:xlink="http://www.w3.org/1999/xlink">
<g id="graph0" class="graph" transform="scale(1 1) rotate(0) translate(4 51.2411)">
<title>%0</title>
<polygon fill="#ffffff" stroke="transparent" points="-4,4 -4,-51.2411 183.7969,-51.2411 183.7969,4 -4,4"/>
<!-- start -->
<g id="node1" class="node">
<title>start</title>
<ellipse fill="#000000" stroke="#000000" cx="1.8" cy="-23.6206" rx="1.8" ry="1.8"/>
</g>
<!-- s0 -->
<g id="node3" class="node">
<title>s0</title>
<ellipse fill="none" stroke="#000000" cx="60.2206" cy="-23.6206" rx="19.7419" ry="19.7419"/>
<text text-anchor="middle" x="60.2206" y="-19.4206" font-family="Times,serif" font-size="14.00" fill="#000000">s0</text>
</g>
<!-- start&#45;&gt;s0 -->
<g id="edge1" class="edge">
<title>start&#45;&gt;s0</title>
<path fill="none" stroke="#000000" d="M3.7438,-23.6206C8.1093,-23.6206 19.1896,-23.6206 30.3912,-23.6206"/>
<polygon fill="#000000" stroke="#000000" points="30.5235,-27.1207 40.5235,-23.6206 30.5234,-20.1207 30.5235,-27.1207"/>
</g>
<!-- s1 -->
<g id="node2" class="node">
<title>s1</title>
<ellipse fill="none" stroke="#000000" cx="156.1763" cy="-23.6206" rx="19.7212" ry="19.7212"/>
<ellipse fill="none" stroke="#000000" cx="156.1763" cy="-23.6206" rx="23.7418" ry="23.7418"/>
<text text-anchor="middle" x="156.1763" y="-19.4206" font-family="Times,serif" font-size="14.00" fill="#000000">s1</text>
</g>
<!-- s1&#45;&gt;s0 -->
<g id="edge2" class="edge">
<title>s1&#45;&gt;s0</title>
<path fill="none" stroke="#000000" d="M135.8846,-11.3633C124.7707,-6.1067 110.6828,-1.7905 97.8411,-4.8206 93.9549,-5.7375 90.0122,-7.1207 86.2145,-8.729"/>
<polygon fill="#000000" stroke="#000000" points="84.6943,-5.5763 77.188,-13.0533 87.7187,-11.8892 84.6943,-5.5763"/>
<text text-anchor="middle" x="106.1984" y="-8.8206" font-family="Times,serif" font-size="14.00" fill="#000000">a,b</text>
</g>
<!-- s0&#45;&gt;s1 -->
<g id="edge3" class="edge">
<title>s0&#45;&gt;s1</title>
<path fill="none" stroke="#000000" d="M80.1027,-23.6206C92.176,-23.6206 107.9144,-23.6206 121.9412,-23.6206"/>
<polygon fill="#000000" stroke="#000000" points="122.2449,-27.1207 132.2449,-23.6206 122.2449,-20.1207 122.2449,-27.1207"/>
<text text-anchor="middle" x="106.1984" y="-27.8206" font-family="Times,serif" font-size="14.00" fill="#000000">a,b</text>
</g>
</g>
</svg>
