<?xml version="1.0" encoding="UTF-8" standalone="no"?>
<!DOCTYPE svg PUBLIC "-//W3C//DTD SVG 1.1//EN"
 "http://www.w3.org/Graphics/SVG/1.1/DTD/svg11.dtd">
<!-- Generated by graphviz version 2.40.1 (20161225.0304)
 -->
<!-- Title: %0 Pages: 1 -->
<svg width="380pt" height="92pt"
 viewBox="0.00 0.00 380.29 92.19" xmlns="http://www.w3.org/2000/svg" xmlns:xlink="http://www.w3.org/1999/xlink">
<g id="graph0" class="graph" transform="scale(1 1) rotate(0) translate(4 88.1869)">
<title>%0</title>
<polygon fill="#ffffff" stroke="transparent" points="-4,4 -4,-88.1869 376.2914,-88.1869 376.2914,4 -4,4"/>
<!-- start -->
<g id="node1" class="node">
<title>start</title>
<ellipse fill="#000000" stroke="#000000" cx="1.8" cy="-24.6935" rx="1.8" ry="1.8"/>
</g>
<!-- q0 -->
<g id="node3" class="node">
<title>q0</title>
<ellipse fill="none" stroke="#000000" cx="61.2935" cy="-24.6935" rx="20.8887" ry="20.8887"/>
<text text-anchor="middle" x="61.2935" y="-20.4935" font-family="Times,serif" font-size="14.00" fill="#000000">q0</text>
</g>
<!-- start&#45;&gt;q0 -->
<g id="edge1" class="edge">
<title>start&#45;&gt;q0</title>
<path fill="none" stroke="#000000" d="M3.7795,-24.6935C8.1326,-24.6935 19.0417,-24.6935 30.2036,-24.6935"/>
<polygon fill="#000000" stroke="#000000" points="30.3445,-28.1936 40.3444,-24.6935 30.3444,-21.1936 30.3445,-28.1936"/>
</g>
<!-- q3 -->
<g id="node2" class="node">
<title>q3</title>
<ellipse fill="none" stroke="#000000" cx="347.598" cy="-24.6935" rx="20.8568" ry="20.8568"/>
<ellipse fill="none" stroke="#000000" cx="347.598" cy="-24.6935" rx="24.8884" ry="24.8884"/>
<text text-anchor="middle" x="347.598" y="-20.4935" font-family="Times,serif" font-size="14.00" fill="#000000">q3</text>
</g>
<!-- q3&#45;&gt;q3 -->
<g id="edge5" class="edge">
<title>q3&#45;&gt;q3</title>
<path fill="none" stroke="#000000" d="M338.3695,-47.9685C337.4905,-58.3813 340.5667,-67.3869 347.598,-67.3869 352.1024,-67.3869 354.9836,-63.691 356.2417,-58.2969"/>
<polygon fill="#000000" stroke="#000000" points="359.7555,-58.1504 356.8265,-47.9685 352.7667,-57.7546 359.7555,-58.1504"/>
<text text-anchor="middle" x="347.598" y="-71.5869" font-family="Times,serif" font-size="14.00" fill="#000000">a,b</text>
</g>
<!-- q1 -->
<g id="node4" class="node">
<title>q1</title>
<ellipse fill="none" stroke="#000000" cx="155.395" cy="-24.6935" rx="20.8887" ry="20.8887"/>
<text text-anchor="middle" x="155.395" y="-20.4935" font-family="Times,serif" font-size="14.00" fill="#000000">q1</text>
</g>
<!-- q0&#45;&gt;q1 -->
<g id="edge2" class="edge">
<title>q0&#45;&gt;q1</title>
<path fill="none" stroke="#000000" d="M82.1776,-24.6935C94.6043,-24.6935 110.6015,-24.6935 124.4716,-24.6935"/>
<polygon fill="#000000" stroke="#000000" points="124.5692,-28.1936 134.5692,-24.6935 124.5691,-21.1936 124.5692,-28.1936"/>
<text text-anchor="middle" x="108.3442" y="-28.8935" font-family="Times,serif" font-size="14.00" fill="#000000">a,b</text>
</g>
<!-- q2 -->
<g id="node5" class="node">
<title>q2</title>
<ellipse fill="none" stroke="#000000" cx="249.4965" cy="-24.6935" rx="20.8887" ry="20.8887"/>
<text text-anchor="middle" x="249.4965" y="-20.4935" font-family="Times,serif" font-size="14.00" fill="#000000">q2</text>
</g>
<!-- q1&#45;&gt;q2 -->
<g id="edge3" class="edge">
<title>q1&#45;&gt;q2</title>
<path fill="none" stroke="#000000" d="M176.2791,-24.6935C188.7058,-24.6935 204.703,-24.6935 218.5731,-24.6935"/>
<polygon fill="#000000" stroke="#000000" points="218.6707,-28.1936 228.6707,-24.6935 218.6706,-21.1936 218.6707,-28.1936"/>
<text text-anchor="middle" x="202.4457" y="-28.8935" font-family="Times,serif" font-size="14.00" fill="#000000">a,b</text>
</g>
<!-- q2&#45;&gt;q3 -->
<g id="edge4" class="edge">
<title>q2&#45;&gt;q3</title>
<path fill="none" stroke="#000000" d="M270.3013,-24.6935C282.4921,-24.6935 298.2141,-24.6935 312.2926,-24.6935"/>
<polygon fill="#000000" stroke="#000000" points="312.6526,-28.1935 322.6525,-24.6935 312.6525,-21.1935 312.6526,-28.1935"/>
<text text-anchor="middle" x="296.5472" y="-28.8935" font-family="Times,serif" font-size="14.00" fill="#000000">a,b</text>
</g>
</g>
</svg>
