<?xml version="1.0" encoding="UTF-8" standalone="no"?>
<!DOCTYPE svg PUBLIC "-//W3C//DTD SVG 1.1//EN"
 "http://www.w3.org/Graphics/SVG/1.1/DTD/svg11.dtd">
<!-- Generated by graphviz version 2.40.1 (20161225.0304)
 -->
<!-- Title: %0 Pages: 1 -->
<svg width="621pt" height="221pt"
 viewBox="0.00 0.00 620.57 220.80" xmlns="http://www.w3.org/2000/svg" xmlns:xlink="http://www.w3.org/1999/xlink">
<g id="graph0" class="graph" transform="scale(1 1) rotate(0) translate(4 216.8)">
<title>%0</title>
<polygon fill="#ffffff" stroke="transparent" points="-4,4 -4,-216.8 616.5739,-216.8 616.5739,4 -4,4"/>
<!-- start -->
<g id="node1" class="node">
<title>start</title>
<ellipse fill="#000000" stroke="#000000" cx="1.8" cy="-134" rx="1.8" ry="1.8"/>
</g>
<!-- q0s0 -->
<g id="node2" class="node">
<title>q0s0</title>
<ellipse fill="none" stroke="#000000" cx="73.8775" cy="-134" rx="29.0831" ry="29.0831"/>
<ellipse fill="none" stroke="#000000" cx="73.8775" cy="-134" rx="33.0565" ry="33.0565"/>
<text text-anchor="middle" x="73.8775" y="-129.8" font-family="Times,serif" font-size="14.00" fill="#000000">q0s0</text>
</g>
<!-- start&#45;&gt;q0s0 -->
<g id="edge1" class="edge">
<title>start&#45;&gt;q0s0</title>
<path fill="none" stroke="#000000" d="M3.8794,-134C8.164,-134 18.5425,-134 30.033,-134"/>
<polygon fill="#000000" stroke="#000000" points="30.2919,-137.5001 40.2919,-134 30.2918,-130.5001 30.2919,-137.5001"/>
</g>
<!-- q1s0 -->
<g id="node3" class="node">
<title>q1s0</title>
<ellipse fill="none" stroke="#000000" cx="178.6471" cy="-78" rx="29.0567" ry="29.0567"/>
<text text-anchor="middle" x="178.6471" y="-73.8" font-family="Times,serif" font-size="14.00" fill="#000000">q1s0</text>
</g>
<!-- q0s0&#45;&gt;q1s0 -->
<g id="edge2" class="edge">
<title>q0s0&#45;&gt;q1s0</title>
<path fill="none" stroke="#000000" d="M103.3405,-118.2519C115.8084,-111.5877 130.4342,-103.7701 143.4632,-96.806"/>
<polygon fill="#000000" stroke="#000000" points="145.4451,-99.7154 152.6144,-91.9146 142.1453,-93.5419 145.4451,-99.7154"/>
<text text-anchor="middle" x="128.2623" y="-110.2" font-family="Times,serif" font-size="14.00" fill="#000000">a</text>
</g>
<!-- q0s1 -->
<g id="node4" class="node">
<title>q0s1</title>
<ellipse fill="none" stroke="#000000" cx="380.9718" cy="-118" rx="29.0567" ry="29.0567"/>
<text text-anchor="middle" x="380.9718" y="-113.8" font-family="Times,serif" font-size="14.00" fill="#000000">q0s1</text>
</g>
<!-- q0s0&#45;&gt;q0s1 -->
<g id="edge3" class="edge">
<title>q0s0&#45;&gt;q0s1</title>
<path fill="none" stroke="#000000" d="M107.5179,-132.4607C157.0538,-130.1615 252.5305,-125.6054 333.6943,-121 336.2449,-120.8553 338.8726,-120.7015 341.5211,-120.543"/>
<polygon fill="#000000" stroke="#000000" points="341.9536,-124.0231 351.7206,-119.9174 341.525,-117.0363 341.9536,-124.0231"/>
<text text-anchor="middle" x="229.4246" y="-131.2" font-family="Times,serif" font-size="14.00" fill="#000000">b</text>
</g>
<!-- q1s0&#45;&gt;q0s0 -->
<g id="edge8" class="edge">
<title>q1s0&#45;&gt;q0s0</title>
<path fill="none" stroke="#000000" d="M149.0971,-77.9794C141.0349,-78.8798 132.5032,-80.7129 125.155,-84.2 116.6747,-88.2244 108.729,-94.2183 101.7425,-100.6665"/>
<polygon fill="#000000" stroke="#000000" points="99.2081,-98.2504 94.5578,-107.7701 104.1297,-103.2281 99.2081,-98.2504"/>
<text text-anchor="middle" x="128.2623" y="-89.2" font-family="Times,serif" font-size="14.00" fill="#000000">a</text>
</g>
<!-- q1s1 -->
<g id="node5" class="node">
<title>q1s1</title>
<ellipse fill="none" stroke="#000000" cx="280.2022" cy="-78" rx="29.0567" ry="29.0567"/>
<text text-anchor="middle" x="280.2022" y="-73.8" font-family="Times,serif" font-size="14.00" fill="#000000">q1s1</text>
</g>
<!-- q1s0&#45;&gt;q1s1 -->
<g id="edge9" class="edge">
<title>q1s0&#45;&gt;q1s1</title>
<path fill="none" stroke="#000000" d="M208.0211,-78C218.2314,-78 229.855,-78 240.7464,-78"/>
<polygon fill="#000000" stroke="#000000" points="240.8943,-81.5001 250.8942,-78 240.8942,-74.5001 240.8943,-81.5001"/>
<text text-anchor="middle" x="229.4246" y="-82.2" font-family="Times,serif" font-size="14.00" fill="#000000">b</text>
</g>
<!-- q0s1&#45;&gt;q1s1 -->
<g id="edge4" class="edge">
<title>q0s1&#45;&gt;q1s1</title>
<path fill="none" stroke="#000000" d="M360.7922,-96.4456C353.043,-89.6164 343.651,-82.8891 333.6943,-79.2 329.1947,-77.5329 324.3331,-76.4897 319.4386,-75.8865"/>
<polygon fill="#000000" stroke="#000000" points="319.666,-72.394 309.4516,-75.2075 319.1911,-79.3779 319.666,-72.394"/>
<text text-anchor="middle" x="330.587" y="-84.2" font-family="Times,serif" font-size="14.00" fill="#000000">a</text>
</g>
<!-- q0s2 -->
<g id="node6" class="node">
<title>q0s2</title>
<ellipse fill="none" stroke="#000000" cx="482.5268" cy="-118" rx="29.0567" ry="29.0567"/>
<text text-anchor="middle" x="482.5268" y="-113.8" font-family="Times,serif" font-size="14.00" fill="#000000">q0s2</text>
</g>
<!-- q0s1&#45;&gt;q0s2 -->
<g id="edge5" class="edge">
<title>q0s1&#45;&gt;q0s2</title>
<path fill="none" stroke="#000000" d="M410.3457,-118C420.556,-118 432.1796,-118 443.071,-118"/>
<polygon fill="#000000" stroke="#000000" points="443.2189,-121.5001 453.2189,-118 443.2189,-114.5001 443.2189,-121.5001"/>
<text text-anchor="middle" x="431.7493" y="-122.2" font-family="Times,serif" font-size="14.00" fill="#000000">b</text>
</g>
<!-- q1s1&#45;&gt;q0s1 -->
<g id="edge10" class="edge">
<title>q1s1&#45;&gt;q0s1</title>
<path fill="none" stroke="#000000" d="M307.4719,-88.8246C318.7861,-93.3157 332.0857,-98.5949 344.2391,-103.4191"/>
<polygon fill="#000000" stroke="#000000" points="343.0944,-106.7304 353.6803,-107.1668 345.6771,-100.2242 343.0944,-106.7304"/>
<text text-anchor="middle" x="330.587" y="-104.2" font-family="Times,serif" font-size="14.00" fill="#000000">a</text>
</g>
<!-- q1s2 -->
<g id="node7" class="node">
<title>q1s2</title>
<ellipse fill="none" stroke="#000000" cx="583.2964" cy="-61" rx="29.0567" ry="29.0567"/>
<text text-anchor="middle" x="583.2964" y="-56.8" font-family="Times,serif" font-size="14.00" fill="#000000">q1s2</text>
</g>
<!-- q1s1&#45;&gt;q1s2 -->
<g id="edge11" class="edge">
<title>q1s1&#45;&gt;q1s2</title>
<path fill="none" stroke="#000000" d="M309.4453,-75.3712C315.4096,-74.8786 321.6446,-74.395 327.4797,-74 403.9034,-68.8267 493.2977,-64.7297 543.6098,-62.6027"/>
<polygon fill="#000000" stroke="#000000" points="543.889,-66.0941 553.7339,-62.179 543.5963,-59.1003 543.889,-66.0941"/>
<text text-anchor="middle" x="431.7493" y="-72.2" font-family="Times,serif" font-size="14.00" fill="#000000">b</text>
</g>
<!-- q0s2&#45;&gt;q0s0 -->
<g id="edge7" class="edge">
<title>q0s2&#45;&gt;q0s0</title>
<path fill="none" stroke="#000000" d="M465.7378,-142.2521C447.7038,-165.1492 416.7642,-196 380.9718,-196 178.6471,-196 178.6471,-196 178.6471,-196 151.1545,-196 124.5511,-179.9926 105.0314,-164.2451"/>
<polygon fill="#000000" stroke="#000000" points="107.2833,-161.5658 97.3828,-157.7935 102.77,-166.9165 107.2833,-161.5658"/>
<text text-anchor="middle" x="280.2022" y="-200.2" font-family="Times,serif" font-size="14.00" fill="#000000">b</text>
</g>
<!-- q0s2&#45;&gt;q1s2 -->
<g id="edge6" class="edge">
<title>q0s2&#45;&gt;q1s2</title>
<path fill="none" stroke="#000000" d="M503.9318,-97.6846C511.6508,-91.1294 520.7105,-84.258 529.8043,-79.2 534.6801,-76.4881 540.0297,-74.0829 545.4019,-71.9819"/>
<polygon fill="#000000" stroke="#000000" points="546.7748,-75.2076 554.9989,-68.5282 544.4044,-68.6212 546.7748,-75.2076"/>
<text text-anchor="middle" x="532.9116" y="-84.2" font-family="Times,serif" font-size="14.00" fill="#000000">a</text>
</g>
<!-- q1s2&#45;&gt;q1s0 -->
<g id="edge13" class="edge">
<title>q1s2&#45;&gt;q1s0</title>
<path fill="none" stroke="#000000" d="M563.0512,-39.6652C544.0895,-22.0745 514.0204,0 482.5268,0 280.2022,0 280.2022,0 280.2022,0 248.3245,0 220.2962,-24.4713 201.8061,-46.0001"/>
<polygon fill="#000000" stroke="#000000" points="199.0834,-43.8006 195.4361,-53.7479 204.4905,-48.2462 199.0834,-43.8006"/>
<text text-anchor="middle" x="380.9718" y="-4.2" font-family="Times,serif" font-size="14.00" fill="#000000">b</text>
</g>
<!-- q1s2&#45;&gt;q0s2 -->
<g id="edge12" class="edge">
<title>q1s2&#45;&gt;q0s2</title>
<path fill="none" stroke="#000000" d="M560.5045,-79.6412C552.9744,-85.3104 544.3794,-91.2825 536.0189,-96 530.8646,-98.9084 525.2483,-101.6437 519.656,-104.1315"/>
<polygon fill="#000000" stroke="#000000" points="518.1963,-100.9487 510.3529,-108.0713 520.9261,-107.3945 518.1963,-100.9487"/>
<text text-anchor="middle" x="532.9116" y="-103.2" font-family="Times,serif" font-size="14.00" fill="#000000">a</text>
</g>
</g>
</svg>
