<?xml version="1.0" encoding="UTF-8" standalone="no"?>
<!DOCTYPE svg PUBLIC "-//W3C//DTD SVG 1.1//EN"
 "http://www.w3.org/Graphics/SVG/1.1/DTD/svg11.dtd">
<!-- Generated by graphviz version 2.40.1 (20161225.0304)
 -->
<!-- Title: %0 Pages: 1 -->
<svg width="260pt" height="124pt"
 viewBox="0.00 0.00 260.32 124.04" xmlns="http://www.w3.org/2000/svg" xmlns:xlink="http://www.w3.org/1999/xlink">
<g id="graph0" class="graph" transform="scale(1 1) rotate(0) translate(4 120.0411)">
<title>%0</title>
<polygon fill="#ffffff" stroke="transparent" points="-4,4 -4,-120.0411 256.3234,-120.0411 256.3234,4 -4,4"/>
<!-- start -->
<g id="node1" class="node">
<title>start</title>
<ellipse fill="#000000" stroke="#000000" cx="1.8" cy="-23.6206" rx="1.8" ry="1.8"/>
</g>
<!-- s0 -->
<g id="node2" class="node">
<title>s0</title>
<ellipse fill="none" stroke="#000000" cx="64.2206" cy="-23.6206" rx="19.7212" ry="19.7212"/>
<ellipse fill="none" stroke="#000000" cx="64.2206" cy="-23.6206" rx="23.7418" ry="23.7418"/>
<text text-anchor="middle" x="64.2206" y="-19.4206" font-family="Times,serif" font-size="14.00" fill="#000000">s0</text>
</g>
<!-- start&#45;&gt;s0 -->
<g id="edge1" class="edge">
<title>start&#45;&gt;s0</title>
<path fill="none" stroke="#000000" d="M3.6008,-23.6206C7.8061,-23.6206 18.7899,-23.6206 30.2719,-23.6206"/>
<polygon fill="#000000" stroke="#000000" points="30.3326,-27.1207 40.3326,-23.6206 30.3325,-20.1207 30.3326,-27.1207"/>
</g>
<!-- s0&#45;&gt;s0 -->
<g id="edge5" class="edge">
<title>s0&#45;&gt;s0</title>
<path fill="none" stroke="#000000" d="M56.4686,-46.3107C55.7303,-56.4618 58.3143,-65.2411 64.2206,-65.2411 68.0043,-65.2411 70.4245,-61.6381 71.4813,-56.3795"/>
<polygon fill="#000000" stroke="#000000" points="74.9809,-56.4694 71.9725,-46.3107 67.9893,-56.1282 74.9809,-56.4694"/>
<text text-anchor="middle" x="64.2206" y="-69.4411" font-family="Times,serif" font-size="14.00" fill="#000000">a</text>
</g>
<!-- s1 -->
<g id="node3" class="node">
<title>s1</title>
<ellipse fill="none" stroke="#000000" cx="150.4617" cy="-61.6206" rx="19.7419" ry="19.7419"/>
<text text-anchor="middle" x="150.4617" y="-57.4206" font-family="Times,serif" font-size="14.00" fill="#000000">s1</text>
</g>
<!-- s0&#45;&gt;s1 -->
<g id="edge4" class="edge">
<title>s0&#45;&gt;s1</title>
<path fill="none" stroke="#000000" d="M85.9828,-33.2096C97.3224,-38.206 111.2982,-44.3642 123.3363,-49.6684"/>
<polygon fill="#000000" stroke="#000000" points="121.9254,-52.8714 132.4877,-53.7008 124.7479,-46.4657 121.9254,-52.8714"/>
<text text-anchor="middle" x="109.3411" y="-48.8206" font-family="Times,serif" font-size="14.00" fill="#000000">b</text>
</g>
<!-- s1&#45;&gt;s1 -->
<g id="edge3" class="edge">
<title>s1&#45;&gt;s1</title>
<path fill="none" stroke="#000000" d="M143.2711,-80.2028C142.0492,-90.1651 144.4461,-99.2411 150.4617,-99.2411 154.3155,-99.2411 156.6841,-95.5163 157.5675,-90.2199"/>
<polygon fill="#000000" stroke="#000000" points="161.0675,-90.232 157.6523,-80.2028 154.0677,-90.1728 161.0675,-90.232"/>
<text text-anchor="middle" x="150.4617" y="-103.4411" font-family="Times,serif" font-size="14.00" fill="#000000">a</text>
</g>
<!-- s2 -->
<g id="node4" class="node">
<title>s2</title>
<ellipse fill="none" stroke="#000000" cx="232.7028" cy="-23.6206" rx="19.7419" ry="19.7419"/>
<text text-anchor="middle" x="232.7028" y="-19.4206" font-family="Times,serif" font-size="14.00" fill="#000000">s2</text>
</g>
<!-- s1&#45;&gt;s2 -->
<g id="edge2" class="edge">
<title>s1&#45;&gt;s2</title>
<path fill="none" stroke="#000000" d="M168.3068,-53.3751C179.117,-48.3802 193.1273,-41.9067 205.3179,-36.2739"/>
<polygon fill="#000000" stroke="#000000" points="206.9988,-39.3529 214.6086,-31.9811 204.0627,-32.9984 206.9988,-39.3529"/>
<text text-anchor="middle" x="191.5823" y="-47.8206" font-family="Times,serif" font-size="14.00" fill="#000000">b</text>
</g>
<!-- s2&#45;&gt;s0 -->
<g id="edge6" class="edge">
<title>s2&#45;&gt;s0</title>
<path fill="none" stroke="#000000" d="M213.298,-20.5738C200.9593,-18.7929 184.6253,-16.7228 170.0823,-15.8206 152.6752,-14.7406 148.252,-14.8048 130.8411,-15.8206 120.0296,-16.4513 108.2812,-17.6532 97.7034,-18.928"/>
<polygon fill="#000000" stroke="#000000" points="97.0748,-15.4795 87.5939,-20.2086 97.9545,-22.424 97.0748,-15.4795"/>
<text text-anchor="middle" x="150.4617" y="-19.8206" font-family="Times,serif" font-size="14.00" fill="#000000">b</text>
</g>
<!-- s2&#45;&gt;s2 -->
<g id="edge7" class="edge">
<title>s2&#45;&gt;s2</title>
<path fill="none" stroke="#000000" d="M225.5123,-42.2028C224.2904,-52.1651 226.6872,-61.2411 232.7028,-61.2411 236.5566,-61.2411 238.9252,-57.5163 239.8087,-52.2199"/>
<polygon fill="#000000" stroke="#000000" points="243.3086,-52.232 239.8934,-42.2028 236.3088,-52.1728 243.3086,-52.232"/>
<text text-anchor="middle" x="232.7028" y="-65.4411" font-family="Times,serif" font-size="14.00" fill="#000000">a</text>
</g>
</g>
</svg>
