<?xml version="1.0" encoding="UTF-8" standalone="no"?>
<!DOCTYPE svg PUBLIC "-//W3C//DTD SVG 1.1//EN"
 "http://www.w3.org/Graphics/SVG/1.1/DTD/svg11.dtd">
<!-- Generated by graphviz version 2.40.1 (20161225.0304)
 -->
<!-- Title: %0 Pages: 1 -->
<svg width="182pt" height="92pt"
 viewBox="0.00 0.00 181.59 92.19" xmlns="http://www.w3.org/2000/svg" xmlns:xlink="http://www.w3.org/1999/xlink">
<g id="graph0" class="graph" transform="scale(1 1) rotate(0) translate(4 88.1869)">
<title>%0</title>
<polygon fill="#ffffff" stroke="transparent" points="-4,4 -4,-88.1869 177.5884,-88.1869 177.5884,4 -4,4"/>
<!-- start -->
<g id="node1" class="node">
<title>start</title>
<ellipse fill="#000000" stroke="#000000" cx="1.8" cy="-24.6935" rx="1.8" ry="1.8"/>
</g>
<!-- q0 -->
<g id="node2" class="node">
<title>q0</title>
<ellipse fill="none" stroke="#000000" cx="65.2935" cy="-24.6935" rx="20.8568" ry="20.8568"/>
<ellipse fill="none" stroke="#000000" cx="65.2935" cy="-24.6935" rx="24.8884" ry="24.8884"/>
<text text-anchor="middle" x="65.2935" y="-20.4935" font-family="Times,serif" font-size="14.00" fill="#000000">q0</text>
</g>
<!-- start&#45;&gt;q0 -->
<g id="edge1" class="edge">
<title>start&#45;&gt;q0</title>
<path fill="none" stroke="#000000" d="M3.6318,-24.6935C7.8464,-24.6935 18.7548,-24.6935 30.2464,-24.6935"/>
<polygon fill="#000000" stroke="#000000" points="30.3416,-28.1936 40.3415,-24.6935 30.3415,-21.1936 30.3416,-28.1936"/>
</g>
<!-- q0&#45;&gt;q0 -->
<g id="edge5" class="edge">
<title>q0&#45;&gt;q0</title>
<path fill="none" stroke="#000000" d="M57.5127,-48.4015C56.8756,-58.6297 59.4692,-67.3869 65.2935,-67.3869 69.0246,-67.3869 71.4299,-63.7929 72.5093,-58.5207"/>
<polygon fill="#000000" stroke="#000000" points="76.0113,-58.5811 73.0742,-48.4015 69.0222,-58.1908 76.0113,-58.5811"/>
<text text-anchor="middle" x="65.2935" y="-71.5869" font-family="Times,serif" font-size="14.00" fill="#000000">b</text>
</g>
<!-- q1 -->
<g id="node3" class="node">
<title>q1</title>
<ellipse fill="none" stroke="#000000" cx="152.895" cy="-24.6935" rx="20.8887" ry="20.8887"/>
<text text-anchor="middle" x="152.895" y="-20.4935" font-family="Times,serif" font-size="14.00" fill="#000000">q1</text>
</g>
<!-- q0&#45;&gt;q1 -->
<g id="edge4" class="edge">
<title>q0&#45;&gt;q1</title>
<path fill="none" stroke="#000000" d="M90.1622,-24.6935C99.9984,-24.6935 111.4118,-24.6935 121.7857,-24.6935"/>
<polygon fill="#000000" stroke="#000000" points="122.1104,-28.1935 132.1103,-24.6935 122.1103,-21.1935 122.1104,-28.1935"/>
<text text-anchor="middle" x="111.0942" y="-28.8935" font-family="Times,serif" font-size="14.00" fill="#000000">a</text>
</g>
<!-- q1&#45;&gt;q0 -->
<g id="edge2" class="edge">
<title>q1&#45;&gt;q0</title>
<path fill="none" stroke="#000000" d="M135.0223,-13.9246C128.6764,-10.6742 121.3343,-7.5345 114.2015,-5.8935 107.9184,-4.4479 101.3655,-5.2437 95.1739,-7.1507"/>
<polygon fill="#000000" stroke="#000000" points="93.8093,-3.9269 85.8323,-10.8995 96.4164,-10.4233 93.8093,-3.9269"/>
<text text-anchor="middle" x="111.0942" y="-9.8935" font-family="Times,serif" font-size="14.00" fill="#000000">a</text>
</g>
<!-- q1&#45;&gt;q1 -->
<g id="edge3" class="edge">
<title>q1&#45;&gt;q1</title>
<path fill="none" stroke="#000000" d="M145.6586,-44.2043C144.5453,-54.2929 146.9575,-63.3869 152.895,-63.3869 156.6987,-63.3869 159.0556,-59.6547 159.9656,-54.3198"/>
<polygon fill="#000000" stroke="#000000" points="163.467,-54.2603 160.1313,-44.2043 156.4679,-54.1456 163.467,-54.2603"/>
<text text-anchor="middle" x="152.895" y="-67.5869" font-family="Times,serif" font-size="14.00" fill="#000000">b</text>
</g>
</g>
</svg>
