<?xml version="1.0" encoding="UTF-8" standalone="no"?>
<!DOCTYPE svg PUBLIC "-//W3C//DTD SVG 1.1//EN"
 "http://www.w3.org/Graphics/SVG/1.1/DTD/svg11.dtd">
<!-- Generated by graphviz version 2.40.1 (20161225.0304)
 -->
<!-- Title: %0 Pages: 1 -->
<svg width="653pt" height="221pt"
 viewBox="0.00 0.00 652.57 220.80" xmlns="http://www.w3.org/2000/svg" xmlns:xlink="http://www.w3.org/1999/xlink">
<g id="graph0" class="graph" transform="scale(1 1) rotate(0) translate(4 216.8)">
<title>%0</title>
<polygon fill="#ffffff" stroke="transparent" points="-4,4 -4,-216.8 648.5739,-216.8 648.5739,4 -4,4"/>
<!-- start -->
<g id="node1" class="node">
<title>start</title>
<ellipse fill="#000000" stroke="#000000" cx="1.8" cy="-134" rx="1.8" ry="1.8"/>
</g>
<!-- q0s0 -->
<g id="node7" class="node">
<title>q0s0</title>
<ellipse fill="none" stroke="#000000" cx="69.8775" cy="-134" rx="29.0567" ry="29.0567"/>
<text text-anchor="middle" x="69.8775" y="-129.8" font-family="Times,serif" font-size="14.00" fill="#000000">q0s0</text>
</g>
<!-- start&#45;&gt;q0s0 -->
<g id="edge1" class="edge">
<title>start&#45;&gt;q0s0</title>
<path fill="none" stroke="#000000" d="M3.764,-134C8.0131,-134 18.608,-134 30.1014,-134"/>
<polygon fill="#000000" stroke="#000000" points="30.2962,-137.5001 40.2962,-134 30.2961,-130.5001 30.2962,-137.5001"/>
</g>
<!-- q1s0 -->
<g id="node2" class="node">
<title>q1s0</title>
<ellipse fill="none" stroke="#000000" cx="174.6471" cy="-78" rx="29.0831" ry="29.0831"/>
<ellipse fill="none" stroke="#000000" cx="174.6471" cy="-78" rx="33.0565" ry="33.0565"/>
<text text-anchor="middle" x="174.6471" y="-73.8" font-family="Times,serif" font-size="14.00" fill="#000000">q1s0</text>
</g>
<!-- q1s1 -->
<g id="node3" class="node">
<title>q1s1</title>
<ellipse fill="none" stroke="#000000" cx="284.2022" cy="-78" rx="29.0831" ry="29.0831"/>
<ellipse fill="none" stroke="#000000" cx="284.2022" cy="-78" rx="33.0565" ry="33.0565"/>
<text text-anchor="middle" x="284.2022" y="-73.8" font-family="Times,serif" font-size="14.00" fill="#000000">q1s1</text>
</g>
<!-- q1s0&#45;&gt;q1s1 -->
<g id="edge9" class="edge">
<title>q1s0&#45;&gt;q1s1</title>
<path fill="none" stroke="#000000" d="M208.1125,-78C218.3174,-78 229.6913,-78 240.47,-78"/>
<polygon fill="#000000" stroke="#000000" points="240.5642,-81.5001 250.5642,-78 240.5641,-74.5001 240.5642,-81.5001"/>
<text text-anchor="middle" x="229.4246" y="-82.2" font-family="Times,serif" font-size="14.00" fill="#000000">b</text>
</g>
<!-- q1s0&#45;&gt;q0s0 -->
<g id="edge8" class="edge">
<title>q1s0&#45;&gt;q0s0</title>
<path fill="none" stroke="#000000" d="M141.301,-78.3521C133.0865,-79.4541 124.5355,-81.5165 117.155,-85.2 108.6289,-89.4553 100.776,-95.8842 94.0206,-102.6912"/>
<polygon fill="#000000" stroke="#000000" points="91.354,-100.4199 87.1409,-110.1411 96.4966,-105.1689 91.354,-100.4199"/>
<text text-anchor="middle" x="120.2623" y="-90.2" font-family="Times,serif" font-size="14.00" fill="#000000">a</text>
</g>
<!-- q0s1 -->
<g id="node4" class="node">
<title>q0s1</title>
<ellipse fill="none" stroke="#000000" cx="392.9718" cy="-118" rx="29.0831" ry="29.0831"/>
<ellipse fill="none" stroke="#000000" cx="392.9718" cy="-118" rx="33.0565" ry="33.0565"/>
<text text-anchor="middle" x="392.9718" y="-113.8" font-family="Times,serif" font-size="14.00" fill="#000000">q0s1</text>
</g>
<!-- q1s1&#45;&gt;q0s1 -->
<g id="edge10" class="edge">
<title>q1s1&#45;&gt;q0s1</title>
<path fill="none" stroke="#000000" d="M315.6628,-89.5697C327.0495,-93.7571 340.0772,-98.548 352.152,-102.9885"/>
<polygon fill="#000000" stroke="#000000" points="350.9883,-106.2897 361.5818,-106.4563 353.4044,-99.7199 350.9883,-106.2897"/>
<text text-anchor="middle" x="338.587" y="-102.2" font-family="Times,serif" font-size="14.00" fill="#000000">a</text>
</g>
<!-- q1s2 -->
<g id="node6" class="node">
<title>q1s2</title>
<ellipse fill="none" stroke="#000000" cx="611.2964" cy="-61" rx="29.0831" ry="29.0831"/>
<ellipse fill="none" stroke="#000000" cx="611.2964" cy="-61" rx="33.0565" ry="33.0565"/>
<text text-anchor="middle" x="611.2964" y="-56.8" font-family="Times,serif" font-size="14.00" fill="#000000">q1s2</text>
</g>
<!-- q1s1&#45;&gt;q1s2 -->
<g id="edge11" class="edge">
<title>q1s1&#45;&gt;q1s2</title>
<path fill="none" stroke="#000000" d="M317.5673,-75.2478C323.53,-74.7986 329.6869,-74.3624 335.4797,-74 417.3386,-68.8793 512.9787,-64.7966 567.415,-62.6516"/>
<polygon fill="#000000" stroke="#000000" points="567.8807,-66.1362 577.7366,-62.2488 567.6076,-59.1415 567.8807,-66.1362"/>
<text text-anchor="middle" x="447.7493" y="-72.2" font-family="Times,serif" font-size="14.00" fill="#000000">b</text>
</g>
<!-- q0s1&#45;&gt;q1s1 -->
<g id="edge4" class="edge">
<title>q0s1&#45;&gt;q1s1</title>
<path fill="none" stroke="#000000" d="M368.7469,-94.7805C360.7474,-88.5288 351.3962,-82.57 341.6943,-79.2 337.3326,-77.685 332.6703,-76.6782 327.9586,-76.0455"/>
<polygon fill="#000000" stroke="#000000" points="327.9134,-72.5302 317.6619,-75.2057 327.3443,-79.5071 327.9134,-72.5302"/>
<text text-anchor="middle" x="338.587" y="-84.2" font-family="Times,serif" font-size="14.00" fill="#000000">a</text>
</g>
<!-- q0s2 -->
<g id="node5" class="node">
<title>q0s2</title>
<ellipse fill="none" stroke="#000000" cx="502.5268" cy="-118" rx="29.0831" ry="29.0831"/>
<ellipse fill="none" stroke="#000000" cx="502.5268" cy="-118" rx="33.0565" ry="33.0565"/>
<text text-anchor="middle" x="502.5268" y="-113.8" font-family="Times,serif" font-size="14.00" fill="#000000">q0s2</text>
</g>
<!-- q0s1&#45;&gt;q0s2 -->
<g id="edge5" class="edge">
<title>q0s1&#45;&gt;q0s2</title>
<path fill="none" stroke="#000000" d="M426.4372,-118C436.642,-118 448.016,-118 458.7946,-118"/>
<polygon fill="#000000" stroke="#000000" points="458.8889,-121.5001 468.8888,-118 458.8888,-114.5001 458.8889,-121.5001"/>
<text text-anchor="middle" x="447.7493" y="-122.2" font-family="Times,serif" font-size="14.00" fill="#000000">b</text>
</g>
<!-- q0s2&#45;&gt;q1s2 -->
<g id="edge6" class="edge">
<title>q0s2&#45;&gt;q1s2</title>
<path fill="none" stroke="#000000" d="M527.7263,-96.2372C535.6923,-90.117 544.7802,-83.8656 553.8043,-79.2 558.6868,-76.6757 563.9847,-74.4213 569.3222,-72.4322"/>
<polygon fill="#000000" stroke="#000000" points="570.5755,-75.7024 578.8914,-69.1376 568.2967,-69.0837 570.5755,-75.7024"/>
<text text-anchor="middle" x="556.9116" y="-84.2" font-family="Times,serif" font-size="14.00" fill="#000000">a</text>
</g>
<!-- q0s2&#45;&gt;q0s0 -->
<g id="edge7" class="edge">
<title>q0s2&#45;&gt;q0s0</title>
<path fill="none" stroke="#000000" d="M482.1096,-144.4072C462.1093,-167.0356 429.3949,-196 392.9718,-196 174.6471,-196 174.6471,-196 174.6471,-196 145.8542,-196 118.0365,-178.4426 98.3099,-162.0141"/>
<polygon fill="#000000" stroke="#000000" points="100.4771,-159.2605 90.6355,-155.3369 95.8823,-164.5414 100.4771,-159.2605"/>
<text text-anchor="middle" x="284.2022" y="-200.2" font-family="Times,serif" font-size="14.00" fill="#000000">b</text>
</g>
<!-- q1s2&#45;&gt;q1s0 -->
<g id="edge13" class="edge">
<title>q1s2&#45;&gt;q1s0</title>
<path fill="none" stroke="#000000" d="M587.0822,-37.9385C566.3404,-20.6644 534.7861,0 502.5268,0 284.2022,0 284.2022,0 284.2022,0 251.7628,0 222.2653,-22.9749 202.0714,-43.9866"/>
<polygon fill="#000000" stroke="#000000" points="199.2657,-41.8665 195.0643,-51.5928 204.414,-46.6094 199.2657,-41.8665"/>
<text text-anchor="middle" x="392.9718" y="-4.2" font-family="Times,serif" font-size="14.00" fill="#000000">b</text>
</g>
<!-- q1s2&#45;&gt;q0s2 -->
<g id="edge12" class="edge">
<title>q1s2&#45;&gt;q0s2</title>
<path fill="none" stroke="#000000" d="M584.6224,-80.9354C576.9103,-86.2164 568.3269,-91.6515 560.0189,-96 554.8023,-98.7304 549.1683,-101.3045 543.5381,-103.6631"/>
<polygon fill="#000000" stroke="#000000" points="542.128,-100.4575 534.1409,-107.4187 544.7258,-106.9576 542.128,-100.4575"/>
<text text-anchor="middle" x="556.9116" y="-103.2" font-family="Times,serif" font-size="14.00" fill="#000000">a</text>
</g>
<!-- q0s0&#45;&gt;q1s0 -->
<g id="edge2" class="edge">
<title>q0s0&#45;&gt;q1s0</title>
<path fill="none" stroke="#000000" d="M95.7756,-120.1573C107.8873,-113.6835 122.5624,-105.8396 135.9538,-98.6818"/>
<polygon fill="#000000" stroke="#000000" points="137.803,-101.6621 144.9724,-93.8613 134.5032,-95.4886 137.803,-101.6621"/>
<text text-anchor="middle" x="120.2623" y="-112.2" font-family="Times,serif" font-size="14.00" fill="#000000">a</text>
</g>
<!-- q0s0&#45;&gt;q0s1 -->
<g id="edge3" class="edge">
<title>q0s0&#45;&gt;q0s1</title>
<path fill="none" stroke="#000000" d="M99.1198,-132.5519C156.1825,-129.7261 282.6297,-123.4643 349.5236,-120.1516"/>
<polygon fill="#000000" stroke="#000000" points="349.914,-123.6367 359.7286,-119.6462 349.5677,-116.6452 349.914,-123.6367"/>
<text text-anchor="middle" x="229.4246" y="-131.2" font-family="Times,serif" font-size="14.00" fill="#000000">b</text>
</g>
</g>
</svg>
