<?xml version="1.0" encoding="UTF-8" standalone="no"?>
<!DOCTYPE svg PUBLIC "-//W3C//DTD SVG 1.1//EN"
 "http://www.w3.org/Graphics/SVG/1.1/DTD/svg11.dtd">
<!-- Generated by graphviz version 2.40.1 (20161225.0304)
 -->
<!-- Title: %0 Pages: 1 -->
<svg width="1428pt" height="558pt"
 viewBox="0.00 0.00 1427.54 558.20" xmlns="http://www.w3.org/2000/svg" xmlns:xlink="http://www.w3.org/1999/xlink">
<g id="graph0" class="graph" transform="scale(1 1) rotate(0) translate(4 554.1974)">
<title>%0</title>
<polygon fill="#ffffff" stroke="transparent" points="-4,4 -4,-554.1974 1423.5399,-554.1974 1423.5399,4 -4,4"/>
<!-- q3s1 -->
<g id="node1" class="node">
<title>q3s1</title>
<ellipse fill="none" stroke="#000000" cx="337.9426" cy="-144.3974" rx="29.0831" ry="29.0831"/>
<ellipse fill="none" stroke="#000000" cx="337.9426" cy="-144.3974" rx="33.0565" ry="33.0565"/>
<text text-anchor="middle" x="337.9426" y="-140.1974" font-family="Times,serif" font-size="14.00" fill="#000000">q3s1</text>
</g>
<!-- q4s0 -->
<g id="node27" class="node">
<title>q4s0</title>
<ellipse fill="none" stroke="#000000" cx="443.4976" cy="-107.3974" rx="29.0567" ry="29.0567"/>
<text text-anchor="middle" x="443.4976" y="-103.1974" font-family="Times,serif" font-size="14.00" fill="#000000">q4s0</text>
</g>
<!-- q3s1&#45;&gt;q4s0 -->
<g id="edge39" class="edge">
<title>q3s1&#45;&gt;q4s0</title>
<path fill="none" stroke="#000000" d="M362.828,-121.8758C370.7145,-116.0849 379.8376,-110.6348 389.2201,-107.5974 393.9044,-106.081 398.9376,-105.1752 403.9822,-104.694"/>
<polygon fill="#000000" stroke="#000000" points="404.408,-108.1788 414.2446,-104.243 404.1006,-101.1855 404.408,-108.1788"/>
<text text-anchor="middle" x="392.7201" y="-111.5974" font-family="Times,serif" font-size="14.00" fill="#000000">a</text>
</g>
<!-- q4s2 -->
<g id="node28" class="node">
<title>q4s2</title>
<ellipse fill="none" stroke="#000000" cx="654.6076" cy="-175.3974" rx="29.0567" ry="29.0567"/>
<text text-anchor="middle" x="654.6076" y="-171.1974" font-family="Times,serif" font-size="14.00" fill="#000000">q4s2</text>
</g>
<!-- q3s1&#45;&gt;q4s2 -->
<g id="edge40" class="edge">
<title>q3s1&#45;&gt;q4s2</title>
<path fill="none" stroke="#000000" d="M370.439,-152.6358C405.8816,-161.0579 464.4207,-173.3272 515.7751,-176.3974 556.3937,-178.8258 566.6413,-176.8277 607.3301,-176.3974 609.8442,-176.3709 612.4334,-176.3363 615.0437,-176.2961"/>
<polygon fill="#000000" stroke="#000000" points="615.1658,-179.7946 625.1022,-176.1178 615.0417,-172.7957 615.1658,-179.7946"/>
<text text-anchor="middle" x="494.2751" y="-178.5974" font-family="Times,serif" font-size="14.00" fill="#000000">b</text>
</g>
<!-- q3s2 -->
<g id="node2" class="node">
<title>q3s2</title>
<ellipse fill="none" stroke="#000000" cx="1074.3827" cy="-393.3974" rx="29.0831" ry="29.0831"/>
<ellipse fill="none" stroke="#000000" cx="1074.3827" cy="-393.3974" rx="33.0565" ry="33.0565"/>
<text text-anchor="middle" x="1074.3827" y="-389.1974" font-family="Times,serif" font-size="14.00" fill="#000000">q3s2</text>
</g>
<!-- q4s3 -->
<g id="node26" class="node">
<title>q4s3</title>
<ellipse fill="none" stroke="#000000" cx="1179.9378" cy="-373.3974" rx="29.0567" ry="29.0567"/>
<text text-anchor="middle" x="1179.9378" y="-369.1974" font-family="Times,serif" font-size="14.00" fill="#000000">q4s3</text>
</g>
<!-- q3s2&#45;&gt;q4s3 -->
<g id="edge41" class="edge">
<title>q3s2&#45;&gt;q4s3</title>
<path fill="none" stroke="#000000" d="M1107.8866,-394.1321C1116.053,-393.7947 1124.7213,-392.9989 1132.6603,-391.3974 1136.2735,-390.6686 1139.9726,-389.695 1143.6324,-388.5764"/>
<polygon fill="#000000" stroke="#000000" points="1144.7997,-391.8763 1153.1422,-385.3454 1142.5478,-385.2484 1144.7997,-391.8763"/>
<text text-anchor="middle" x="1129.1603" y="-396.5974" font-family="Times,serif" font-size="14.00" fill="#000000">a</text>
</g>
<!-- q4s5 -->
<g id="node29" class="node">
<title>q4s5</title>
<ellipse fill="none" stroke="#000000" cx="1390.2624" cy="-316.3974" rx="29.0567" ry="29.0567"/>
<text text-anchor="middle" x="1390.2624" y="-312.1974" font-family="Times,serif" font-size="14.00" fill="#000000">q4s5</text>
</g>
<!-- q3s2&#45;&gt;q4s5 -->
<g id="edge42" class="edge">
<title>q3s2&#45;&gt;q4s5</title>
<path fill="none" stroke="#000000" d="M1087.7985,-362.7921C1096.2727,-347.446 1108.8294,-330.276 1125.6603,-321.3974 1198.0074,-283.2333 1297.6942,-295.731 1351.7086,-306.8848"/>
<polygon fill="#000000" stroke="#000000" points="1351.0502,-310.3232 1361.5634,-309.0107 1352.5263,-303.4806 1351.0502,-310.3232"/>
<text text-anchor="middle" x="1230.7153" y="-299.5974" font-family="Times,serif" font-size="14.00" fill="#000000">b</text>
</g>
<!-- q3s3 -->
<g id="node3" class="node">
<title>q3s3</title>
<ellipse fill="none" stroke="#000000" cx="549.0526" cy="-134.3974" rx="29.0831" ry="29.0831"/>
<ellipse fill="none" stroke="#000000" cx="549.0526" cy="-134.3974" rx="33.0565" ry="33.0565"/>
<text text-anchor="middle" x="549.0526" y="-130.1974" font-family="Times,serif" font-size="14.00" fill="#000000">q3s3</text>
</g>
<!-- q3s3&#45;&gt;q4s2 -->
<g id="edge43" class="edge">
<title>q3s3&#45;&gt;q4s2</title>
<path fill="none" stroke="#000000" d="M581.8797,-128.9106C590.3943,-128.6823 599.3961,-129.5396 607.3301,-132.5974 614.8847,-135.509 621.9809,-140.2494 628.2642,-145.5363"/>
<polygon fill="#000000" stroke="#000000" points="626.031,-148.2376 635.7617,-152.4287 630.7685,-143.0843 626.031,-148.2376"/>
<text text-anchor="middle" x="603.8301" y="-136.5974" font-family="Times,serif" font-size="14.00" fill="#000000">a</text>
</g>
<!-- q4s4 -->
<g id="node30" class="node">
<title>q4s4</title>
<ellipse fill="none" stroke="#000000" cx="968.8277" cy="-161.3974" rx="29.0567" ry="29.0567"/>
<text text-anchor="middle" x="968.8277" y="-157.1974" font-family="Times,serif" font-size="14.00" fill="#000000">q4s4</text>
</g>
<!-- q3s3&#45;&gt;q4s4 -->
<g id="edge44" class="edge">
<title>q3s3&#45;&gt;q4s4</title>
<path fill="none" stroke="#000000" d="M581.9295,-127.8881C590.1931,-126.8032 599.063,-126.1084 607.3301,-126.3974 747.2399,-131.2893 783.5523,-124.8341 921.5502,-148.3974 924.5985,-148.9179 927.7338,-149.5525 930.8698,-150.2583"/>
<polygon fill="#000000" stroke="#000000" points="930.237,-153.707 940.7841,-152.7026 931.9127,-146.9105 930.237,-153.707"/>
<text text-anchor="middle" x="731.1627" y="-133.5974" font-family="Times,serif" font-size="14.00" fill="#000000">b</text>
</g>
<!-- q3s4 -->
<g id="node4" class="node">
<title>q3s4</title>
<ellipse fill="none" stroke="#000000" cx="1285.4928" cy="-373.3974" rx="29.0831" ry="29.0831"/>
<ellipse fill="none" stroke="#000000" cx="1285.4928" cy="-373.3974" rx="33.0565" ry="33.0565"/>
<text text-anchor="middle" x="1285.4928" y="-369.1974" font-family="Times,serif" font-size="14.00" fill="#000000">q3s4</text>
</g>
<!-- q3s4&#45;&gt;q4s0 -->
<g id="edge46" class="edge">
<title>q3s4&#45;&gt;q4s0</title>
<path fill="none" stroke="#000000" d="M1280.9566,-340.3676C1269.3777,-262.7797 1235.6468,-75.3974 1179.9378,-75.3974 968.8277,-75.3974 968.8277,-75.3974 968.8277,-75.3974 863.1951,-75.3974 836.7953,-73.3974 731.1627,-73.3974 549.0526,-73.3974 549.0526,-73.3974 549.0526,-73.3974 524.8965,-73.3974 499.0634,-81.5646 478.9997,-89.8932"/>
<polygon fill="#000000" stroke="#000000" points="477.4216,-86.7628 469.6463,-93.9597 480.2126,-93.1823 477.4216,-86.7628"/>
<text text-anchor="middle" x="892.2727" y="-78.5974" font-family="Times,serif" font-size="14.00" fill="#000000">b</text>
</g>
<!-- q3s4&#45;&gt;q4s5 -->
<g id="edge45" class="edge">
<title>q3s4&#45;&gt;q4s5</title>
<path fill="none" stroke="#000000" d="M1311.0181,-351.5528C1318.9226,-345.5006 1327.8951,-339.3069 1336.7703,-334.5974 1341.6445,-332.011 1346.9593,-329.6825 1352.2858,-327.6235"/>
<polygon fill="#000000" stroke="#000000" points="1353.5638,-330.8834 1361.7933,-324.2107 1351.1988,-324.295 1353.5638,-330.8834"/>
<text text-anchor="middle" x="1339.8776" y="-338.5974" font-family="Times,serif" font-size="14.00" fill="#000000">a</text>
</g>
<!-- q3s5 -->
<g id="node5" class="node">
<title>q3s5</title>
<ellipse fill="none" stroke="#000000" cx="811.7177" cy="-216.3974" rx="29.0831" ry="29.0831"/>
<ellipse fill="none" stroke="#000000" cx="811.7177" cy="-216.3974" rx="33.0565" ry="33.0565"/>
<text text-anchor="middle" x="811.7177" y="-212.1974" font-family="Times,serif" font-size="14.00" fill="#000000">q3s5</text>
</g>
<!-- q4s1 -->
<g id="node25" class="node">
<title>q4s1</title>
<ellipse fill="none" stroke="#000000" cx="968.8277" cy="-239.3974" rx="29.0567" ry="29.0567"/>
<text text-anchor="middle" x="968.8277" y="-235.1974" font-family="Times,serif" font-size="14.00" fill="#000000">q4s1</text>
</g>
<!-- q3s5&#45;&gt;q4s1 -->
<g id="edge48" class="edge">
<title>q3s5&#45;&gt;q4s1</title>
<path fill="none" stroke="#000000" d="M844.6531,-221.219C869.4369,-224.8472 903.4919,-229.8327 929.6704,-233.665"/>
<polygon fill="#000000" stroke="#000000" points="929.2374,-237.1389 939.639,-235.1244 930.2515,-230.2127 929.2374,-237.1389"/>
<text text-anchor="middle" x="892.2727" y="-235.5974" font-family="Times,serif" font-size="14.00" fill="#000000">b</text>
</g>
<!-- q3s5&#45;&gt;q4s4 -->
<g id="edge47" class="edge">
<title>q3s5&#45;&gt;q4s4</title>
<path fill="none" stroke="#000000" d="M830.1404,-188.5444C838.7423,-178.0371 849.9715,-167.2617 862.9952,-161.5974 883.7513,-152.5703 909.0376,-152.1845 929.6882,-154.214"/>
<polygon fill="#000000" stroke="#000000" points="929.3674,-157.7006 939.7137,-155.4194 930.2031,-150.7506 929.3674,-157.7006"/>
<text text-anchor="middle" x="892.2727" y="-165.5974" font-family="Times,serif" font-size="14.00" fill="#000000">a</text>
</g>
<!-- q0s0 -->
<g id="node6" class="node">
<title>q0s0</title>
<ellipse fill="none" stroke="#000000" cx="29.2775" cy="-214.3974" rx="29.0567" ry="29.0567"/>
<text text-anchor="middle" x="29.2775" y="-210.1974" font-family="Times,serif" font-size="14.00" fill="#000000">q0s0</text>
</g>
<!-- q1s1 -->
<g id="node7" class="node">
<title>q1s1</title>
<ellipse fill="none" stroke="#000000" cx="130.8325" cy="-205.3974" rx="29.0567" ry="29.0567"/>
<text text-anchor="middle" x="130.8325" y="-201.1974" font-family="Times,serif" font-size="14.00" fill="#000000">q1s1</text>
</g>
<!-- q0s0&#45;&gt;q1s1 -->
<g id="edge1" class="edge">
<title>q0s0&#45;&gt;q1s1</title>
<path fill="none" stroke="#000000" d="M58.1967,-208.9616C64.2423,-208.0124 70.5912,-207.1525 76.555,-206.5974 81.3472,-206.1514 86.3871,-205.8356 91.3853,-205.6157"/>
<polygon fill="#000000" stroke="#000000" points="91.6118,-209.1103 101.4933,-205.2884 91.3852,-202.114 91.6118,-209.1103"/>
<text text-anchor="middle" x="80.055" y="-210.5974" font-family="Times,serif" font-size="14.00" fill="#000000">a</text>
</g>
<!-- q1s3 -->
<g id="node8" class="node">
<title>q1s3</title>
<ellipse fill="none" stroke="#000000" cx="337.9426" cy="-286.3974" rx="29.0567" ry="29.0567"/>
<text text-anchor="middle" x="337.9426" y="-282.1974" font-family="Times,serif" font-size="14.00" fill="#000000">q1s3</text>
</g>
<!-- q0s0&#45;&gt;q1s3 -->
<g id="edge2" class="edge">
<title>q0s0&#45;&gt;q1s3</title>
<path fill="none" stroke="#000000" d="M46.202,-238.3075C54.2536,-247.7798 64.7145,-257.743 76.555,-263.3974 81.5017,-265.7597 226.8531,-277.578 298.6215,-283.2928"/>
<polygon fill="#000000" stroke="#000000" points="298.405,-286.7866 308.6509,-284.0899 298.9596,-279.8086 298.405,-286.7866"/>
<text text-anchor="middle" x="181.61" y="-277.5974" font-family="Times,serif" font-size="14.00" fill="#000000">b</text>
</g>
<!-- q2s0 -->
<g id="node20" class="node">
<title>q2s0</title>
<ellipse fill="none" stroke="#000000" cx="232.3876" cy="-147.3974" rx="29.0567" ry="29.0567"/>
<text text-anchor="middle" x="232.3876" y="-143.1974" font-family="Times,serif" font-size="14.00" fill="#000000">q2s0</text>
</g>
<!-- q1s1&#45;&gt;q2s0 -->
<g id="edge15" class="edge">
<title>q1s1&#45;&gt;q2s0</title>
<path fill="none" stroke="#000000" d="M155.0429,-188.8764C162.3498,-184.0952 170.4633,-178.9856 178.11,-174.5974 184.068,-171.1784 190.5101,-167.7374 196.8037,-164.5071"/>
<polygon fill="#000000" stroke="#000000" points="198.4888,-167.5773 205.8448,-159.9524 195.3393,-161.3258 198.4888,-167.5773"/>
<text text-anchor="middle" x="181.61" y="-178.5974" font-family="Times,serif" font-size="14.00" fill="#000000">a</text>
</g>
<!-- q2s2 -->
<g id="node21" class="node">
<title>q2s2</title>
<ellipse fill="none" stroke="#000000" cx="443.4976" cy="-237.3974" rx="29.0567" ry="29.0567"/>
<text text-anchor="middle" x="443.4976" y="-233.1974" font-family="Times,serif" font-size="14.00" fill="#000000">q2s2</text>
</g>
<!-- q1s1&#45;&gt;q2s2 -->
<g id="edge16" class="edge">
<title>q1s1&#45;&gt;q2s2</title>
<path fill="none" stroke="#000000" d="M160.1564,-207.5754C191.5007,-209.975 242.6383,-214.0953 286.6651,-218.5974 326.7387,-222.6953 372.461,-228.2804 404.1552,-232.2967"/>
<polygon fill="#000000" stroke="#000000" points="403.9752,-235.802 414.3374,-233.5942 404.8601,-228.8581 403.9752,-235.802"/>
<text text-anchor="middle" x="283.1651" y="-222.5974" font-family="Times,serif" font-size="14.00" fill="#000000">b</text>
</g>
<!-- q1s3&#45;&gt;q2s2 -->
<g id="edge19" class="edge">
<title>q1s3&#45;&gt;q2s2</title>
<path fill="none" stroke="#000000" d="M364.5786,-274.0327C377.5797,-267.9974 393.4122,-260.6477 407.4743,-254.1199"/>
<polygon fill="#000000" stroke="#000000" points="409.2735,-257.1435 416.8701,-249.7583 406.3261,-250.7943 409.2735,-257.1435"/>
<text text-anchor="middle" x="392.7201" y="-265.5974" font-family="Times,serif" font-size="14.00" fill="#000000">a</text>
</g>
<!-- q2s4 -->
<g id="node23" class="node">
<title>q2s4</title>
<ellipse fill="none" stroke="#000000" cx="654.6076" cy="-294.3974" rx="29.0567" ry="29.0567"/>
<text text-anchor="middle" x="654.6076" y="-290.1974" font-family="Times,serif" font-size="14.00" fill="#000000">q2s4</text>
</g>
<!-- q1s3&#45;&gt;q2s4 -->
<g id="edge20" class="edge">
<title>q1s3&#45;&gt;q2s4</title>
<path fill="none" stroke="#000000" d="M367.4493,-287.1429C424.6082,-288.5869 550.46,-291.7663 614.893,-293.3941"/>
<polygon fill="#000000" stroke="#000000" points="614.9752,-296.8972 625.0604,-293.651 615.1521,-289.8995 614.9752,-296.8972"/>
<text text-anchor="middle" x="494.2751" y="-294.5974" font-family="Times,serif" font-size="14.00" fill="#000000">b</text>
</g>
<!-- q0s1 -->
<g id="node9" class="node">
<title>q0s1</title>
<ellipse fill="none" stroke="#000000" cx="29.2775" cy="-474.3974" rx="29.0567" ry="29.0567"/>
<text text-anchor="middle" x="29.2775" y="-470.1974" font-family="Times,serif" font-size="14.00" fill="#000000">q0s1</text>
</g>
<!-- q1s0 -->
<g id="node10" class="node">
<title>q1s0</title>
<ellipse fill="none" stroke="#000000" cx="549.0526" cy="-437.3974" rx="29.0567" ry="29.0567"/>
<text text-anchor="middle" x="549.0526" y="-433.1974" font-family="Times,serif" font-size="14.00" fill="#000000">q1s0</text>
</g>
<!-- q0s1&#45;&gt;q1s0 -->
<g id="edge3" class="edge">
<title>q0s1&#45;&gt;q1s0</title>
<path fill="none" stroke="#000000" d="M55.7187,-487.5978C75.8079,-496.4126 104.3981,-506.3974 130.8325,-506.3974 130.8325,-506.3974 130.8325,-506.3974 283.1651,-506.3974 367.4423,-506.3974 462.0671,-473.5172 512.5932,-453.1518"/>
<polygon fill="#000000" stroke="#000000" points="514.1679,-456.289 522.0943,-449.259 511.5139,-449.8116 514.1679,-456.289"/>
<text text-anchor="middle" x="283.1651" y="-510.5974" font-family="Times,serif" font-size="14.00" fill="#000000">a</text>
</g>
<!-- q1s2 -->
<g id="node11" class="node">
<title>q1s2</title>
<ellipse fill="none" stroke="#000000" cx="130.8325" cy="-438.3974" rx="29.0567" ry="29.0567"/>
<text text-anchor="middle" x="130.8325" y="-434.1974" font-family="Times,serif" font-size="14.00" fill="#000000">q1s2</text>
</g>
<!-- q0s1&#45;&gt;q1s2 -->
<g id="edge4" class="edge">
<title>q0s1&#45;&gt;q1s2</title>
<path fill="none" stroke="#000000" d="M57.0279,-464.5603C68.2228,-460.5918 81.3124,-455.9517 93.3339,-451.6903"/>
<polygon fill="#000000" stroke="#000000" points="94.8598,-454.8628 103.1157,-448.2227 92.521,-448.2651 94.8598,-454.8628"/>
<text text-anchor="middle" x="80.055" y="-461.5974" font-family="Times,serif" font-size="14.00" fill="#000000">b</text>
</g>
<!-- q2s1 -->
<g id="node18" class="node">
<title>q2s1</title>
<ellipse fill="none" stroke="#000000" cx="892.2727" cy="-382.3974" rx="29.0567" ry="29.0567"/>
<text text-anchor="middle" x="892.2727" y="-378.1974" font-family="Times,serif" font-size="14.00" fill="#000000">q2s1</text>
</g>
<!-- q1s0&#45;&gt;q2s1 -->
<g id="edge13" class="edge">
<title>q1s0&#45;&gt;q2s1</title>
<path fill="none" stroke="#000000" d="M578.0196,-432.7556C639.5082,-422.9022 783.1433,-399.8851 852.8841,-388.7093"/>
<polygon fill="#000000" stroke="#000000" points="853.699,-392.1235 863.0192,-387.0852 852.5914,-385.2117 853.699,-392.1235"/>
<text text-anchor="middle" x="654.6076" y="-428.5974" font-family="Times,serif" font-size="14.00" fill="#000000">a</text>
</g>
<!-- q2s3 -->
<g id="node19" class="node">
<title>q2s3</title>
<ellipse fill="none" stroke="#000000" cx="731.1627" cy="-469.3974" rx="29.0567" ry="29.0567"/>
<text text-anchor="middle" x="731.1627" y="-465.1974" font-family="Times,serif" font-size="14.00" fill="#000000">q2s3</text>
</g>
<!-- q1s0&#45;&gt;q2s3 -->
<g id="edge14" class="edge">
<title>q1s0&#45;&gt;q2s3</title>
<path fill="none" stroke="#000000" d="M577.9085,-442.4679C608.7204,-447.8821 657.734,-456.4947 692.0123,-462.518"/>
<polygon fill="#000000" stroke="#000000" points="691.686,-466.0142 702.1408,-464.2978 692.8975,-459.1199 691.686,-466.0142"/>
<text text-anchor="middle" x="603.8301" y="-450.5974" font-family="Times,serif" font-size="14.00" fill="#000000">b</text>
</g>
<!-- q1s2&#45;&gt;q2s3 -->
<g id="edge17" class="edge">
<title>q1s2&#45;&gt;q2s3</title>
<path fill="none" stroke="#000000" d="M159.9608,-443.2908C173.1138,-445.3816 188.8656,-447.7212 203.11,-449.3974 370.8903,-469.1407 413.4265,-478.8006 582.3301,-475.3974 619.4503,-474.6495 661.7466,-472.8533 691.7377,-471.4199"/>
<polygon fill="#000000" stroke="#000000" points="691.9859,-474.9121 701.8041,-470.9303 691.6458,-467.9203 691.9859,-474.9121"/>
<text text-anchor="middle" x="392.7201" y="-474.5974" font-family="Times,serif" font-size="14.00" fill="#000000">a</text>
</g>
<!-- q2s5 -->
<g id="node22" class="node">
<title>q2s5</title>
<ellipse fill="none" stroke="#000000" cx="232.3876" cy="-334.3974" rx="29.0567" ry="29.0567"/>
<text text-anchor="middle" x="232.3876" y="-330.1974" font-family="Times,serif" font-size="14.00" fill="#000000">q2s5</text>
</g>
<!-- q1s2&#45;&gt;q2s5 -->
<g id="edge18" class="edge">
<title>q1s2&#45;&gt;q2s5</title>
<path fill="none" stroke="#000000" d="M151.3837,-417.3515C166.663,-401.7044 187.6832,-380.1781 204.4816,-362.9752"/>
<polygon fill="#000000" stroke="#000000" points="207.3846,-365.0121 211.8669,-355.4121 202.3763,-360.1215 207.3846,-365.0121"/>
<text text-anchor="middle" x="181.61" y="-393.5974" font-family="Times,serif" font-size="14.00" fill="#000000">b</text>
</g>
<!-- q0s2 -->
<g id="node12" class="node">
<title>q0s2</title>
<ellipse fill="none" stroke="#000000" cx="232.3876" cy="-411.3974" rx="29.0567" ry="29.0567"/>
<text text-anchor="middle" x="232.3876" y="-407.1974" font-family="Times,serif" font-size="14.00" fill="#000000">q0s2</text>
</g>
<!-- q0s2&#45;&gt;q1s3 -->
<g id="edge5" class="edge">
<title>q0s2&#45;&gt;q1s3</title>
<path fill="none" stroke="#000000" d="M251.5028,-388.7609C268.5405,-368.5845 293.611,-338.8956 312.3703,-316.6805"/>
<polygon fill="#000000" stroke="#000000" points="315.1919,-318.7641 318.9696,-308.8656 309.8436,-314.2478 315.1919,-318.7641"/>
<text text-anchor="middle" x="283.1651" y="-356.5974" font-family="Times,serif" font-size="14.00" fill="#000000">a</text>
</g>
<!-- q1s5 -->
<g id="node13" class="node">
<title>q1s5</title>
<ellipse fill="none" stroke="#000000" cx="549.0526" cy="-355.3974" rx="29.0567" ry="29.0567"/>
<text text-anchor="middle" x="549.0526" y="-351.1974" font-family="Times,serif" font-size="14.00" fill="#000000">q1s5</text>
</g>
<!-- q0s2&#45;&gt;q1s5 -->
<g id="edge6" class="edge">
<title>q0s2&#45;&gt;q1s5</title>
<path fill="none" stroke="#000000" d="M260.3881,-402.4197C295.8032,-391.4701 358.8529,-373.321 414.2201,-364.3974 446.0157,-359.2729 482.4827,-357.0563 509.4682,-356.1026"/>
<polygon fill="#000000" stroke="#000000" points="509.7937,-359.5943 519.6803,-355.7857 509.5765,-352.5976 509.7937,-359.5943"/>
<text text-anchor="middle" x="392.7201" y="-372.5974" font-family="Times,serif" font-size="14.00" fill="#000000">b</text>
</g>
<!-- q1s5&#45;&gt;q2s1 -->
<g id="edge24" class="edge">
<title>q1s5&#45;&gt;q2s1</title>
<path fill="none" stroke="#000000" d="M578.3154,-357.6994C639.9931,-362.5514 783.3729,-373.8307 852.9701,-379.3056"/>
<polygon fill="#000000" stroke="#000000" points="852.8403,-382.8061 863.084,-380.1013 853.3893,-375.8277 852.8403,-382.8061"/>
<text text-anchor="middle" x="654.6076" y="-369.5974" font-family="Times,serif" font-size="14.00" fill="#000000">b</text>
</g>
<!-- q1s5&#45;&gt;q2s4 -->
<g id="edge23" class="edge">
<title>q1s5&#45;&gt;q2s4</title>
<path fill="none" stroke="#000000" d="M574.6045,-340.631C588.247,-332.7471 605.2315,-322.9318 620.0373,-314.3755"/>
<polygon fill="#000000" stroke="#000000" points="622.0182,-317.2733 628.9252,-309.2393 618.5157,-311.2125 622.0182,-317.2733"/>
<text text-anchor="middle" x="603.8301" y="-328.5974" font-family="Times,serif" font-size="14.00" fill="#000000">a</text>
</g>
<!-- q0s3 -->
<g id="node14" class="node">
<title>q0s3</title>
<ellipse fill="none" stroke="#000000" cx="29.2775" cy="-396.3974" rx="29.0567" ry="29.0567"/>
<text text-anchor="middle" x="29.2775" y="-392.1974" font-family="Times,serif" font-size="14.00" fill="#000000">q0s3</text>
</g>
<!-- q0s3&#45;&gt;q1s2 -->
<g id="edge7" class="edge">
<title>q0s3&#45;&gt;q1s2</title>
<path fill="none" stroke="#000000" d="M56.4924,-407.6527C67.9897,-412.4076 81.5579,-418.019 93.9345,-423.1376"/>
<polygon fill="#000000" stroke="#000000" points="92.964,-426.5237 103.5425,-427.1111 95.6393,-420.055 92.964,-426.5237"/>
<text text-anchor="middle" x="80.055" y="-422.5974" font-family="Times,serif" font-size="14.00" fill="#000000">a</text>
</g>
<!-- q1s4 -->
<g id="node15" class="node">
<title>q1s4</title>
<ellipse fill="none" stroke="#000000" cx="130.8325" cy="-346.3974" rx="29.0567" ry="29.0567"/>
<text text-anchor="middle" x="130.8325" y="-342.1974" font-family="Times,serif" font-size="14.00" fill="#000000">q1s4</text>
</g>
<!-- q0s3&#45;&gt;q1s4 -->
<g id="edge8" class="edge">
<title>q0s3&#45;&gt;q1s4</title>
<path fill="none" stroke="#000000" d="M55.6948,-383.3911C67.8014,-377.4304 82.3293,-370.2777 95.3703,-363.857"/>
<polygon fill="#000000" stroke="#000000" points="97.1219,-366.8959 104.5475,-359.3387 94.0299,-360.6158 97.1219,-366.8959"/>
<text text-anchor="middle" x="80.055" y="-376.5974" font-family="Times,serif" font-size="14.00" fill="#000000">b</text>
</g>
<!-- q1s4&#45;&gt;q2s0 -->
<g id="edge22" class="edge">
<title>q1s4&#45;&gt;q2s0</title>
<path fill="none" stroke="#000000" d="M154.5955,-328.7034C165.2117,-319.7434 177.1064,-308.0827 185.11,-295.3974 206.3176,-261.7847 218.7743,-217.8363 225.5281,-186.5847"/>
<polygon fill="#000000" stroke="#000000" points="229.0145,-187.0069 227.6042,-176.5064 222.1585,-185.5945 229.0145,-187.0069"/>
<text text-anchor="middle" x="181.61" y="-307.5974" font-family="Times,serif" font-size="14.00" fill="#000000">b</text>
</g>
<!-- q1s4&#45;&gt;q2s5 -->
<g id="edge21" class="edge">
<title>q1s4&#45;&gt;q2s5</title>
<path fill="none" stroke="#000000" d="M159.9341,-342.9587C170.2388,-341.7411 182.0098,-340.3502 193.0249,-339.0486"/>
<polygon fill="#000000" stroke="#000000" points="193.7615,-342.486 203.2817,-337.8367 192.9401,-335.5344 193.7615,-342.486"/>
<text text-anchor="middle" x="181.61" y="-344.5974" font-family="Times,serif" font-size="14.00" fill="#000000">a</text>
</g>
<!-- q0s4 -->
<g id="node16" class="node">
<title>q0s4</title>
<ellipse fill="none" stroke="#000000" cx="443.4976" cy="-402.3974" rx="29.0567" ry="29.0567"/>
<text text-anchor="middle" x="443.4976" y="-398.1974" font-family="Times,serif" font-size="14.00" fill="#000000">q0s4</text>
</g>
<!-- q0s4&#45;&gt;q1s0 -->
<g id="edge10" class="edge">
<title>q0s4&#45;&gt;q1s0</title>
<path fill="none" stroke="#000000" d="M471.5073,-411.6849C483.6749,-415.7194 498.1139,-420.5071 511.2146,-424.8511"/>
<polygon fill="#000000" stroke="#000000" points="510.3187,-428.2413 520.912,-428.0666 512.5218,-421.5971 510.3187,-428.2413"/>
<text text-anchor="middle" x="494.2751" y="-423.5974" font-family="Times,serif" font-size="14.00" fill="#000000">b</text>
</g>
<!-- q0s4&#45;&gt;q1s5 -->
<g id="edge9" class="edge">
<title>q0s4&#45;&gt;q1s5</title>
<path fill="none" stroke="#000000" d="M470.4067,-390.4157C483.31,-384.6704 498.954,-377.7046 512.8804,-371.5037"/>
<polygon fill="#000000" stroke="#000000" points="514.481,-374.6223 522.1927,-367.3573 511.6336,-368.2276 514.481,-374.6223"/>
<text text-anchor="middle" x="494.2751" y="-383.5974" font-family="Times,serif" font-size="14.00" fill="#000000">a</text>
</g>
<!-- q0s5 -->
<g id="node17" class="node">
<title>q0s5</title>
<ellipse fill="none" stroke="#000000" cx="29.2775" cy="-310.3974" rx="29.0567" ry="29.0567"/>
<text text-anchor="middle" x="29.2775" y="-306.1974" font-family="Times,serif" font-size="14.00" fill="#000000">q0s5</text>
</g>
<!-- q0s5&#45;&gt;q1s1 -->
<g id="edge12" class="edge">
<title>q0s5&#45;&gt;q1s1</title>
<path fill="none" stroke="#000000" d="M49.8287,-289.1491C65.108,-273.3515 86.1281,-251.6183 102.9266,-234.25"/>
<polygon fill="#000000" stroke="#000000" points="105.8755,-236.2355 110.3119,-226.6142 100.8439,-231.3689 105.8755,-236.2355"/>
<text text-anchor="middle" x="80.055" y="-264.5974" font-family="Times,serif" font-size="14.00" fill="#000000">b</text>
</g>
<!-- q0s5&#45;&gt;q1s4 -->
<g id="edge11" class="edge">
<title>q0s5&#45;&gt;q1s4</title>
<path fill="none" stroke="#000000" d="M57.0279,-320.2346C68.2228,-324.2031 81.3124,-328.8432 93.3339,-333.1046"/>
<polygon fill="#000000" stroke="#000000" points="92.521,-336.5298 103.1157,-336.5722 94.8598,-329.9321 92.521,-336.5298"/>
<text text-anchor="middle" x="80.055" y="-333.5974" font-family="Times,serif" font-size="14.00" fill="#000000">a</text>
</g>
<!-- q2s1&#45;&gt;q3s2 -->
<g id="edge28" class="edge">
<title>q2s1&#45;&gt;q3s2</title>
<path fill="none" stroke="#000000" d="M921.5318,-384.1648C951.0539,-385.948 996.9856,-388.7224 1030.7961,-390.7647"/>
<polygon fill="#000000" stroke="#000000" points="1030.6754,-394.2637 1040.8683,-391.3731 1031.0975,-387.2764 1030.6754,-394.2637"/>
<text text-anchor="middle" x="968.8277" y="-392.5974" font-family="Times,serif" font-size="14.00" fill="#000000">b</text>
</g>
<!-- q3s0 -->
<g id="node24" class="node">
<title>q3s0</title>
<ellipse fill="none" stroke="#000000" cx="1074.3827" cy="-278.3974" rx="29.0567" ry="29.0567"/>
<text text-anchor="middle" x="1074.3827" y="-274.1974" font-family="Times,serif" font-size="14.00" fill="#000000">q3s0</text>
</g>
<!-- q2s1&#45;&gt;q3s0 -->
<g id="edge27" class="edge">
<title>q2s1&#45;&gt;q3s0</title>
<path fill="none" stroke="#000000" d="M919.3915,-371.2118C925.9547,-368.6163 932.9743,-365.9322 939.5502,-363.5974 976.2255,-350.5758 990.5426,-358.7121 1023.1052,-337.3974 1033.839,-330.3714 1043.6376,-320.4893 1051.728,-310.8185"/>
<polygon fill="#000000" stroke="#000000" points="1054.6126,-312.8147 1058.1052,-302.812 1049.1372,-308.4534 1054.6126,-312.8147"/>
<text text-anchor="middle" x="968.8277" y="-367.5974" font-family="Times,serif" font-size="14.00" fill="#000000">a</text>
</g>
<!-- q2s3&#45;&gt;q3s2 -->
<g id="edge31" class="edge">
<title>q2s3&#45;&gt;q3s2</title>
<path fill="none" stroke="#000000" d="M759.8351,-463.0484C820.261,-449.6682 960.9452,-418.5162 1031.8803,-402.8089"/>
<polygon fill="#000000" stroke="#000000" points="1032.8154,-406.1867 1041.8221,-400.6074 1031.3019,-399.3522 1032.8154,-406.1867"/>
<text text-anchor="middle" x="892.2727" y="-443.5974" font-family="Times,serif" font-size="14.00" fill="#000000">a</text>
</g>
<!-- q2s3&#45;&gt;q3s4 -->
<g id="edge32" class="edge">
<title>q2s3&#45;&gt;q3s4</title>
<path fill="none" stroke="#000000" d="M759.7503,-476.848C791.7853,-484.5309 845.3826,-495.3974 892.2727,-495.3974 892.2727,-495.3974 892.2727,-495.3974 1179.9378,-495.3974 1223.9025,-495.3974 1253.638,-449.5275 1270.0643,-414.0402"/>
<polygon fill="#000000" stroke="#000000" points="1273.3005,-415.3762 1274.1498,-404.8155 1266.9001,-412.5416 1273.3005,-415.3762"/>
<text text-anchor="middle" x="1019.6052" y="-499.5974" font-family="Times,serif" font-size="14.00" fill="#000000">b</text>
</g>
<!-- q2s0&#45;&gt;q3s1 -->
<g id="edge25" class="edge">
<title>q2s0&#45;&gt;q3s1</title>
<path fill="none" stroke="#000000" d="M261.7905,-146.5618C271.8682,-146.2754 283.3708,-145.9484 294.3295,-145.637"/>
<polygon fill="#000000" stroke="#000000" points="294.709,-149.1277 304.6054,-145.3449 294.51,-142.1305 294.709,-149.1277"/>
<text text-anchor="middle" x="283.1651" y="-149.5974" font-family="Times,serif" font-size="14.00" fill="#000000">a</text>
</g>
<!-- q2s0&#45;&gt;q3s3 -->
<g id="edge26" class="edge">
<title>q2s0&#45;&gt;q3s3</title>
<path fill="none" stroke="#000000" d="M249.3038,-123.4393C274.9825,-89.4014 327.4062,-28.523 389.2201,-4.5974 447.1941,17.8419 500.1613,-50.1056 528.1704,-95.9917"/>
<polygon fill="#000000" stroke="#000000" points="525.3137,-98.0357 533.4335,-104.8415 531.3301,-94.4575 525.3137,-98.0357"/>
<text text-anchor="middle" x="392.7201" y="-9.5974" font-family="Times,serif" font-size="14.00" fill="#000000">b</text>
</g>
<!-- q2s2&#45;&gt;q3s3 -->
<g id="edge29" class="edge">
<title>q2s2&#45;&gt;q3s3</title>
<path fill="none" stroke="#000000" d="M453.9775,-209.8116C461.7998,-192.4715 474.0316,-170.7772 490.7751,-156.5974 495.6549,-152.4648 501.3851,-149.0574 507.3135,-146.2606"/>
<polygon fill="#000000" stroke="#000000" points="508.8133,-149.4275 516.699,-142.3517 506.1219,-142.9655 508.8133,-149.4275"/>
<text text-anchor="middle" x="494.2751" y="-160.5974" font-family="Times,serif" font-size="14.00" fill="#000000">a</text>
</g>
<!-- q2s2&#45;&gt;q3s5 -->
<g id="edge30" class="edge">
<title>q2s2&#45;&gt;q3s5</title>
<path fill="none" stroke="#000000" d="M473.0082,-235.7144C537.7161,-232.0241 692.3415,-223.2056 768.2184,-218.8783"/>
<polygon fill="#000000" stroke="#000000" points="768.6003,-222.3623 778.3848,-218.2985 768.2017,-215.3736 768.6003,-222.3623"/>
<text text-anchor="middle" x="603.8301" y="-231.5974" font-family="Times,serif" font-size="14.00" fill="#000000">b</text>
</g>
<!-- q2s5&#45;&gt;q3s1 -->
<g id="edge36" class="edge">
<title>q2s5&#45;&gt;q3s1</title>
<path fill="none" stroke="#000000" d="M246.6232,-308.7732C264.6245,-276.3706 295.7791,-220.292 316.6241,-182.7709"/>
<polygon fill="#000000" stroke="#000000" points="319.8903,-184.0986 321.6872,-173.6572 313.7712,-180.699 319.8903,-184.0986"/>
<text text-anchor="middle" x="283.1651" y="-248.5974" font-family="Times,serif" font-size="14.00" fill="#000000">b</text>
</g>
<!-- q2s5&#45;&gt;q3s4 -->
<g id="edge35" class="edge">
<title>q2s5&#45;&gt;q3s4</title>
<path fill="none" stroke="#000000" d="M259.9915,-344.8112C266.4111,-347.0969 273.2459,-349.4219 279.6651,-351.3974 330.7895,-367.131 357.57,-344.4188 396.2201,-381.3974 416.0293,-400.35 396.4445,-419.5256 414.2201,-440.3974 475.0783,-511.8562 509.9682,-533.3974 603.8301,-533.3974 603.8301,-533.3974 603.8301,-533.3974 1179.9378,-533.3974 1236.3265,-533.3974 1264.3128,-463.2989 1276.7912,-415.8987"/>
<polygon fill="#000000" stroke="#000000" points="1280.1955,-416.712 1279.2232,-406.1619 1273.4041,-415.0157 1280.1955,-416.712"/>
<text text-anchor="middle" x="731.1627" y="-537.5974" font-family="Times,serif" font-size="14.00" fill="#000000">a</text>
</g>
<!-- q2s4&#45;&gt;q3s5 -->
<g id="edge33" class="edge">
<title>q2s4&#45;&gt;q3s5</title>
<path fill="none" stroke="#000000" d="M679.1857,-278.3396C686.3627,-273.9504 694.3149,-269.3687 701.8852,-265.5974 726.9409,-253.1154 734.9176,-253.8948 760.4402,-242.3974 764.544,-240.5488 768.793,-238.5447 773.0089,-236.4972"/>
<polygon fill="#000000" stroke="#000000" points="774.7063,-239.5624 782.1157,-231.9893 771.6009,-233.2889 774.7063,-239.5624"/>
<text text-anchor="middle" x="731.1627" y="-269.5974" font-family="Times,serif" font-size="14.00" fill="#000000">a</text>
</g>
<!-- q2s4&#45;&gt;q3s0 -->
<g id="edge34" class="edge">
<title>q2s4&#45;&gt;q3s0</title>
<path fill="none" stroke="#000000" d="M684.1254,-293.2724C758.0385,-290.4551 951.1253,-283.0955 1034.782,-279.9068"/>
<polygon fill="#000000" stroke="#000000" points="1035.0382,-283.3997 1044.8976,-279.5213 1034.7715,-276.4048 1035.0382,-283.3997"/>
<text text-anchor="middle" x="892.2727" y="-290.5974" font-family="Times,serif" font-size="14.00" fill="#000000">b</text>
</g>
<!-- q3s0&#45;&gt;q4s1 -->
<g id="edge37" class="edge">
<title>q3s0&#45;&gt;q4s1</title>
<path fill="none" stroke="#000000" d="M1046.8346,-268.2191C1034.3742,-263.6153 1019.4603,-258.1049 1006.0258,-253.1412"/>
<polygon fill="#000000" stroke="#000000" points="1007.1543,-249.827 996.5611,-249.6442 1004.7283,-256.3931 1007.1543,-249.827"/>
<text text-anchor="middle" x="1019.6052" y="-262.5974" font-family="Times,serif" font-size="14.00" fill="#000000">a</text>
</g>
<!-- q3s0&#45;&gt;q4s3 -->
<g id="edge38" class="edge">
<title>q3s0&#45;&gt;q4s3</title>
<path fill="none" stroke="#000000" d="M1096.2538,-298.0815C1111.9637,-312.2204 1133.3144,-331.4362 1150.5176,-346.9191"/>
<polygon fill="#000000" stroke="#000000" points="1148.3204,-349.6504 1158.0947,-353.7386 1153.0032,-344.4474 1148.3204,-349.6504"/>
<text text-anchor="middle" x="1129.1603" y="-332.5974" font-family="Times,serif" font-size="14.00" fill="#000000">b</text>
</g>
<!-- q4s1&#45;&gt;q3s2 -->
<g id="edge52" class="edge">
<title>q4s1&#45;&gt;q3s2</title>
<path fill="none" stroke="#000000" d="M985.5532,-263.7992C1002.7803,-288.9328 1029.8238,-328.388 1049.5491,-357.1663"/>
<polygon fill="#000000" stroke="#000000" points="1046.8762,-359.4575 1055.4169,-365.7271 1052.6501,-355.4999 1046.8762,-359.4575"/>
<text text-anchor="middle" x="1019.6052" y="-320.5974" font-family="Times,serif" font-size="14.00" fill="#000000">b</text>
</g>
<!-- q4s1&#45;&gt;q3s0 -->
<g id="edge51" class="edge">
<title>q4s1&#45;&gt;q3s0</title>
<path fill="none" stroke="#000000" d="M997.6048,-233.8002C1006.0212,-233.2504 1015.1048,-233.7497 1023.1052,-236.5974 1031.5046,-239.5872 1039.5248,-244.607 1046.6236,-250.151"/>
<polygon fill="#000000" stroke="#000000" points="1044.6046,-253.0272 1054.5012,-256.8096 1049.1234,-247.6811 1044.6046,-253.0272"/>
<text text-anchor="middle" x="1019.6052" y="-240.5974" font-family="Times,serif" font-size="14.00" fill="#000000">a</text>
</g>
<!-- q4s3&#45;&gt;q3s2 -->
<g id="edge55" class="edge">
<title>q4s3&#45;&gt;q3s2</title>
<path fill="none" stroke="#000000" d="M1150.7043,-369.1189C1142.5312,-368.67 1133.6904,-368.8927 1125.6603,-370.5974 1121.5861,-371.4624 1117.4426,-372.6743 1113.3667,-374.0931"/>
<polygon fill="#000000" stroke="#000000" points="1112.0981,-370.831 1104.0431,-377.7134 1114.6319,-377.3564 1112.0981,-370.831"/>
<text text-anchor="middle" x="1129.1603" y="-374.5974" font-family="Times,serif" font-size="14.00" fill="#000000">a</text>
</g>
<!-- q4s3&#45;&gt;q3s4 -->
<g id="edge56" class="edge">
<title>q4s3&#45;&gt;q3s4</title>
<path fill="none" stroke="#000000" d="M1209.3407,-373.3974C1219.4184,-373.3974 1230.921,-373.3974 1241.8797,-373.3974"/>
<polygon fill="#000000" stroke="#000000" points="1242.1557,-376.8975 1252.1557,-373.3974 1242.1556,-369.8975 1242.1557,-376.8975"/>
<text text-anchor="middle" x="1230.7153" y="-377.5974" font-family="Times,serif" font-size="14.00" fill="#000000">b</text>
</g>
<!-- q4s0&#45;&gt;q3s1 -->
<g id="edge49" class="edge">
<title>q4s0&#45;&gt;q3s1</title>
<path fill="none" stroke="#000000" d="M415.5224,-117.533C409.1819,-119.8089 402.4743,-122.2 396.2201,-124.3974 390.7247,-126.3283 384.9303,-128.3427 379.2129,-130.3176"/>
<polygon fill="#000000" stroke="#000000" points="378.0458,-127.0177 369.7298,-133.5824 380.3245,-133.6365 378.0458,-127.0177"/>
<text text-anchor="middle" x="392.7201" y="-130.5974" font-family="Times,serif" font-size="14.00" fill="#000000">a</text>
</g>
<!-- q4s0&#45;&gt;q3s3 -->
<g id="edge50" class="edge">
<title>q4s0&#45;&gt;q3s3</title>
<path fill="none" stroke="#000000" d="M472.7758,-109.2717C480.9493,-110.1908 489.7792,-111.5596 497.7751,-113.5974 501.4348,-114.5301 505.1798,-115.6669 508.8974,-116.923"/>
<polygon fill="#000000" stroke="#000000" points="508.0036,-120.3228 518.5975,-120.4688 510.4069,-113.7482 508.0036,-120.3228"/>
<text text-anchor="middle" x="494.2751" y="-117.5974" font-family="Times,serif" font-size="14.00" fill="#000000">b</text>
</g>
<!-- q4s2&#45;&gt;q3s3 -->
<g id="edge53" class="edge">
<title>q4s2&#45;&gt;q3s3</title>
<path fill="none" stroke="#000000" d="M627.3131,-164.7956C615.815,-160.3295 602.1938,-155.0387 589.5645,-150.1332"/>
<polygon fill="#000000" stroke="#000000" points="590.7405,-146.8353 580.1517,-146.477 588.206,-153.3603 590.7405,-146.8353"/>
<text text-anchor="middle" x="603.8301" y="-159.5974" font-family="Times,serif" font-size="14.00" fill="#000000">a</text>
</g>
<!-- q4s2&#45;&gt;q3s5 -->
<g id="edge54" class="edge">
<title>q4s2&#45;&gt;q3s5</title>
<path fill="none" stroke="#000000" d="M683.4839,-181.7392C704.8333,-186.5572 734.5656,-193.5387 760.4402,-200.5974 763.5856,-201.4555 766.8294,-202.3743 770.086,-203.3212"/>
<polygon fill="#000000" stroke="#000000" points="769.2251,-206.7166 779.808,-206.2133 771.2211,-200.0072 769.2251,-206.7166"/>
<text text-anchor="middle" x="731.1627" y="-204.5974" font-family="Times,serif" font-size="14.00" fill="#000000">b</text>
</g>
<!-- q4s5&#45;&gt;q3s1 -->
<g id="edge60" class="edge">
<title>q4s5&#45;&gt;q3s1</title>
<path fill="none" stroke="#000000" d="M1385.7989,-287.3839C1373.9398,-215.5889 1338.8597,-35.3974 1285.4928,-35.3974 443.4976,-35.3974 443.4976,-35.3974 443.4976,-35.3974 403.5779,-35.3974 373.9318,-73.5925 356.3847,-104.7629"/>
<polygon fill="#000000" stroke="#000000" points="353.2072,-103.2814 351.5437,-113.7448 359.3692,-106.6025 353.2072,-103.2814"/>
<text text-anchor="middle" x="892.2727" y="-39.5974" font-family="Times,serif" font-size="14.00" fill="#000000">b</text>
</g>
<!-- q4s5&#45;&gt;q3s4 -->
<g id="edge59" class="edge">
<title>q4s5&#45;&gt;q3s4</title>
<path fill="none" stroke="#000000" d="M1367.5398,-335.1633C1360.0134,-340.8391 1351.403,-346.7836 1342.9849,-351.3974 1337.8216,-354.2273 1332.218,-356.8581 1326.6026,-359.2444"/>
<polygon fill="#000000" stroke="#000000" points="1325.1872,-356.0412 1317.217,-363.0216 1327.8007,-362.535 1325.1872,-356.0412"/>
<text text-anchor="middle" x="1339.8776" y="-358.5974" font-family="Times,serif" font-size="14.00" fill="#000000">a</text>
</g>
<!-- q4s4&#45;&gt;q3s5 -->
<g id="edge57" class="edge">
<title>q4s4&#45;&gt;q3s5</title>
<path fill="none" stroke="#000000" d="M940.8484,-171.5214C934.5081,-173.798 927.8017,-176.1921 921.5502,-178.3974 898.9843,-186.3579 873.7552,-195.098 853.1732,-202.1869"/>
<polygon fill="#000000" stroke="#000000" points="851.792,-198.9607 843.4746,-205.5237 854.0693,-205.5799 851.792,-198.9607"/>
<text text-anchor="middle" x="892.2727" y="-201.5974" font-family="Times,serif" font-size="14.00" fill="#000000">a</text>
</g>
<!-- q4s4&#45;&gt;q3s0 -->
<g id="edge58" class="edge">
<title>q4s4&#45;&gt;q3s0</title>
<path fill="none" stroke="#000000" d="M990.6252,-181.0828C1000.8109,-190.5987 1012.911,-202.3692 1023.1052,-213.5974 1032.5573,-224.0083 1042.2884,-235.9462 1050.6992,-246.7157"/>
<polygon fill="#000000" stroke="#000000" points="1047.9655,-248.9023 1056.8471,-254.6789 1053.5064,-244.6245 1047.9655,-248.9023"/>
<text text-anchor="middle" x="1019.6052" y="-217.5974" font-family="Times,serif" font-size="14.00" fill="#000000">b</text>
</g>
</g>
</svg>
