<?xml version="1.0" encoding="UTF-8" standalone="no"?>
<!DOCTYPE svg PUBLIC "-//W3C//DTD SVG 1.1//EN"
 "http://www.w3.org/Graphics/SVG/1.1/DTD/svg11.dtd">
<!-- Generated by graphviz version 2.40.1 (20161225.0304)
 -->
<!-- Title: %0 Pages: 1 -->
<svg width="1324pt" height="339pt"
 viewBox="0.00 0.00 1323.64 339.08" xmlns="http://www.w3.org/2000/svg" xmlns:xlink="http://www.w3.org/1999/xlink">
<g id="graph0" class="graph" transform="scale(1 1) rotate(0) translate(4 335.0775)">
<title>%0</title>
<polygon fill="#ffffff" stroke="transparent" points="-4,4 -4,-335.0775 1319.6445,-335.0775 1319.6445,4 -4,4"/>
<!-- q3s1 -->
<g id="node1" class="node">
<title>q3s1</title>
<ellipse fill="none" stroke="#000000" cx="337.1572" cy="-244.2775" rx="29.0831" ry="29.0831"/>
<ellipse fill="none" stroke="#000000" cx="337.1572" cy="-244.2775" rx="33.0565" ry="33.0565"/>
<text text-anchor="middle" x="337.1572" y="-240.0775" font-family="Times,serif" font-size="14.00" fill="#000000">q3s1</text>
</g>
<!-- q4s0 -->
<g id="node15" class="node">
<title>q4s0</title>
<ellipse fill="none" stroke="#000000" cx="442.7122" cy="-219.2775" rx="29.0567" ry="29.0567"/>
<text text-anchor="middle" x="442.7122" y="-215.0775" font-family="Times,serif" font-size="14.00" fill="#000000">q4s0</text>
</g>
<!-- q3s1&#45;&gt;q4s0 -->
<g id="edge15" class="edge">
<title>q3s1&#45;&gt;q4s0</title>
<path fill="none" stroke="#000000" d="M369.6885,-236.5727C380.5409,-234.0024 392.7395,-231.1132 404.0135,-228.443"/>
<polygon fill="#000000" stroke="#000000" points="405.1178,-231.7784 414.042,-226.0679 403.5045,-224.9668 405.1178,-231.7784"/>
<text text-anchor="middle" x="391.9347" y="-235.4775" font-family="Times,serif" font-size="14.00" fill="#000000">a</text>
</g>
<!-- q4s2 -->
<g id="node16" class="node">
<title>q4s2</title>
<ellipse fill="none" stroke="#000000" cx="653.8222" cy="-143.2775" rx="29.0567" ry="29.0567"/>
<text text-anchor="middle" x="653.8222" y="-139.0775" font-family="Times,serif" font-size="14.00" fill="#000000">q4s2</text>
</g>
<!-- q3s1&#45;&gt;q4s2 -->
<g id="edge16" class="edge">
<title>q3s1&#45;&gt;q4s2</title>
<path fill="none" stroke="#000000" d="M369.4797,-253.0638C402.5612,-260.4292 454.937,-267.5241 496.9897,-252.2775 537.2091,-237.6956 546.4201,-230.7007 581.5447,-206.2775 596.7106,-195.7323 612.3093,-182.4916 625.1159,-170.8737"/>
<polygon fill="#000000" stroke="#000000" points="627.7159,-173.2374 632.7002,-163.8882 622.9736,-168.0886 627.7159,-173.2374"/>
<text text-anchor="middle" x="493.4897" y="-258.4775" font-family="Times,serif" font-size="14.00" fill="#000000">b</text>
</g>
<!-- q3s2 -->
<g id="node2" class="node">
<title>q3s2</title>
<ellipse fill="none" stroke="#000000" cx="970.4873" cy="-54.2775" rx="29.0831" ry="29.0831"/>
<ellipse fill="none" stroke="#000000" cx="970.4873" cy="-54.2775" rx="33.0565" ry="33.0565"/>
<text text-anchor="middle" x="970.4873" y="-50.0775" font-family="Times,serif" font-size="14.00" fill="#000000">q3s2</text>
</g>
<!-- q4s3 -->
<g id="node14" class="node">
<title>q4s3</title>
<ellipse fill="none" stroke="#000000" cx="1076.0423" cy="-131.2775" rx="29.0567" ry="29.0567"/>
<text text-anchor="middle" x="1076.0423" y="-127.0775" font-family="Times,serif" font-size="14.00" fill="#000000">q4s3</text>
</g>
<!-- q3s2&#45;&gt;q4s3 -->
<g id="edge17" class="edge">
<title>q3s2&#45;&gt;q4s3</title>
<path fill="none" stroke="#000000" d="M997.3964,-73.9071C1011.4889,-84.1872 1028.8505,-96.8521 1043.6733,-107.665"/>
<polygon fill="#000000" stroke="#000000" points="1041.9219,-110.7197 1052.0634,-113.7855 1046.0472,-105.0644 1041.9219,-110.7197"/>
<text text-anchor="middle" x="1025.2648" y="-98.4775" font-family="Times,serif" font-size="14.00" fill="#000000">a</text>
</g>
<!-- q4s5 -->
<g id="node17" class="node">
<title>q4s5</title>
<ellipse fill="none" stroke="#000000" cx="1286.367" cy="-154.2775" rx="29.0567" ry="29.0567"/>
<text text-anchor="middle" x="1286.367" y="-150.0775" font-family="Times,serif" font-size="14.00" fill="#000000">q4s5</text>
</g>
<!-- q3s2&#45;&gt;q4s5 -->
<g id="edge18" class="edge">
<title>q3s2&#45;&gt;q4s5</title>
<path fill="none" stroke="#000000" d="M1003.6313,-58.5097C1011.8882,-59.8068 1020.6882,-61.398 1028.7648,-63.2775 1124.187,-85.4838 1148.6708,-91.5552 1239.0895,-129.2775 1243.2508,-131.0136 1247.5346,-132.9906 1251.7447,-135.0548"/>
<polygon fill="#000000" stroke="#000000" points="1250.2684,-138.2307 1260.7674,-139.6528 1253.4468,-131.9938 1250.2684,-138.2307"/>
<text text-anchor="middle" x="1126.8198" y="-92.4775" font-family="Times,serif" font-size="14.00" fill="#000000">b</text>
</g>
<!-- q3s3 -->
<g id="node3" class="node">
<title>q3s3</title>
<ellipse fill="none" stroke="#000000" cx="548.2672" cy="-164.2775" rx="29.0831" ry="29.0831"/>
<ellipse fill="none" stroke="#000000" cx="548.2672" cy="-164.2775" rx="33.0565" ry="33.0565"/>
<text text-anchor="middle" x="548.2672" y="-160.0775" font-family="Times,serif" font-size="14.00" fill="#000000">q3s3</text>
</g>
<!-- q3s3&#45;&gt;q4s2 -->
<g id="edge19" class="edge">
<title>q3s3&#45;&gt;q4s2</title>
<path fill="none" stroke="#000000" d="M573.4931,-142.1513C581.3208,-136.5873 590.327,-131.3769 599.5447,-128.4775 605.3345,-126.6564 611.5115,-126.5914 617.5468,-127.5373"/>
<polygon fill="#000000" stroke="#000000" points="616.9324,-130.9898 627.4763,-129.952 618.5865,-124.1881 616.9324,-130.9898"/>
<text text-anchor="middle" x="603.0447" y="-132.4775" font-family="Times,serif" font-size="14.00" fill="#000000">a</text>
</g>
<!-- q4s4 -->
<g id="node18" class="node">
<title>q4s4</title>
<ellipse fill="none" stroke="#000000" cx="864.9323" cy="-173.2775" rx="29.0567" ry="29.0567"/>
<text text-anchor="middle" x="864.9323" y="-169.0775" font-family="Times,serif" font-size="14.00" fill="#000000">q4s4</text>
</g>
<!-- q3s3&#45;&gt;q4s4 -->
<g id="edge20" class="edge">
<title>q3s3&#45;&gt;q4s4</title>
<path fill="none" stroke="#000000" d="M580.6679,-173.1458C594.1283,-176.398 609.9798,-179.6741 624.5447,-181.2775 694.9676,-189.03 777.635,-182.9923 825.3825,-178.0383"/>
<polygon fill="#000000" stroke="#000000" points="826.0283,-181.4891 835.5964,-176.9394 825.2793,-174.5293 826.0283,-181.4891"/>
<text text-anchor="middle" x="704.5998" y="-188.4775" font-family="Times,serif" font-size="14.00" fill="#000000">b</text>
</g>
<!-- q3s4 -->
<g id="node4" class="node">
<title>q3s4</title>
<ellipse fill="none" stroke="#000000" cx="1181.5973" cy="-174.2775" rx="29.0831" ry="29.0831"/>
<ellipse fill="none" stroke="#000000" cx="1181.5973" cy="-174.2775" rx="33.0565" ry="33.0565"/>
<text text-anchor="middle" x="1181.5973" y="-170.0775" font-family="Times,serif" font-size="14.00" fill="#000000">q3s4</text>
</g>
<!-- q3s4&#45;&gt;q4s0 -->
<g id="edge22" class="edge">
<title>q3s4&#45;&gt;q4s0</title>
<path fill="none" stroke="#000000" d="M1158.4269,-198.4732C1138.4933,-216.5968 1107.9743,-238.2775 1076.0423,-238.2775 548.2672,-238.2775 548.2672,-238.2775 548.2672,-238.2775 525.7515,-238.2775 500.9555,-234.0383 481.057,-229.5647"/>
<polygon fill="#000000" stroke="#000000" points="481.6721,-226.1138 471.1357,-227.2251 480.0654,-232.927 481.6721,-226.1138"/>
<text text-anchor="middle" x="814.1548" y="-242.4775" font-family="Times,serif" font-size="14.00" fill="#000000">b</text>
</g>
<!-- q3s4&#45;&gt;q4s5 -->
<g id="edge21" class="edge">
<title>q3s4&#45;&gt;q4s5</title>
<path fill="none" stroke="#000000" d="M1205.5193,-151.1373C1213.5739,-144.8056 1223.0325,-138.7816 1232.8749,-135.4775 1239.0602,-133.4011 1245.6284,-133.6602 1251.9667,-135.1846"/>
<polygon fill="#000000" stroke="#000000" points="1251.0551,-138.5711 1261.6494,-138.4677 1253.3029,-131.9418 1251.0551,-138.5711"/>
<text text-anchor="middle" x="1235.9822" y="-139.4775" font-family="Times,serif" font-size="14.00" fill="#000000">a</text>
</g>
<!-- q3s5 -->
<g id="node5" class="node">
<title>q3s5</title>
<ellipse fill="none" stroke="#000000" cx="759.3773" cy="-108.2775" rx="29.0831" ry="29.0831"/>
<ellipse fill="none" stroke="#000000" cx="759.3773" cy="-108.2775" rx="33.0565" ry="33.0565"/>
<text text-anchor="middle" x="759.3773" y="-104.0775" font-family="Times,serif" font-size="14.00" fill="#000000">q3s5</text>
</g>
<!-- q4s1 -->
<g id="node13" class="node">
<title>q4s1</title>
<ellipse fill="none" stroke="#000000" cx="864.9323" cy="-91.2775" rx="29.0567" ry="29.0567"/>
<text text-anchor="middle" x="864.9323" y="-87.0775" font-family="Times,serif" font-size="14.00" fill="#000000">q4s1</text>
</g>
<!-- q3s5&#45;&gt;q4s1 -->
<g id="edge24" class="edge">
<title>q3s5&#45;&gt;q4s1</title>
<path fill="none" stroke="#000000" d="M790.0763,-95.0466C796.7417,-92.7361 803.8396,-90.6875 810.6548,-89.4775 815.4501,-88.6262 820.5202,-88.1917 825.5589,-88.0405"/>
<polygon fill="#000000" stroke="#000000" points="825.7441,-91.5412 835.7594,-88.0852 825.7748,-84.5413 825.7441,-91.5412"/>
<text text-anchor="middle" x="814.1548" y="-93.4775" font-family="Times,serif" font-size="14.00" fill="#000000">b</text>
</g>
<!-- q3s5&#45;&gt;q4s4 -->
<g id="edge23" class="edge">
<title>q3s5&#45;&gt;q4s4</title>
<path fill="none" stroke="#000000" d="M785.6359,-129.1153C793.4862,-134.9631 802.2459,-141.1257 810.6548,-146.2775 816.5035,-149.8608 822.892,-153.3695 829.1665,-156.6094"/>
<polygon fill="#000000" stroke="#000000" points="827.6936,-159.7862 838.2014,-161.1412 830.832,-153.5292 827.6936,-159.7862"/>
<text text-anchor="middle" x="814.1548" y="-153.4775" font-family="Times,serif" font-size="14.00" fill="#000000">a</text>
</g>
<!-- q0s0 -->
<g id="node6" class="node">
<title>q0s0</title>
<ellipse fill="none" stroke="#000000" cx="29.2775" cy="-63.2775" rx="29.0567" ry="29.0567"/>
<text text-anchor="middle" x="29.2775" y="-59.0775" font-family="Times,serif" font-size="14.00" fill="#000000">q0s0</text>
</g>
<!-- q1s1 -->
<g id="node7" class="node">
<title>q1s1</title>
<ellipse fill="none" stroke="#000000" cx="130.0471" cy="-104.2775" rx="29.0567" ry="29.0567"/>
<text text-anchor="middle" x="130.0471" y="-100.0775" font-family="Times,serif" font-size="14.00" fill="#000000">q1s1</text>
</g>
<!-- q0s0&#45;&gt;q1s1 -->
<g id="edge1" class="edge">
<title>q0s0&#45;&gt;q1s1</title>
<path fill="none" stroke="#000000" d="M56.5472,-74.3727C67.8614,-78.9761 81.161,-84.3873 93.3144,-89.3321"/>
<polygon fill="#000000" stroke="#000000" points="92.1739,-92.6466 102.7556,-93.1735 94.812,-86.1628 92.1739,-92.6466"/>
<text text-anchor="middle" x="79.6623" y="-88.4775" font-family="Times,serif" font-size="14.00" fill="#000000">a</text>
</g>
<!-- q1s3 -->
<g id="node8" class="node">
<title>q1s3</title>
<ellipse fill="none" stroke="#000000" cx="337.1572" cy="-47.2775" rx="29.0567" ry="29.0567"/>
<text text-anchor="middle" x="337.1572" y="-43.0775" font-family="Times,serif" font-size="14.00" fill="#000000">q1s3</text>
</g>
<!-- q0s0&#45;&gt;q1s3 -->
<g id="edge2" class="edge">
<title>q0s0&#45;&gt;q1s3</title>
<path fill="none" stroke="#000000" d="M58.5196,-61.7578C113.9997,-58.8746 234.5892,-52.6078 297.3685,-49.3453"/>
<polygon fill="#000000" stroke="#000000" points="297.855,-52.8248 307.6598,-48.8104 297.4916,-45.8342 297.855,-52.8248"/>
<text text-anchor="middle" x="180.8246" y="-60.4775" font-family="Times,serif" font-size="14.00" fill="#000000">b</text>
</g>
<!-- q2s0 -->
<g id="node9" class="node">
<title>q2s0</title>
<ellipse fill="none" stroke="#000000" cx="231.6022" cy="-162.2775" rx="29.0567" ry="29.0567"/>
<text text-anchor="middle" x="231.6022" y="-158.0775" font-family="Times,serif" font-size="14.00" fill="#000000">q2s0</text>
</g>
<!-- q1s1&#45;&gt;q2s0 -->
<g id="edge3" class="edge">
<title>q1s1&#45;&gt;q2s0</title>
<path fill="none" stroke="#000000" d="M155.6738,-118.9134C168.1822,-126.0572 183.4147,-134.7568 196.9439,-142.4835"/>
<polygon fill="#000000" stroke="#000000" points="195.5643,-145.7262 205.9837,-147.6463 199.0359,-139.6477 195.5643,-145.7262"/>
<text text-anchor="middle" x="180.8246" y="-138.4775" font-family="Times,serif" font-size="14.00" fill="#000000">a</text>
</g>
<!-- q2s2 -->
<g id="node10" class="node">
<title>q2s2</title>
<ellipse fill="none" stroke="#000000" cx="442.7122" cy="-101.2775" rx="29.0567" ry="29.0567"/>
<text text-anchor="middle" x="442.7122" y="-97.0775" font-family="Times,serif" font-size="14.00" fill="#000000">q2s2</text>
</g>
<!-- q1s1&#45;&gt;q2s2 -->
<g id="edge4" class="edge">
<title>q1s1&#45;&gt;q2s2</title>
<path fill="none" stroke="#000000" d="M159.4619,-103.9953C215.9108,-103.4537 339.4668,-102.2681 403.0995,-101.6576"/>
<polygon fill="#000000" stroke="#000000" points="403.1819,-105.1571 413.1478,-101.5612 403.1147,-98.1574 403.1819,-105.1571"/>
<text text-anchor="middle" x="282.3797" y="-106.4775" font-family="Times,serif" font-size="14.00" fill="#000000">b</text>
</g>
<!-- q1s3&#45;&gt;q2s2 -->
<g id="edge5" class="edge">
<title>q1s3&#45;&gt;q2s2</title>
<path fill="none" stroke="#000000" d="M364.1395,-58.674C374.0895,-63.0678 385.3829,-68.2823 395.4347,-73.4775 399.7539,-75.7099 404.2311,-78.1577 408.6313,-80.6463"/>
<polygon fill="#000000" stroke="#000000" points="407.0698,-83.7862 417.48,-85.7556 410.5701,-77.7242 407.0698,-83.7862"/>
<text text-anchor="middle" x="391.9347" y="-77.4775" font-family="Times,serif" font-size="14.00" fill="#000000">a</text>
</g>
<!-- q2s4 -->
<g id="node11" class="node">
<title>q2s4</title>
<ellipse fill="none" stroke="#000000" cx="653.8222" cy="-29.2775" rx="29.0567" ry="29.0567"/>
<text text-anchor="middle" x="653.8222" y="-25.0775" font-family="Times,serif" font-size="14.00" fill="#000000">q2s4</text>
</g>
<!-- q1s3&#45;&gt;q2s4 -->
<g id="edge6" class="edge">
<title>q1s3&#45;&gt;q2s4</title>
<path fill="none" stroke="#000000" d="M366.6639,-45.6003C423.8228,-42.3512 549.6746,-35.1975 614.1076,-31.535"/>
<polygon fill="#000000" stroke="#000000" points="614.4898,-35.019 624.275,-30.957 614.0925,-28.0303 614.4898,-35.019"/>
<text text-anchor="middle" x="493.4897" y="-43.4775" font-family="Times,serif" font-size="14.00" fill="#000000">b</text>
</g>
<!-- q2s0&#45;&gt;q3s1 -->
<g id="edge7" class="edge">
<title>q2s0&#45;&gt;q3s1</title>
<path fill="none" stroke="#000000" d="M254.7667,-180.2728C268.8233,-191.1926 287.0237,-205.3315 302.7418,-217.542"/>
<polygon fill="#000000" stroke="#000000" points="300.6557,-220.3535 310.7,-223.7243 304.9501,-214.8255 300.6557,-220.3535"/>
<text text-anchor="middle" x="282.3797" y="-207.4775" font-family="Times,serif" font-size="14.00" fill="#000000">a</text>
</g>
<!-- q2s0&#45;&gt;q3s3 -->
<g id="edge8" class="edge">
<title>q2s0&#45;&gt;q3s3</title>
<path fill="none" stroke="#000000" d="M261.1089,-162.4639C317.1043,-162.8175 439.0243,-163.5876 504.5425,-164.0014"/>
<polygon fill="#000000" stroke="#000000" points="504.9172,-167.5037 514.9392,-164.067 504.9615,-160.5038 504.9172,-167.5037"/>
<text text-anchor="middle" x="391.9347" y="-167.4775" font-family="Times,serif" font-size="14.00" fill="#000000">b</text>
</g>
<!-- q2s2&#45;&gt;q3s3 -->
<g id="edge9" class="edge">
<title>q2s2&#45;&gt;q3s3</title>
<path fill="none" stroke="#000000" d="M468.5743,-115.2446C477.6305,-120.2466 487.8243,-126.0033 496.9897,-131.4775 501.7529,-134.3224 506.719,-137.3799 511.6045,-140.4432"/>
<polygon fill="#000000" stroke="#000000" points="509.9291,-143.525 520.2501,-145.9186 513.6745,-137.6112 509.9291,-143.525"/>
<text text-anchor="middle" x="493.4897" y="-135.4775" font-family="Times,serif" font-size="14.00" fill="#000000">a</text>
</g>
<!-- q2s2&#45;&gt;q3s5 -->
<g id="edge10" class="edge">
<title>q2s2&#45;&gt;q3s5</title>
<path fill="none" stroke="#000000" d="M472.3231,-101.5543C517.6993,-102.0274 607.1632,-103.1527 683.0998,-105.2775 693.7414,-105.5753 705.2149,-105.9816 715.9505,-106.3989"/>
<polygon fill="#000000" stroke="#000000" points="715.8342,-109.897 725.966,-106.7993 716.1139,-102.9026 715.8342,-109.897"/>
<text text-anchor="middle" x="603.0447" y="-107.4775" font-family="Times,serif" font-size="14.00" fill="#000000">b</text>
</g>
<!-- q2s4&#45;&gt;q3s5 -->
<g id="edge11" class="edge">
<title>q2s4&#45;&gt;q3s5</title>
<path fill="none" stroke="#000000" d="M681.1008,-40.1722C690.0817,-44.3405 699.868,-49.54 708.0998,-55.4775 716.0149,-61.1866 723.7713,-68.1888 730.7591,-75.2043"/>
<polygon fill="#000000" stroke="#000000" points="728.5619,-77.9696 738.0112,-82.7615 733.6126,-73.1229 728.5619,-77.9696"/>
<text text-anchor="middle" x="704.5998" y="-60.4775" font-family="Times,serif" font-size="14.00" fill="#000000">a</text>
</g>
<!-- q3s0 -->
<g id="node12" class="node">
<title>q3s0</title>
<ellipse fill="none" stroke="#000000" cx="970.4873" cy="-135.2775" rx="29.0567" ry="29.0567"/>
<text text-anchor="middle" x="970.4873" y="-131.0775" font-family="Times,serif" font-size="14.00" fill="#000000">q3s0</text>
</g>
<!-- q2s4&#45;&gt;q3s0 -->
<g id="edge12" class="edge">
<title>q2s4&#45;&gt;q3s0</title>
<path fill="none" stroke="#000000" d="M682.3377,-22.5608C734.8896,-11.9495 848.1328,2.4644 919.2098,-50.2775 936.8401,-63.3599 925.9284,-77.4439 937.2098,-96.2775 939.1536,-99.5226 941.3692,-102.7652 943.7128,-105.9165"/>
<polygon fill="#000000" stroke="#000000" points="941.1581,-108.3277 950.1163,-113.9846 946.641,-103.9759 941.1581,-108.3277"/>
<text text-anchor="middle" x="814.1548" y="-19.4775" font-family="Times,serif" font-size="14.00" fill="#000000">b</text>
</g>
<!-- q3s0&#45;&gt;q4s1 -->
<g id="edge13" class="edge">
<title>q3s0&#45;&gt;q4s1</title>
<path fill="none" stroke="#000000" d="M949.2847,-114.3128C940.6551,-107.0611 930.1425,-99.7007 919.2098,-95.4775 914.6032,-93.698 909.616,-92.47 904.5954,-91.6424"/>
<polygon fill="#000000" stroke="#000000" points="904.6904,-88.1301 894.3544,-90.4577 903.8859,-95.0837 904.6904,-88.1301"/>
<text text-anchor="middle" x="915.7098" y="-99.4775" font-family="Times,serif" font-size="14.00" fill="#000000">a</text>
</g>
<!-- q3s0&#45;&gt;q4s3 -->
<g id="edge14" class="edge">
<title>q3s0&#45;&gt;q4s3</title>
<path fill="none" stroke="#000000" d="M999.8903,-134.1633C1011.1193,-133.7378 1024.1175,-133.2452 1036.1612,-132.7888"/>
<polygon fill="#000000" stroke="#000000" points="1036.5707,-136.2759 1046.431,-132.3996 1036.3056,-129.2809 1036.5707,-136.2759"/>
<text text-anchor="middle" x="1025.2648" y="-137.4775" font-family="Times,serif" font-size="14.00" fill="#000000">b</text>
</g>
<!-- q4s1&#45;&gt;q3s2 -->
<g id="edge28" class="edge">
<title>q4s1&#45;&gt;q3s2</title>
<path fill="none" stroke="#000000" d="M886.3097,-70.6057C893.8908,-64.5662 902.8733,-58.7209 912.2098,-55.4775 916.864,-53.8607 921.8558,-52.8154 926.8885,-52.1828"/>
<polygon fill="#000000" stroke="#000000" points="927.4699,-55.6492 937.181,-51.413 926.9478,-48.6687 927.4699,-55.6492"/>
<text text-anchor="middle" x="915.7098" y="-60.4775" font-family="Times,serif" font-size="14.00" fill="#000000">b</text>
</g>
<!-- q4s1&#45;&gt;q3s0 -->
<g id="edge27" class="edge">
<title>q4s1&#45;&gt;q3s0</title>
<path fill="none" stroke="#000000" d="M891.8487,-103.4681C898.4817,-106.4073 905.5835,-109.4997 912.2098,-112.2775 919.1063,-115.1686 926.5017,-118.1656 933.6307,-121.0032"/>
<polygon fill="#000000" stroke="#000000" points="932.5283,-124.3309 943.1149,-124.7489 935.0997,-117.8202 932.5283,-124.3309"/>
<text text-anchor="middle" x="915.7098" y="-118.4775" font-family="Times,serif" font-size="14.00" fill="#000000">a</text>
</g>
<!-- q4s3&#45;&gt;q3s2 -->
<g id="edge31" class="edge">
<title>q4s3&#45;&gt;q3s2</title>
<path fill="none" stroke="#000000" d="M1061.125,-105.8069C1052.9459,-93.839 1041.8127,-80.2973 1028.7648,-71.4775 1024.0672,-68.3021 1018.7732,-65.702 1013.3402,-63.5754"/>
<polygon fill="#000000" stroke="#000000" points="1014.1041,-60.1385 1003.5097,-60.2371 1011.8532,-66.7668 1014.1041,-60.1385"/>
<text text-anchor="middle" x="1025.2648" y="-75.4775" font-family="Times,serif" font-size="14.00" fill="#000000">a</text>
</g>
<!-- q4s3&#45;&gt;q3s4 -->
<g id="edge32" class="edge">
<title>q4s3&#45;&gt;q3s4</title>
<path fill="none" stroke="#000000" d="M1103.2254,-142.3511C1114.8104,-147.0705 1128.5664,-152.6743 1141.2953,-157.8596"/>
<polygon fill="#000000" stroke="#000000" points="1140.1945,-161.1905 1150.7761,-161.7218 1142.8355,-154.7077 1140.1945,-161.1905"/>
<text text-anchor="middle" x="1126.8198" y="-156.4775" font-family="Times,serif" font-size="14.00" fill="#000000">b</text>
</g>
<!-- q4s0&#45;&gt;q3s1 -->
<g id="edge25" class="edge">
<title>q4s0&#45;&gt;q3s1</title>
<path fill="none" stroke="#000000" d="M415.0728,-209.2365C406.4379,-207.4398 396.9471,-206.8617 388.4347,-209.4775 382.6369,-211.2591 376.906,-213.9436 371.4936,-217.047"/>
<polygon fill="#000000" stroke="#000000" points="369.3174,-214.2817 362.7301,-222.5798 373.0544,-220.2008 369.3174,-214.2817"/>
<text text-anchor="middle" x="391.9347" y="-213.4775" font-family="Times,serif" font-size="14.00" fill="#000000">a</text>
</g>
<!-- q4s0&#45;&gt;q3s3 -->
<g id="edge26" class="edge">
<title>q4s0&#45;&gt;q3s3</title>
<path fill="none" stroke="#000000" d="M468.8045,-205.682C481.1061,-199.2721 496.0327,-191.4946 509.6126,-184.4187"/>
<polygon fill="#000000" stroke="#000000" points="511.4992,-187.3824 518.7502,-179.6575 508.2646,-181.1745 511.4992,-187.3824"/>
<text text-anchor="middle" x="493.4897" y="-197.4775" font-family="Times,serif" font-size="14.00" fill="#000000">b</text>
</g>
<!-- q4s2&#45;&gt;q3s3 -->
<g id="edge29" class="edge">
<title>q4s2&#45;&gt;q3s3</title>
<path fill="none" stroke="#000000" d="M624.9527,-149.0211C614.4534,-151.1099 602.3535,-153.5171 590.9135,-155.7931"/>
<polygon fill="#000000" stroke="#000000" points="590.2117,-152.364 581.0869,-157.7481 591.5776,-159.2295 590.2117,-152.364"/>
<text text-anchor="middle" x="603.0447" y="-157.4775" font-family="Times,serif" font-size="14.00" fill="#000000">a</text>
</g>
<!-- q4s2&#45;&gt;q3s5 -->
<g id="edge30" class="edge">
<title>q4s2&#45;&gt;q3s5</title>
<path fill="none" stroke="#000000" d="M681.8319,-133.99C692.8066,-130.351 705.6292,-126.0993 717.6509,-122.1132"/>
<polygon fill="#000000" stroke="#000000" points="719.1123,-125.316 727.5026,-118.8465 716.9092,-118.6718 719.1123,-125.316"/>
<text text-anchor="middle" x="704.5998" y="-130.4775" font-family="Times,serif" font-size="14.00" fill="#000000">b</text>
</g>
<!-- q4s5&#45;&gt;q3s1 -->
<g id="edge36" class="edge">
<title>q4s5&#45;&gt;q3s1</title>
<path fill="none" stroke="#000000" d="M1281.0861,-183.2523C1270.825,-229.3599 1243.5213,-314.2775 1181.5973,-314.2775 442.7122,-314.2775 442.7122,-314.2775 442.7122,-314.2775 413.3999,-314.2775 385.9933,-295.297 366.4559,-277.103"/>
<polygon fill="#000000" stroke="#000000" points="368.7116,-274.4143 359.1054,-269.9454 363.8281,-279.4295 368.7116,-274.4143"/>
<text text-anchor="middle" x="814.1548" y="-318.4775" font-family="Times,serif" font-size="14.00" fill="#000000">b</text>
</g>
<!-- q4s5&#45;&gt;q3s4 -->
<g id="edge35" class="edge">
<title>q4s5&#45;&gt;q3s4</title>
<path fill="none" stroke="#000000" d="M1257.5162,-159.785C1247.3016,-161.7349 1235.5799,-163.9725 1224.452,-166.0968"/>
<polygon fill="#000000" stroke="#000000" points="1223.626,-162.6912 1214.4597,-168.0043 1224.9386,-169.567 1223.626,-162.6912"/>
<text text-anchor="middle" x="1235.9822" y="-168.4775" font-family="Times,serif" font-size="14.00" fill="#000000">a</text>
</g>
<!-- q4s4&#45;&gt;q3s5 -->
<g id="edge33" class="edge">
<title>q4s4&#45;&gt;q3s5</title>
<path fill="none" stroke="#000000" d="M846.6463,-150.3086C838.5786,-141.4654 828.4737,-131.9472 817.6548,-125.4775 812.7884,-122.5674 807.3964,-120.1211 801.9141,-118.0721"/>
<polygon fill="#000000" stroke="#000000" points="802.6357,-114.6241 792.0423,-114.7987 800.4325,-121.2683 802.6357,-114.6241"/>
<text text-anchor="middle" x="814.1548" y="-129.4775" font-family="Times,serif" font-size="14.00" fill="#000000">a</text>
</g>
<!-- q4s4&#45;&gt;q3s0 -->
<g id="edge34" class="edge">
<title>q4s4&#45;&gt;q3s0</title>
<path fill="none" stroke="#000000" d="M892.6656,-163.2935C905.1503,-158.799 920.0689,-153.4282 933.4887,-148.5971"/>
<polygon fill="#000000" stroke="#000000" points="934.7159,-151.8753 942.9392,-145.1949 932.3448,-145.2891 934.7159,-151.8753"/>
<text text-anchor="middle" x="915.7098" y="-159.4775" font-family="Times,serif" font-size="14.00" fill="#000000">b</text>
</g>
</g>
</svg>
