<?xml version="1.0" encoding="UTF-8" standalone="no"?>
<!DOCTYPE svg PUBLIC "-//W3C//DTD SVG 1.1//EN"
 "http://www.w3.org/Graphics/SVG/1.1/DTD/svg11.dtd">
<!-- Generated by graphviz version 2.40.1 (20161225.0304)
 -->
<!-- Title: %0 Pages: 1 -->
<svg width="434pt" height="131pt"
 viewBox="0.00 0.00 433.65 131.36" xmlns="http://www.w3.org/2000/svg" xmlns:xlink="http://www.w3.org/1999/xlink">
<g id="graph0" class="graph" transform="scale(1 1) rotate(0) translate(4 127.3577)">
<title>%0</title>
<polygon fill="#ffffff" stroke="transparent" points="-4,4 -4,-127.3577 429.6456,-127.3577 429.6456,4 -4,4"/>
<!-- q2q5q8 -->
<g id="node1" class="node">
<title>q2q5q8</title>
<ellipse fill="none" stroke="#000000" cx="127.6088" cy="-44.0073" rx="40.014" ry="40.014"/>
<ellipse fill="none" stroke="#000000" cx="127.6088" cy="-44.0073" rx="44.0147" ry="44.0147"/>
<text text-anchor="middle" x="127.6088" y="-39.8073" font-family="Times,serif" font-size="14.00" fill="#000000">q2q5q8</text>
</g>
<!-- q3q6 -->
<g id="node4" class="node">
<title>q3q6</title>
<ellipse fill="none" stroke="#000000" cx="244.9666" cy="-93.0073" rx="30.2015" ry="30.2015"/>
<text text-anchor="middle" x="244.9666" y="-88.8073" font-family="Times,serif" font-size="14.00" fill="#000000">q3q6</text>
</g>
<!-- q2q5q8&#45;&gt;q3q6 -->
<g id="edge2" class="edge">
<title>q2q5q8&#45;&gt;q3q6</title>
<path fill="none" stroke="#000000" d="M168.3255,-61.0076C181.0923,-66.3381 195.1145,-72.1927 207.6353,-77.4205"/>
<polygon fill="#000000" stroke="#000000" points="206.2951,-80.6538 216.8716,-81.2769 208.9922,-74.1942 206.2951,-80.6538"/>
<text text-anchor="middle" x="193.1162" y="-76.2073" font-family="Times,serif" font-size="14.00" fill="#000000">b</text>
</g>
<!-- q2q5q7q8 -->
<g id="node2" class="node">
<title>q2q5q7q8</title>
<ellipse fill="none" stroke="#000000" cx="371.9813" cy="-61.0073" rx="49.8168" ry="49.8168"/>
<ellipse fill="none" stroke="#000000" cx="371.9813" cy="-61.0073" rx="53.8291" ry="53.8291"/>
<text text-anchor="middle" x="371.9813" y="-56.8073" font-family="Times,serif" font-size="14.00" fill="#000000">q2q5q7q8</text>
</g>
<!-- q2q5q7q8&#45;&gt;q2q5q8 -->
<g id="edge5" class="edge">
<title>q2q5q7q8&#45;&gt;q2q5q8</title>
<path fill="none" stroke="#000000" d="M320.4861,-45.8903C306.0061,-42.3084 290.1582,-39.0075 275.317,-37.2073 248.5351,-33.9588 241.5738,-36.1555 214.6162,-37.2073 204.0608,-37.6192 192.8015,-38.3111 182.0045,-39.0999"/>
<polygon fill="#000000" stroke="#000000" points="181.5357,-35.6255 171.8326,-39.8799 182.0709,-42.605 181.5357,-35.6255"/>
<text text-anchor="middle" x="244.9666" y="-42.2073" font-family="Times,serif" font-size="14.00" fill="#000000">a</text>
</g>
<!-- q2q5q7q8&#45;&gt;q3q6 -->
<g id="edge4" class="edge">
<title>q2q5q7q8&#45;&gt;q3q6</title>
<path fill="none" stroke="#000000" d="M318.3976,-54.1555C309.87,-54.4689 301.2508,-55.6491 293.317,-58.2073 287.2449,-60.1653 281.2917,-63.2003 275.7527,-66.6796"/>
<polygon fill="#000000" stroke="#000000" points="273.6743,-63.8614 267.4318,-72.4219 277.6502,-69.6227 273.6743,-63.8614"/>
<text text-anchor="middle" x="296.817" y="-63.2073" font-family="Times,serif" font-size="14.00" fill="#000000">b</text>
</g>
<!-- q0 -->
<g id="node3" class="node">
<title>q0</title>
<ellipse fill="none" stroke="#000000" cx="20.6935" cy="-44.0073" rx="20.8887" ry="20.8887"/>
<text text-anchor="middle" x="20.6935" y="-39.8073" font-family="Times,serif" font-size="14.00" fill="#000000">q0</text>
</g>
<!-- q0&#45;&gt;q2q5q8 -->
<g id="edge1" class="edge">
<title>q0&#45;&gt;q2q5q8</title>
<path fill="none" stroke="#000000" d="M41.5616,-44.0073C50.6809,-44.0073 61.8463,-44.0073 73.0751,-44.0073"/>
<polygon fill="#000000" stroke="#000000" points="73.3481,-47.5074 83.3481,-44.0073 73.348,-40.5074 73.3481,-47.5074"/>
<text text-anchor="middle" x="62.4942" y="-48.2073" font-family="Times,serif" font-size="14.00" fill="#000000">a</text>
</g>
<!-- q3q6&#45;&gt;q2q5q7q8 -->
<g id="edge3" class="edge">
<title>q3q6&#45;&gt;q2q5q7q8</title>
<path fill="none" stroke="#000000" d="M274.4256,-85.5855C285.0655,-82.9049 297.5157,-79.7681 309.894,-76.6496"/>
<polygon fill="#000000" stroke="#000000" points="310.9278,-79.9986 319.7697,-74.1615 309.2176,-73.2107 310.9278,-79.9986"/>
<text text-anchor="middle" x="296.817" y="-84.2073" font-family="Times,serif" font-size="14.00" fill="#000000">a</text>
</g>
</g>
</svg>
