<?xml version="1.0" encoding="UTF-8" standalone="no"?>
<!DOCTYPE svg PUBLIC "-//W3C//DTD SVG 1.1//EN"
 "http://www.w3.org/Graphics/SVG/1.1/DTD/svg11.dtd">
<!-- Generated by graphviz version 2.40.1 (20161225.0304)
 -->
<!-- Title: %0 Pages: 1 -->
<svg width="403pt" height="253pt"
 viewBox="0.00 0.00 403.47 253.39" xmlns="http://www.w3.org/2000/svg" xmlns:xlink="http://www.w3.org/1999/xlink">
<g id="graph0" class="graph" transform="scale(1 1) rotate(0) translate(4 249.3869)">
<title>%0</title>
<polygon fill="#ffffff" stroke="transparent" points="-4,4 -4,-249.3869 399.4703,-249.3869 399.4703,4 -4,4"/>
<!-- q8 -->
<g id="node1" class="node">
<title>q8</title>
<ellipse fill="none" stroke="#000000" cx="113.741" cy="-220.6935" rx="20.8568" ry="20.8568"/>
<ellipse fill="none" stroke="#000000" cx="113.741" cy="-220.6935" rx="24.8884" ry="24.8884"/>
<text text-anchor="middle" x="113.741" y="-216.4935" font-family="Times,serif" font-size="14.00" fill="#000000">q8</text>
</g>
<!-- q0 -->
<g id="node2" class="node">
<title>q0</title>
<ellipse fill="none" stroke="#000000" cx="20.6935" cy="-108.6935" rx="20.8887" ry="20.8887"/>
<text text-anchor="middle" x="20.6935" y="-104.4935" font-family="Times,serif" font-size="14.00" fill="#000000">q0</text>
</g>
<!-- q0&#45;&gt;q8 -->
<g id="edge10" class="edge">
<title>q0&#45;&gt;q8</title>
<path fill="none" stroke="#000000" d="M34.0249,-124.7403C48.9965,-142.7615 73.5372,-172.3008 91.4406,-193.8509"/>
<polygon fill="#000000" stroke="#000000" points="88.8611,-196.223 97.9435,-201.6783 94.2454,-191.7498 88.8611,-196.223"/>
<text text-anchor="middle" x="65.2172" y="-171.8935" font-family="Times,serif" font-size="14.00" fill="#000000">a</text>
</g>
<!-- q1 -->
<g id="node3" class="node">
<title>q1</title>
<ellipse fill="none" stroke="#000000" cx="113.741" cy="-59.6935" rx="20.8887" ry="20.8887"/>
<text text-anchor="middle" x="113.741" y="-55.4935" font-family="Times,serif" font-size="14.00" fill="#000000">q1</text>
</g>
<!-- q0&#45;&gt;q1 -->
<g id="edge1" class="edge">
<title>q0&#45;&gt;q1</title>
<path fill="none" stroke="#000000" d="M35.9965,-94.4661C42.7771,-88.7231 51.0881,-82.4024 59.3869,-77.8935 66.9711,-73.7728 75.6554,-70.3552 83.8238,-67.6372"/>
<polygon fill="#000000" stroke="#000000" points="84.9035,-70.967 93.423,-64.6687 82.8353,-64.2794 84.9035,-70.967"/>
<text text-anchor="middle" x="65.2172" y="-81.8935" font-family="Times,serif" font-size="14.00" fill="#000000">位</text>
</g>
<!-- q4 -->
<g id="node4" class="node">
<title>q4</title>
<ellipse fill="none" stroke="#000000" cx="113.741" cy="-157.6935" rx="20.8887" ry="20.8887"/>
<text text-anchor="middle" x="113.741" y="-153.4935" font-family="Times,serif" font-size="14.00" fill="#000000">q4</text>
</g>
<!-- q0&#45;&gt;q4 -->
<g id="edge2" class="edge">
<title>q0&#45;&gt;q4</title>
<path fill="none" stroke="#000000" d="M39.0766,-118.3743C52.5854,-125.4882 71.1645,-135.2722 86.4097,-143.3004"/>
<polygon fill="#000000" stroke="#000000" points="84.917,-146.47 95.396,-148.0327 88.1787,-140.2763 84.917,-146.47"/>
<text text-anchor="middle" x="65.2172" y="-137.8935" font-family="Times,serif" font-size="14.00" fill="#000000">位</text>
</g>
<!-- q2 -->
<g id="node5" class="node">
<title>q2</title>
<ellipse fill="none" stroke="#000000" cx="206.7885" cy="-59.6935" rx="20.8887" ry="20.8887"/>
<text text-anchor="middle" x="206.7885" y="-55.4935" font-family="Times,serif" font-size="14.00" fill="#000000">q2</text>
</g>
<!-- q1&#45;&gt;q2 -->
<g id="edge3" class="edge">
<title>q1&#45;&gt;q2</title>
<path fill="none" stroke="#000000" d="M134.8549,-59.6935C146.9552,-59.6935 162.3635,-59.6935 175.813,-59.6935"/>
<polygon fill="#000000" stroke="#000000" points="176.0787,-63.1936 186.0786,-59.6935 176.0786,-56.1936 176.0787,-63.1936"/>
<text text-anchor="middle" x="162.2647" y="-63.8935" font-family="Times,serif" font-size="14.00" fill="#000000">a</text>
</g>
<!-- q5 -->
<g id="node7" class="node">
<title>q5</title>
<ellipse fill="none" stroke="#000000" cx="206.7885" cy="-157.6935" rx="20.8887" ry="20.8887"/>
<text text-anchor="middle" x="206.7885" y="-153.4935" font-family="Times,serif" font-size="14.00" fill="#000000">q5</text>
</g>
<!-- q4&#45;&gt;q5 -->
<g id="edge5" class="edge">
<title>q4&#45;&gt;q5</title>
<path fill="none" stroke="#000000" d="M134.8549,-157.6935C146.9552,-157.6935 162.3635,-157.6935 175.813,-157.6935"/>
<polygon fill="#000000" stroke="#000000" points="176.0787,-161.1936 186.0786,-157.6935 176.0786,-154.1936 176.0787,-161.1936"/>
<text text-anchor="middle" x="162.2647" y="-161.8935" font-family="Times,serif" font-size="14.00" fill="#000000">a</text>
</g>
<!-- q3 -->
<g id="node6" class="node">
<title>q3</title>
<ellipse fill="none" stroke="#000000" cx="291.1754" cy="-73.6935" rx="20.8887" ry="20.8887"/>
<text text-anchor="middle" x="291.1754" y="-69.4935" font-family="Times,serif" font-size="14.00" fill="#000000">q3</text>
</g>
<!-- q2&#45;&gt;q3 -->
<g id="edge4" class="edge">
<title>q2&#45;&gt;q3</title>
<path fill="none" stroke="#000000" d="M227.2162,-63.0825C237.1967,-64.7383 249.4147,-66.7652 260.4879,-68.6023"/>
<polygon fill="#000000" stroke="#000000" points="260.2053,-72.1032 270.6433,-70.2871 261.351,-65.1976 260.2053,-72.1032"/>
<text text-anchor="middle" x="248.9819" y="-70.8935" font-family="Times,serif" font-size="14.00" fill="#000000">b</text>
</g>
<!-- q3&#45;&gt;q0 -->
<g id="edge8" class="edge">
<title>q3&#45;&gt;q0</title>
<path fill="none" stroke="#000000" d="M271.7809,-81.8126C265.6993,-84.0579 258.8976,-86.2671 252.4819,-87.6935 181.7913,-103.4091 96.475,-107.4127 51.6587,-108.4005"/>
<polygon fill="#000000" stroke="#000000" points="51.364,-104.9052 41.43,-108.5882 51.4926,-111.9041 51.364,-104.9052"/>
<text text-anchor="middle" x="162.2647" y="-105.8935" font-family="Times,serif" font-size="14.00" fill="#000000">位</text>
</g>
<!-- q6 -->
<g id="node8" class="node">
<title>q6</title>
<ellipse fill="none" stroke="#000000" cx="291.1754" cy="-143.6935" rx="20.8887" ry="20.8887"/>
<text text-anchor="middle" x="291.1754" y="-139.4935" font-family="Times,serif" font-size="14.00" fill="#000000">q6</text>
</g>
<!-- q5&#45;&gt;q6 -->
<g id="edge6" class="edge">
<title>q5&#45;&gt;q6</title>
<path fill="none" stroke="#000000" d="M227.2162,-154.3044C237.1967,-152.6487 249.4147,-150.6217 260.4879,-148.7846"/>
<polygon fill="#000000" stroke="#000000" points="261.351,-152.1893 270.6433,-147.0998 260.2053,-145.2837 261.351,-152.1893"/>
<text text-anchor="middle" x="248.9819" y="-154.8935" font-family="Times,serif" font-size="14.00" fill="#000000">b</text>
</g>
<!-- q7 -->
<g id="node9" class="node">
<title>q7</title>
<ellipse fill="none" stroke="#000000" cx="374.7769" cy="-20.6935" rx="20.8887" ry="20.8887"/>
<text text-anchor="middle" x="374.7769" y="-16.4935" font-family="Times,serif" font-size="14.00" fill="#000000">q7</text>
</g>
<!-- q6&#45;&gt;q7 -->
<g id="edge7" class="edge">
<title>q6&#45;&gt;q7</title>
<path fill="none" stroke="#000000" d="M302.9761,-126.3314C317.1667,-105.4533 341.1067,-70.2312 357.4082,-46.2474"/>
<polygon fill="#000000" stroke="#000000" points="360.3095,-48.2051 363.0362,-37.9672 354.5201,-44.2702 360.3095,-48.2051"/>
<text text-anchor="middle" x="332.9761" y="-89.8935" font-family="Times,serif" font-size="14.00" fill="#000000">a</text>
</g>
<!-- q7&#45;&gt;q0 -->
<g id="edge9" class="edge">
<title>q7&#45;&gt;q0</title>
<path fill="none" stroke="#000000" d="M354.7105,-14.6445C337.9024,-10.1136 313.1939,-4.6935 291.1754,-4.6935 113.741,-4.6935 113.741,-4.6935 113.741,-4.6935 73.2976,-4.6935 46.0341,-48.9157 31.9588,-79.6869"/>
<polygon fill="#000000" stroke="#000000" points="28.6299,-78.5656 27.8523,-89.1318 35.0494,-81.3567 28.6299,-78.5656"/>
<text text-anchor="middle" x="206.7885" y="-8.8935" font-family="Times,serif" font-size="14.00" fill="#000000">位</text>
</g>
</g>
</svg>
