<?xml version="1.0" encoding="UTF-8" standalone="no"?>
<!DOCTYPE svg PUBLIC "-//W3C//DTD SVG 1.1//EN"
 "http://www.w3.org/Graphics/SVG/1.1/DTD/svg11.dtd">
<!-- Generated by graphviz version 2.40.1 (20161225.0304)
 -->
<!-- Title: %0 Pages: 1 -->
<svg width="542pt" height="189pt"
 viewBox="0.00 0.00 542.04 188.55" xmlns="http://www.w3.org/2000/svg" xmlns:xlink="http://www.w3.org/1999/xlink">
<g id="graph0" class="graph" transform="scale(1 1) rotate(0) translate(4 184.5538)">
<title>%0</title>
<polygon fill="#ffffff" stroke="transparent" points="-4,4 -4,-184.5538 538.0354,-184.5538 538.0354,4 -4,4"/>
<!-- q6 -->
<g id="node1" class="node">
<title>q6</title>
<ellipse fill="none" stroke="#000000" cx="108.295" cy="-87.3749" rx="20.8568" ry="20.8568"/>
<ellipse fill="none" stroke="#000000" cx="108.295" cy="-87.3749" rx="24.8884" ry="24.8884"/>
<text text-anchor="middle" x="108.295" y="-83.1749" font-family="Times,serif" font-size="14.00" fill="#000000">q6</text>
</g>
<!-- q0q9 -->
<g id="node5" class="node">
<title>q0q9</title>
<ellipse fill="none" stroke="#000000" cx="205.5534" cy="-87.3749" rx="30.2015" ry="30.2015"/>
<text text-anchor="middle" x="205.5534" y="-83.1749" font-family="Times,serif" font-size="14.00" fill="#000000">q0q9</text>
</g>
<!-- q6&#45;&gt;q0q9 -->
<g id="edge2" class="edge">
<title>q6&#45;&gt;q0q9</title>
<path fill="none" stroke="#000000" d="M133.089,-87.3749C142.7278,-87.3749 154.0264,-87.3749 164.7959,-87.3749"/>
<polygon fill="#000000" stroke="#000000" points="164.8877,-90.875 174.8877,-87.3749 164.8876,-83.875 164.8877,-90.875"/>
<text text-anchor="middle" x="154.0957" y="-91.5749" font-family="Times,serif" font-size="14.00" fill="#000000">a</text>
</g>
<!-- q5q10 -->
<g id="node2" class="node">
<title>q5q10</title>
<ellipse fill="none" stroke="#000000" cx="318.0827" cy="-141.3749" rx="35.3402" ry="35.3402"/>
<ellipse fill="none" stroke="#000000" cx="318.0827" cy="-141.3749" rx="39.3586" ry="39.3586"/>
<text text-anchor="middle" x="318.0827" y="-137.1749" font-family="Times,serif" font-size="14.00" fill="#000000">q5q10</text>
</g>
<!-- q5q10&#45;&gt;q0q9 -->
<g id="edge9" class="edge">
<title>q5q10&#45;&gt;q0q9</title>
<path fill="none" stroke="#000000" d="M287.2416,-116.9345C279.0273,-111.2738 269.9204,-105.7058 260.9038,-101.5749 255.9433,-99.3023 250.5594,-97.3507 245.163,-95.6872"/>
<polygon fill="#000000" stroke="#000000" points="246.0975,-92.3143 235.5247,-92.9967 244.2154,-99.0566 246.0975,-92.3143"/>
<text text-anchor="middle" x="257.4038" y="-106.5749" font-family="Times,serif" font-size="14.00" fill="#000000">a</text>
</g>
<!-- q5 -->
<g id="node3" class="node">
<title>q5</title>
<ellipse fill="none" stroke="#000000" cx="509.3419" cy="-47.3749" rx="20.8568" ry="20.8568"/>
<ellipse fill="none" stroke="#000000" cx="509.3419" cy="-47.3749" rx="24.8884" ry="24.8884"/>
<text text-anchor="middle" x="509.3419" y="-43.1749" font-family="Times,serif" font-size="14.00" fill="#000000">q5</text>
</g>
<!-- q5&#45;&gt;q0q9 -->
<g id="edge8" class="edge">
<title>q5&#45;&gt;q0q9</title>
<path fill="none" stroke="#000000" d="M485.0295,-52.8933C479.0398,-54.1441 472.6281,-55.3917 466.6485,-56.3749 388.9012,-69.1588 297.2986,-78.7966 245.8697,-83.7191"/>
<polygon fill="#000000" stroke="#000000" points="245.456,-80.2426 235.8301,-84.6689 246.1153,-87.2114 245.456,-80.2426"/>
<text text-anchor="middle" x="378.7615" y="-74.5749" font-family="Times,serif" font-size="14.00" fill="#000000">a</text>
</g>
<!-- q7 -->
<g id="node4" class="node">
<title>q7</title>
<ellipse fill="none" stroke="#000000" cx="20.6935" cy="-87.3749" rx="20.8887" ry="20.8887"/>
<text text-anchor="middle" x="20.6935" y="-83.1749" font-family="Times,serif" font-size="14.00" fill="#000000">q7</text>
</g>
<!-- q7&#45;&gt;q6 -->
<g id="edge1" class="edge">
<title>q7&#45;&gt;q6</title>
<path fill="none" stroke="#000000" d="M41.4538,-87.3749C50.9626,-87.3749 62.4967,-87.3749 73.288,-87.3749"/>
<polygon fill="#000000" stroke="#000000" points="73.3165,-90.875 83.3164,-87.3749 73.3164,-83.875 73.3165,-90.875"/>
<text text-anchor="middle" x="62.4942" y="-91.5749" font-family="Times,serif" font-size="14.00" fill="#000000">a</text>
</g>
<!-- q0q9&#45;&gt;q5q10 -->
<g id="edge4" class="edge">
<title>q0q9&#45;&gt;q5q10</title>
<path fill="none" stroke="#000000" d="M229.1263,-106.8815C236.6989,-112.4625 245.3494,-118.1664 253.9038,-122.3749 259.1139,-124.9381 264.7352,-127.2246 270.4088,-129.2447"/>
<polygon fill="#000000" stroke="#000000" points="269.3496,-132.5808 279.9428,-132.3947 271.5457,-125.9341 269.3496,-132.5808"/>
<text text-anchor="middle" x="257.4038" y="-129.5749" font-family="Times,serif" font-size="14.00" fill="#000000">b</text>
</g>
<!-- q2 -->
<g id="node6" class="node">
<title>q2</title>
<ellipse fill="none" stroke="#000000" cx="318.0827" cy="-22.3749" rx="20.8887" ry="20.8887"/>
<text text-anchor="middle" x="318.0827" y="-18.1749" font-family="Times,serif" font-size="14.00" fill="#000000">q2</text>
</g>
<!-- q0q9&#45;&gt;q2 -->
<g id="edge3" class="edge">
<title>q0q9&#45;&gt;q2</title>
<path fill="none" stroke="#000000" d="M225.3144,-63.8858C233.423,-55.5016 243.3765,-46.6405 253.9038,-40.5749 264.094,-34.7036 276.2982,-30.6265 287.3153,-27.844"/>
<polygon fill="#000000" stroke="#000000" points="288.4304,-31.1801 297.4097,-25.5567 286.8835,-24.3532 288.4304,-31.1801"/>
<text text-anchor="middle" x="257.4038" y="-45.5749" font-family="Times,serif" font-size="14.00" fill="#000000">a</text>
</g>
<!-- q3 -->
<g id="node7" class="node">
<title>q3</title>
<ellipse fill="none" stroke="#000000" cx="420.955" cy="-22.3749" rx="20.8887" ry="20.8887"/>
<text text-anchor="middle" x="420.955" y="-18.1749" font-family="Times,serif" font-size="14.00" fill="#000000">q3</text>
</g>
<!-- q2&#45;&gt;q3 -->
<g id="edge5" class="edge">
<title>q2&#45;&gt;q3</title>
<path fill="none" stroke="#000000" d="M338.9004,-22.3749C353.5413,-22.3749 373.3858,-22.3749 389.8918,-22.3749"/>
<polygon fill="#000000" stroke="#000000" points="390.1682,-25.875 400.1682,-22.3749 390.1682,-18.875 390.1682,-25.875"/>
<text text-anchor="middle" x="378.7615" y="-26.5749" font-family="Times,serif" font-size="14.00" fill="#000000">b</text>
</g>
<!-- q3&#45;&gt;q5 -->
<g id="edge7" class="edge">
<title>q3&#45;&gt;q5</title>
<path fill="none" stroke="#000000" d="M441.0114,-28.0478C451.1749,-30.9225 463.7954,-34.4922 475.4139,-37.7785"/>
<polygon fill="#000000" stroke="#000000" points="474.7041,-41.2149 485.2792,-40.5688 476.6093,-34.4792 474.7041,-41.2149"/>
<text text-anchor="middle" x="463.1485" y="-39.5749" font-family="Times,serif" font-size="14.00" fill="#000000">b</text>
</g>
<!-- q3&#45;&gt;q2 -->
<g id="edge6" class="edge">
<title>q3&#45;&gt;q2</title>
<path fill="none" stroke="#000000" d="M403.6006,-10.691C397.1795,-7.0179 389.6575,-3.4368 382.2615,-1.5749 369.7496,1.5749 356.1223,-1.8372 344.6561,-6.7474"/>
<polygon fill="#000000" stroke="#000000" points="343.0913,-3.6162 335.6048,-11.113 346.1324,-9.9212 343.0913,-3.6162"/>
<text text-anchor="middle" x="378.7615" y="-6.5749" font-family="Times,serif" font-size="14.00" fill="#000000">a</text>
</g>
</g>
</svg>
