<?xml version="1.0" encoding="UTF-8" standalone="no"?>
<!DOCTYPE svg PUBLIC "-//W3C//DTD SVG 1.1//EN"
 "http://www.w3.org/Graphics/SVG/1.1/DTD/svg11.dtd">
<!-- Generated by graphviz version 2.40.1 (20161225.0304)
 -->
<!-- Title: %0 Pages: 1 -->
<svg width="288pt" height="52pt"
 viewBox="0.00 0.00 288.21 52.20" xmlns="http://www.w3.org/2000/svg" xmlns:xlink="http://www.w3.org/1999/xlink">
<g id="graph0" class="graph" transform="scale(1 1) rotate(0) translate(4 48.196)">
<title>%0</title>
<polygon fill="#ffffff" stroke="transparent" points="-4,4 -4,-48.196 284.2146,-48.196 284.2146,4 -4,4"/>
<!-- 1 -->
<g id="node1" class="node">
<title>1</title>
<ellipse fill="none" stroke="#000000" cx="100.2146" cy="-22.196" rx="18" ry="18"/>
<ellipse fill="none" stroke="#000000" cx="100.2146" cy="-22.196" rx="22" ry="22"/>
<text text-anchor="middle" x="100.2146" y="-17.996" font-family="Times,serif" font-size="14.00" fill="#000000">1</text>
</g>
<!-- 2 -->
<g id="node3" class="node">
<title>2</title>
<ellipse fill="none" stroke="#000000" cx="183.2146" cy="-22.196" rx="18" ry="18"/>
<text text-anchor="middle" x="183.2146" y="-17.996" font-family="Times,serif" font-size="14.00" fill="#000000">2</text>
</g>
<!-- 1&#45;&gt;2 -->
<g id="edge2" class="edge">
<title>1&#45;&gt;2</title>
<path fill="none" stroke="#000000" d="M122.4571,-22.196C132.469,-22.196 144.4023,-22.196 155.0318,-22.196"/>
<polygon fill="#000000" stroke="#000000" points="155.1073,-25.6961 165.1073,-22.196 155.1072,-18.6961 155.1073,-25.6961"/>
<text text-anchor="middle" x="143.7146" y="-26.396" font-family="Times,serif" font-size="14.00" fill="#000000">a</text>
</g>
<!-- 0 -->
<g id="node2" class="node">
<title>0</title>
<ellipse fill="none" stroke="#000000" cx="18" cy="-22.196" rx="18" ry="18"/>
<text text-anchor="middle" x="18" y="-17.996" font-family="Times,serif" font-size="14.00" fill="#000000">0</text>
</g>
<!-- 0&#45;&gt;1 -->
<g id="edge1" class="edge">
<title>0&#45;&gt;1</title>
<path fill="none" stroke="#000000" d="M36.2461,-22.196C45.4709,-22.196 56.9479,-22.196 67.6234,-22.196"/>
<polygon fill="#000000" stroke="#000000" points="67.9188,-25.696 77.9187,-22.196 67.9187,-18.696 67.9188,-25.696"/>
<text text-anchor="middle" x="57.1073" y="-26.396" font-family="Times,serif" font-size="14.00" fill="#000000">a</text>
</g>
<!-- 2&#45;&gt;1 -->
<g id="edge5" class="edge">
<title>2&#45;&gt;1</title>
<path fill="none" stroke="#000000" d="M168.5801,-11.4026C162.3281,-7.4322 154.7443,-3.4148 147.2146,-1.396 140.3816,.4361 133.2731,-.8615 126.7152,-3.526"/>
<polygon fill="#000000" stroke="#000000" points="124.8977,-.5246 117.597,-8.2026 128.0923,-6.7532 124.8977,-.5246"/>
<text text-anchor="middle" x="143.7146" y="-6.396" font-family="Times,serif" font-size="14.00" fill="#000000">b</text>
</g>
<!-- 3 -->
<g id="node4" class="node">
<title>3</title>
<ellipse fill="none" stroke="#000000" cx="262.2146" cy="-22.196" rx="18" ry="18"/>
<text text-anchor="middle" x="262.2146" y="-17.996" font-family="Times,serif" font-size="14.00" fill="#000000">3</text>
</g>
<!-- 2&#45;&gt;3 -->
<g id="edge3" class="edge">
<title>2&#45;&gt;3</title>
<path fill="none" stroke="#000000" d="M201.5374,-22.196C211.1093,-22.196 223.0369,-22.196 233.7775,-22.196"/>
<polygon fill="#000000" stroke="#000000" points="233.9912,-25.696 243.9912,-22.196 233.9912,-18.696 233.9912,-25.696"/>
<text text-anchor="middle" x="222.7146" y="-26.396" font-family="Times,serif" font-size="14.00" fill="#000000">b</text>
</g>
<!-- 3&#45;&gt;2 -->
<g id="edge4" class="edge">
<title>3&#45;&gt;2</title>
<path fill="none" stroke="#000000" d="M248.786,-10.0107C240.5533,-4.0114 229.6274,1.396 219.2146,-1.396 214.9791,-2.5316 210.7266,-4.2995 206.7035,-6.3358"/>
<polygon fill="#000000" stroke="#000000" points="204.7902,-3.3981 197.8491,-11.4026 208.2669,-9.4737 204.7902,-3.3981"/>
<text text-anchor="middle" x="222.7146" y="-6.396" font-family="Times,serif" font-size="14.00" fill="#000000">a</text>
</g>
</g>
</svg>
