<?xml version="1.0" encoding="UTF-8" standalone="no"?>
<!DOCTYPE svg PUBLIC "-//W3C//DTD SVG 1.1//EN"
 "http://www.w3.org/Graphics/SVG/1.1/DTD/svg11.dtd">
<!-- Generated by graphviz version 2.40.1 (20161225.0304)
 -->
<!-- Title: %0 Pages: 1 -->
<svg width="599pt" height="227pt"
 viewBox="0.00 0.00 599.22 227.22" xmlns="http://www.w3.org/2000/svg" xmlns:xlink="http://www.w3.org/1999/xlink">
<g id="graph0" class="graph" transform="scale(1 1) rotate(0) translate(4 223.2154)">
<title>%0</title>
<polygon fill="#ffffff" stroke="transparent" points="-4,4 -4,-223.2154 595.2223,-223.2154 595.2223,4 -4,4"/>
<!-- q6 -->
<g id="node1" class="node">
<title>q6</title>
<ellipse fill="none" stroke="#000000" cx="108.295" cy="-77.6935" rx="20.8568" ry="20.8568"/>
<ellipse fill="none" stroke="#000000" cx="108.295" cy="-77.6935" rx="24.8884" ry="24.8884"/>
<text text-anchor="middle" x="108.295" y="-73.4935" font-family="Times,serif" font-size="14.00" fill="#000000">q6</text>
</g>
<!-- q8 -->
<g id="node2" class="node">
<title>q8</title>
<ellipse fill="none" stroke="#000000" cx="205.3425" cy="-142.6935" rx="20.8568" ry="20.8568"/>
<ellipse fill="none" stroke="#000000" cx="205.3425" cy="-142.6935" rx="24.8884" ry="24.8884"/>
<text text-anchor="middle" x="205.3425" y="-138.4935" font-family="Times,serif" font-size="14.00" fill="#000000">q8</text>
</g>
<!-- q6&#45;&gt;q8 -->
<g id="edge10" class="edge">
<title>q6&#45;&gt;q8</title>
<path fill="none" stroke="#000000" d="M128.8762,-91.4783C142.6435,-100.6993 160.9632,-112.9693 176.2196,-123.1877"/>
<polygon fill="#000000" stroke="#000000" points="174.5346,-126.2716 184.7909,-128.9285 178.43,-120.4556 174.5346,-126.2716"/>
<text text-anchor="middle" x="156.8187" y="-118.8935" font-family="Times,serif" font-size="14.00" fill="#000000">λ</text>
</g>
<!-- q4 -->
<g id="node7" class="node">
<title>q4</title>
<ellipse fill="none" stroke="#000000" cx="205.3425" cy="-77.6935" rx="20.8887" ry="20.8887"/>
<text text-anchor="middle" x="205.3425" y="-73.4935" font-family="Times,serif" font-size="14.00" fill="#000000">q4</text>
</g>
<!-- q6&#45;&gt;q4 -->
<g id="edge8" class="edge">
<title>q6&#45;&gt;q4</title>
<path fill="none" stroke="#000000" d="M133.0352,-77.6935C145.6198,-77.6935 161.0399,-77.6935 174.4027,-77.6935"/>
<polygon fill="#000000" stroke="#000000" points="174.5848,-81.1936 184.5847,-77.6935 174.5847,-74.1936 174.5848,-81.1936"/>
<text text-anchor="middle" x="156.8187" y="-81.8935" font-family="Times,serif" font-size="14.00" fill="#000000">λ</text>
</g>
<!-- q9 -->
<g id="node10" class="node">
<title>q9</title>
<ellipse fill="none" stroke="#000000" cx="298.39" cy="-197.6935" rx="20.8887" ry="20.8887"/>
<text text-anchor="middle" x="298.39" y="-193.4935" font-family="Times,serif" font-size="14.00" fill="#000000">q9</text>
</g>
<!-- q8&#45;&gt;q9 -->
<g id="edge11" class="edge">
<title>q8&#45;&gt;q9</title>
<path fill="none" stroke="#000000" d="M226.9233,-155.4498C240.2231,-163.3113 257.3841,-173.4551 271.556,-181.832"/>
<polygon fill="#000000" stroke="#000000" points="269.9772,-184.9645 280.3668,-187.04 273.5392,-178.9385 269.9772,-184.9645"/>
<text text-anchor="middle" x="253.8662" y="-176.8935" font-family="Times,serif" font-size="14.00" fill="#000000">a</text>
</g>
<!-- q0 -->
<g id="node3" class="node">
<title>q0</title>
<ellipse fill="none" stroke="#000000" cx="298.39" cy="-77.6935" rx="20.8887" ry="20.8887"/>
<text text-anchor="middle" x="298.39" y="-73.4935" font-family="Times,serif" font-size="14.00" fill="#000000">q0</text>
</g>
<!-- q1 -->
<g id="node4" class="node">
<title>q1</title>
<ellipse fill="none" stroke="#000000" cx="392.2659" cy="-126.6935" rx="20.8887" ry="20.8887"/>
<text text-anchor="middle" x="392.2659" y="-122.4935" font-family="Times,serif" font-size="14.00" fill="#000000">q1</text>
</g>
<!-- q0&#45;&gt;q1 -->
<g id="edge1" class="edge">
<title>q0&#45;&gt;q1</title>
<path fill="none" stroke="#000000" d="M316.9368,-87.3743C330.5659,-94.4882 349.3104,-104.2722 364.6913,-112.3004"/>
<polygon fill="#000000" stroke="#000000" points="363.273,-115.5082 373.7576,-117.0327 366.5121,-109.3027 363.273,-115.5082"/>
<text text-anchor="middle" x="342.9137" y="-107.8935" font-family="Times,serif" font-size="14.00" fill="#000000">λ</text>
</g>
<!-- q5 -->
<g id="node8" class="node">
<title>q5</title>
<ellipse fill="none" stroke="#000000" cx="392.2659" cy="-20.6935" rx="20.8887" ry="20.8887"/>
<text text-anchor="middle" x="392.2659" y="-16.4935" font-family="Times,serif" font-size="14.00" fill="#000000">q5</text>
</g>
<!-- q0&#45;&gt;q5 -->
<g id="edge6" class="edge">
<title>q0&#45;&gt;q5</title>
<path fill="none" stroke="#000000" d="M313.9719,-63.9444C320.7995,-58.2822 329.0704,-51.8926 337.0834,-46.8935 345.4753,-41.658 355.0768,-36.7598 363.8927,-32.6481"/>
<polygon fill="#000000" stroke="#000000" points="365.3787,-35.8174 373.0562,-28.5163 362.5014,-29.4361 365.3787,-35.8174"/>
<text text-anchor="middle" x="342.9137" y="-51.8935" font-family="Times,serif" font-size="14.00" fill="#000000">b</text>
</g>
<!-- q2 -->
<g id="node5" class="node">
<title>q2</title>
<ellipse fill="none" stroke="#000000" cx="486.1419" cy="-126.6935" rx="20.8887" ry="20.8887"/>
<text text-anchor="middle" x="486.1419" y="-122.4935" font-family="Times,serif" font-size="14.00" fill="#000000">q2</text>
</g>
<!-- q1&#45;&gt;q2 -->
<g id="edge2" class="edge">
<title>q1&#45;&gt;q2</title>
<path fill="none" stroke="#000000" d="M413.1001,-126.6935C425.4969,-126.6935 441.4559,-126.6935 455.2927,-126.6935"/>
<polygon fill="#000000" stroke="#000000" points="455.3661,-130.1936 465.366,-126.6935 455.366,-123.1936 455.3661,-130.1936"/>
<text text-anchor="middle" x="441.6182" y="-130.8935" font-family="Times,serif" font-size="14.00" fill="#000000">a</text>
</g>
<!-- q3 -->
<g id="node6" class="node">
<title>q3</title>
<ellipse fill="none" stroke="#000000" cx="570.5288" cy="-93.6935" rx="20.8887" ry="20.8887"/>
<text text-anchor="middle" x="570.5288" y="-89.4935" font-family="Times,serif" font-size="14.00" fill="#000000">q3</text>
</g>
<!-- q2&#45;&gt;q3 -->
<g id="edge3" class="edge">
<title>q2&#45;&gt;q3</title>
<path fill="none" stroke="#000000" d="M505.7141,-119.0396C516.3648,-114.8746 529.7458,-109.6419 541.5799,-105.0141"/>
<polygon fill="#000000" stroke="#000000" points="543.0243,-108.2074 551.0628,-101.3058 540.4749,-101.6882 543.0243,-108.2074"/>
<text text-anchor="middle" x="528.3354" y="-115.8935" font-family="Times,serif" font-size="14.00" fill="#000000">b</text>
</g>
<!-- q3&#45;&gt;q0 -->
<g id="edge4" class="edge">
<title>q3&#45;&gt;q0</title>
<path fill="none" stroke="#000000" d="M549.5552,-92.4603C501.8973,-89.6584 385.2683,-82.8013 329.3191,-79.5119"/>
<polygon fill="#000000" stroke="#000000" points="329.4806,-76.0154 319.2924,-78.9224 329.0697,-83.0034 329.4806,-76.0154"/>
<text text-anchor="middle" x="441.6182" y="-90.8935" font-family="Times,serif" font-size="14.00" fill="#000000">λ</text>
</g>
<!-- q4&#45;&gt;q0 -->
<g id="edge5" class="edge">
<title>q4&#45;&gt;q0</title>
<path fill="none" stroke="#000000" d="M226.4564,-77.6935C238.5567,-77.6935 253.965,-77.6935 267.4145,-77.6935"/>
<polygon fill="#000000" stroke="#000000" points="267.6802,-81.1936 277.6801,-77.6935 267.6801,-74.1936 267.6802,-81.1936"/>
<text text-anchor="middle" x="253.8662" y="-81.8935" font-family="Times,serif" font-size="14.00" fill="#000000">a</text>
</g>
<!-- q5&#45;&gt;q6 -->
<g id="edge7" class="edge">
<title>q5&#45;&gt;q6</title>
<path fill="none" stroke="#000000" d="M371.4878,-21.5145C333.1625,-23.4294 249.0123,-29.509 180.649,-47.6935 166.9614,-51.3343 152.4345,-56.9786 140.0171,-62.3934"/>
<polygon fill="#000000" stroke="#000000" points="138.2512,-59.3499 130.5671,-66.6441 141.1228,-65.7338 138.2512,-59.3499"/>
<text text-anchor="middle" x="253.8662" y="-38.8935" font-family="Times,serif" font-size="14.00" fill="#000000">λ</text>
</g>
<!-- q7 -->
<g id="node9" class="node">
<title>q7</title>
<ellipse fill="none" stroke="#000000" cx="20.6935" cy="-77.6935" rx="20.8887" ry="20.8887"/>
<text text-anchor="middle" x="20.6935" y="-73.4935" font-family="Times,serif" font-size="14.00" fill="#000000">q7</text>
</g>
<!-- q7&#45;&gt;q6 -->
<g id="edge9" class="edge">
<title>q7&#45;&gt;q6</title>
<path fill="none" stroke="#000000" d="M41.4538,-77.6935C50.9626,-77.6935 62.4967,-77.6935 73.288,-77.6935"/>
<polygon fill="#000000" stroke="#000000" points="73.3165,-81.1936 83.3164,-77.6935 73.3164,-74.1936 73.3165,-81.1936"/>
<text text-anchor="middle" x="62.4942" y="-81.8935" font-family="Times,serif" font-size="14.00" fill="#000000">a</text>
</g>
<!-- q10 -->
<g id="node11" class="node">
<title>q10</title>
<ellipse fill="none" stroke="#000000" cx="392.2659" cy="-193.6935" rx="25.5439" ry="25.5439"/>
<text text-anchor="middle" x="392.2659" y="-189.4935" font-family="Times,serif" font-size="14.00" fill="#000000">q10</text>
</g>
<!-- q9&#45;&gt;q10 -->
<g id="edge12" class="edge">
<title>q9&#45;&gt;q10</title>
<path fill="none" stroke="#000000" d="M319.2241,-196.8057C330.1119,-196.3418 343.7472,-195.7608 356.2795,-195.2268"/>
<polygon fill="#000000" stroke="#000000" points="356.6207,-198.7155 366.4626,-194.7929 356.3226,-191.7219 356.6207,-198.7155"/>
<text text-anchor="middle" x="342.9137" y="-199.8935" font-family="Times,serif" font-size="14.00" fill="#000000">b</text>
</g>
<!-- q10&#45;&gt;q8 -->
<g id="edge13" class="edge">
<title>q10&#45;&gt;q8</title>
<path fill="none" stroke="#000000" d="M371.704,-178.2038C357.6623,-168.529 338.2032,-156.8201 319.0834,-150.8935 293.6166,-142.9994 263.4672,-141.1416 240.6096,-141.1537"/>
<polygon fill="#000000" stroke="#000000" points="240.3008,-137.6573 230.3459,-141.2837 240.3895,-144.6567 240.3008,-137.6573"/>
<text text-anchor="middle" x="298.39" y="-154.8935" font-family="Times,serif" font-size="14.00" fill="#000000">λ</text>
</g>
</g>
</svg>
