<?xml version="1.0" encoding="UTF-8" standalone="no"?>
<!DOCTYPE svg PUBLIC "-//W3C//DTD SVG 1.1//EN"
 "http://www.w3.org/Graphics/SVG/1.1/DTD/svg11.dtd">
<!-- Generated by graphviz version 2.40.1 (20161225.0304)
 -->
<!-- Title: %0 Pages: 1 -->
<svg width="408pt" height="279pt"
 viewBox="0.00 0.00 408.42 278.55" xmlns="http://www.w3.org/2000/svg" xmlns:xlink="http://www.w3.org/1999/xlink">
<g id="graph0" class="graph" transform="scale(1 1) rotate(0) translate(4 274.5498)">
<title>%0</title>
<polygon fill="#ffffff" stroke="transparent" points="-4,4 -4,-274.5498 404.4177,-274.5498 404.4177,4 -4,4"/>
<!-- start -->
<g id="node1" class="node">
<title>start</title>
<ellipse fill="#000000" stroke="#000000" cx="1.8" cy="-45.8563" rx="1.8" ry="1.8"/>
</g>
<!-- 0 -->
<g id="node2" class="node">
<title>0</title>
<ellipse fill="none" stroke="#000000" cx="62.6" cy="-45.8563" rx="18" ry="18"/>
<ellipse fill="none" stroke="#000000" cx="62.6" cy="-45.8563" rx="22" ry="22"/>
<text text-anchor="middle" x="62.6" y="-41.6563" font-family="Times,serif" font-size="14.00" fill="#000000">0</text>
</g>
<!-- start&#45;&gt;0 -->
<g id="edge1" class="edge">
<title>start&#45;&gt;0</title>
<path fill="none" stroke="#000000" d="M3.8229,-45.8563C8.2086,-45.8563 19.1055,-45.8563 30.3421,-45.8563"/>
<polygon fill="#000000" stroke="#000000" points="30.58,-49.3564 40.58,-45.8563 30.5799,-42.3564 30.58,-49.3564"/>
</g>
<!-- 01 -->
<g id="node3" class="node">
<title>01</title>
<ellipse fill="none" stroke="#000000" cx="152.2935" cy="-173.8563" rx="20.8568" ry="20.8568"/>
<ellipse fill="none" stroke="#000000" cx="152.2935" cy="-173.8563" rx="24.8884" ry="24.8884"/>
<text text-anchor="middle" x="152.2935" y="-169.6563" font-family="Times,serif" font-size="14.00" fill="#000000">01</text>
</g>
<!-- 0&#45;&gt;01 -->
<g id="edge2" class="edge">
<title>0&#45;&gt;01</title>
<path fill="none" stroke="#000000" d="M75.2606,-63.9241C90.0337,-85.0066 114.6554,-120.1437 132.0817,-145.0125"/>
<polygon fill="#000000" stroke="#000000" points="129.3126,-147.1599 137.9176,-153.3408 135.0453,-143.1428 129.3126,-147.1599"/>
<text text-anchor="middle" x="106.1" y="-114.0563" font-family="Times,serif" font-size="14.00" fill="#000000">a</text>
</g>
<!-- 1 -->
<g id="node6" class="node">
<title>1</title>
<ellipse fill="none" stroke="#000000" cx="212.9869" cy="-45.8563" rx="18" ry="18"/>
<text text-anchor="middle" x="212.9869" y="-41.6563" font-family="Times,serif" font-size="14.00" fill="#000000">1</text>
</g>
<!-- 0&#45;&gt;1 -->
<g id="edge3" class="edge">
<title>0&#45;&gt;1</title>
<path fill="none" stroke="#000000" d="M84.7901,-45.8563C111.3064,-45.8563 155.7147,-45.8563 184.679,-45.8563"/>
<polygon fill="#000000" stroke="#000000" points="184.9542,-49.3564 194.9541,-45.8563 184.9541,-42.3564 184.9542,-49.3564"/>
<text text-anchor="middle" x="106.1" y="-50.0563" font-family="Times,serif" font-size="14.00" fill="#000000">b</text>
</g>
<!-- 012 -->
<g id="node4" class="node">
<title>012</title>
<ellipse fill="none" stroke="#000000" cx="278.5088" cy="-109.8563" rx="25.5409" ry="25.5409"/>
<ellipse fill="none" stroke="#000000" cx="278.5088" cy="-109.8563" rx="29.5439" ry="29.5439"/>
<text text-anchor="middle" x="278.5088" y="-105.6563" font-family="Times,serif" font-size="14.00" fill="#000000">012</text>
</g>
<!-- 01&#45;&gt;012 -->
<g id="edge5" class="edge">
<title>01&#45;&gt;012</title>
<path fill="none" stroke="#000000" d="M174.5677,-162.5617C193.5162,-152.9535 221.0719,-138.9809 243.0506,-127.8361"/>
<polygon fill="#000000" stroke="#000000" points="244.7512,-130.8981 252.0872,-123.2539 241.5854,-124.6549 244.7512,-130.8981"/>
<text text-anchor="middle" x="212.9869" y="-155.0563" font-family="Times,serif" font-size="14.00" fill="#000000">a</text>
</g>
<!-- 12 -->
<g id="node8" class="node">
<title>12</title>
<ellipse fill="none" stroke="#000000" cx="278.5088" cy="-211.8563" rx="20.8887" ry="20.8887"/>
<text text-anchor="middle" x="278.5088" y="-207.6563" font-family="Times,serif" font-size="14.00" fill="#000000">12</text>
</g>
<!-- 01&#45;&gt;12 -->
<g id="edge6" class="edge">
<title>01&#45;&gt;12</title>
<path fill="none" stroke="#000000" d="M176.0336,-181.0038C196.7166,-187.2309 226.7929,-196.2861 249.0159,-202.9768"/>
<polygon fill="#000000" stroke="#000000" points="248.0274,-206.3343 258.6119,-205.8659 250.0455,-199.6315 248.0274,-206.3343"/>
<text text-anchor="middle" x="212.9869" y="-201.0563" font-family="Times,serif" font-size="14.00" fill="#000000">b</text>
</g>
<!-- 012&#45;&gt;012 -->
<g id="edge7" class="edge">
<title>012&#45;&gt;012</title>
<path fill="none" stroke="#000000" d="M269.1544,-138.1528C268.8477,-148.698 271.9659,-157.3783 278.5088,-157.3783 282.7004,-157.3783 285.4865,-153.8159 286.8669,-148.483"/>
<polygon fill="#000000" stroke="#000000" points="290.387,-148.4427 287.8632,-138.1528 283.4193,-147.7706 290.387,-148.4427"/>
<text text-anchor="middle" x="278.5088" y="-161.5783" font-family="Times,serif" font-size="14.00" fill="#000000">a,b</text>
</g>
<!-- 02 -->
<g id="node5" class="node">
<title>02</title>
<ellipse fill="none" stroke="#000000" cx="375.7242" cy="-245.8563" rx="20.8568" ry="20.8568"/>
<ellipse fill="none" stroke="#000000" cx="375.7242" cy="-245.8563" rx="24.8884" ry="24.8884"/>
<text text-anchor="middle" x="375.7242" y="-241.6563" font-family="Times,serif" font-size="14.00" fill="#000000">02</text>
</g>
<!-- 02&#45;&gt;01 -->
<g id="edge11" class="edge">
<title>02&#45;&gt;01</title>
<path fill="none" stroke="#000000" d="M350.9528,-249.9341C345.0932,-250.733 338.8548,-251.4491 333.0308,-251.8563 295.5061,-254.4802 285.2035,-252.022 248.9869,-241.8563 223.7005,-234.7587 216.5237,-232.8878 194.9869,-217.8563 187.9907,-212.9734 181.1901,-206.8345 175.1485,-200.705"/>
<polygon fill="#000000" stroke="#000000" points="177.3436,-197.93 167.9441,-193.0412 172.2433,-202.7245 177.3436,-197.93"/>
<text text-anchor="middle" x="278.5088" y="-256.0563" font-family="Times,serif" font-size="14.00" fill="#000000">a,b</text>
</g>
<!-- 2 -->
<g id="node7" class="node">
<title>2</title>
<ellipse fill="none" stroke="#000000" cx="375.7242" cy="-45.8563" rx="18" ry="18"/>
<text text-anchor="middle" x="375.7242" y="-41.6563" font-family="Times,serif" font-size="14.00" fill="#000000">2</text>
</g>
<!-- 1&#45;&gt;2 -->
<g id="edge4" class="edge">
<title>1&#45;&gt;2</title>
<path fill="none" stroke="#000000" d="M231.0244,-45.8563C259.2511,-45.8563 314.0873,-45.8563 347.5524,-45.8563"/>
<polygon fill="#000000" stroke="#000000" points="347.6059,-49.3564 357.6059,-45.8563 347.6059,-42.3564 347.6059,-49.3564"/>
<text text-anchor="middle" x="278.5088" y="-50.0563" font-family="Times,serif" font-size="14.00" fill="#000000">a,b</text>
</g>
<!-- 2&#45;&gt;0 -->
<g id="edge10" class="edge">
<title>2&#45;&gt;0</title>
<path fill="none" stroke="#000000" d="M359.4513,-37.4031C327.9923,-22.0723 256.5059,7.8562 194.9869,-2.0563 158.5344,-7.9299 118.5274,-22.3511 92.1394,-33.0504"/>
<polygon fill="#000000" stroke="#000000" points="90.6313,-29.8866 82.7285,-36.9433 93.307,-36.355 90.6313,-29.8866"/>
<text text-anchor="middle" x="212.9869" y="-7.0563" font-family="Times,serif" font-size="14.00" fill="#000000">b</text>
</g>
<!-- 12&#45;&gt;02 -->
<g id="edge9" class="edge">
<title>12&#45;&gt;02</title>
<path fill="none" stroke="#000000" d="M298.1818,-218.7367C310.8941,-223.1827 327.7576,-229.0805 342.5112,-234.2404"/>
<polygon fill="#000000" stroke="#000000" points="341.7163,-237.6703 352.3111,-237.6679 344.0272,-231.0627 341.7163,-237.6703"/>
<text text-anchor="middle" x="329.5308" y="-235.0563" font-family="Times,serif" font-size="14.00" fill="#000000">b</text>
</g>
<!-- 12&#45;&gt;2 -->
<g id="edge8" class="edge">
<title>12&#45;&gt;2</title>
<path fill="none" stroke="#000000" d="M294.2551,-198.2867C299.0382,-193.6898 304.0704,-188.3267 308.0308,-182.8563 333.6372,-147.486 354.2996,-100.9652 365.7903,-72.2536"/>
<polygon fill="#000000" stroke="#000000" points="369.0705,-73.4756 369.4652,-62.8881 362.5542,-70.9186 369.0705,-73.4756"/>
<text text-anchor="middle" x="329.5308" y="-158.0563" font-family="Times,serif" font-size="14.00" fill="#000000">a</text>
</g>
</g>
</svg>
