<?xml version="1.0" encoding="UTF-8" standalone="no"?>
<!DOCTYPE svg PUBLIC "-//W3C//DTD SVG 1.1//EN"
 "http://www.w3.org/Graphics/SVG/1.1/DTD/svg11.dtd">
<!-- Generated by graphviz version 2.40.1 (20161225.0304)
 -->
<!-- Title: %0 Pages: 1 -->
<svg width="270pt" height="87pt"
 viewBox="0.00 0.00 270.03 86.80" xmlns="http://www.w3.org/2000/svg" xmlns:xlink="http://www.w3.org/1999/xlink">
<g id="graph0" class="graph" transform="scale(1 1) rotate(0) translate(4 82.8)">
<title>%0</title>
<polygon fill="#ffffff" stroke="transparent" points="-4,4 -4,-82.8 266.0292,-82.8 266.0292,4 -4,4"/>
<!-- start -->
<g id="node1" class="node">
<title>start</title>
<ellipse fill="#000000" stroke="#000000" cx="1.8" cy="-22" rx="1.8" ry="1.8"/>
</g>
<!-- 0 -->
<g id="node2" class="node">
<title>0</title>
<ellipse fill="none" stroke="#000000" cx="62.6" cy="-22" rx="18" ry="18"/>
<ellipse fill="none" stroke="#000000" cx="62.6" cy="-22" rx="22" ry="22"/>
<text text-anchor="middle" x="62.6" y="-17.8" font-family="Times,serif" font-size="14.00" fill="#000000">0</text>
</g>
<!-- start&#45;&gt;0 -->
<g id="edge1" class="edge">
<title>start&#45;&gt;0</title>
<path fill="none" stroke="#000000" d="M3.8229,-22C8.2086,-22 19.1055,-22 30.3421,-22"/>
<polygon fill="#000000" stroke="#000000" points="30.58,-25.5001 40.58,-22 30.5799,-18.5001 30.58,-25.5001"/>
</g>
<!-- 0&#45;&gt;0 -->
<g id="edge3" class="edge">
<title>0&#45;&gt;0</title>
<path fill="none" stroke="#000000" d="M55.2831,-42.9908C54.3798,-53.0872 56.8188,-62 62.6,-62 66.3036,-62 68.6356,-58.3422 69.5958,-53.0587"/>
<polygon fill="#000000" stroke="#000000" points="73.0963,-53.0973 69.9169,-42.9908 66.0998,-52.8741 73.0963,-53.0973"/>
<text text-anchor="middle" x="62.6" y="-66.2" font-family="Times,serif" font-size="14.00" fill="#000000">a</text>
</g>
<!-- 1 -->
<g id="node3" class="node">
<title>1</title>
<ellipse fill="none" stroke="#000000" cx="155.3146" cy="-59" rx="18" ry="18"/>
<text text-anchor="middle" x="155.3146" y="-54.8" font-family="Times,serif" font-size="14.00" fill="#000000">1</text>
</g>
<!-- 0&#45;&gt;1 -->
<g id="edge2" class="edge">
<title>0&#45;&gt;1</title>
<path fill="none" stroke="#000000" d="M83.1764,-30.2115C96.7002,-35.6085 114.5163,-42.7185 129.0591,-48.5221"/>
<polygon fill="#000000" stroke="#000000" points="127.9262,-51.8384 138.5113,-52.2942 130.5208,-45.337 127.9262,-51.8384"/>
<text text-anchor="middle" x="110.9573" y="-47.2" font-family="Times,serif" font-size="14.00" fill="#000000">a,b</text>
</g>
<!-- 2 -->
<g id="node4" class="node">
<title>2</title>
<ellipse fill="none" stroke="#000000" cx="244.0292" cy="-22" rx="18" ry="18"/>
<text text-anchor="middle" x="244.0292" y="-17.8" font-family="Times,serif" font-size="14.00" fill="#000000">2</text>
</g>
<!-- 1&#45;&gt;2 -->
<g id="edge4" class="edge">
<title>1&#45;&gt;2</title>
<path fill="none" stroke="#000000" d="M172.0011,-52.0406C184.8064,-46.6999 202.7343,-39.2228 217.5003,-33.0644"/>
<polygon fill="#000000" stroke="#000000" points="219.2337,-36.1337 227.1159,-29.054 216.5391,-29.6731 219.2337,-36.1337"/>
<text text-anchor="middle" x="199.6719" y="-47.2" font-family="Times,serif" font-size="14.00" fill="#000000">a,b</text>
</g>
<!-- 2&#45;&gt;0 -->
<g id="edge5" class="edge">
<title>2&#45;&gt;0</title>
<path fill="none" stroke="#000000" d="M226.0434,-19.7904C211.7719,-18.1532 191.3008,-16.0628 173.3146,-15.2 146.8659,-13.9313 116.8893,-15.9871 94.8045,-18.1623"/>
<polygon fill="#000000" stroke="#000000" points="94.2281,-14.7034 84.6469,-19.2256 94.957,-21.6653 94.2281,-14.7034"/>
<text text-anchor="middle" x="155.3146" y="-20.2" font-family="Times,serif" font-size="14.00" fill="#000000">b</text>
</g>
</g>
</svg>
