<?xml version="1.0" encoding="UTF-8" standalone="no"?>
<!DOCTYPE svg PUBLIC "-//W3C//DTD SVG 1.1//EN"
 "http://www.w3.org/Graphics/SVG/1.1/DTD/svg11.dtd">
<!-- Generated by graphviz version 2.40.1 (20161225.0304)
 -->
<!-- Title: %0 Pages: 1 -->
<svg width="339pt" height="128pt"
 viewBox="0.00 0.00 339.31 128.44" xmlns="http://www.w3.org/2000/svg" xmlns:xlink="http://www.w3.org/1999/xlink">
<g id="graph0" class="graph" transform="scale(1 1) rotate(0) translate(4 124.4376)">
<title>%0</title>
<polygon fill="#ffffff" stroke="transparent" points="-4,4 -4,-124.4376 335.3146,-124.4376 335.3146,4 -4,4"/>
<!-- start -->
<g id="node1" class="node">
<title>start</title>
<ellipse fill="#000000" stroke="#000000" cx="1.8" cy="-44.4376" rx="1.8" ry="1.8"/>
</g>
<!-- 0 -->
<g id="node3" class="node">
<title>0</title>
<ellipse fill="none" stroke="#000000" cx="58.6" cy="-44.4376" rx="18" ry="18"/>
<text text-anchor="middle" x="58.6" y="-40.2376" font-family="Times,serif" font-size="14.00" fill="#000000">0</text>
</g>
<!-- start&#45;&gt;0 -->
<g id="edge1" class="edge">
<title>start&#45;&gt;0</title>
<path fill="none" stroke="#000000" d="M3.6898,-44.4376C8.0522,-44.4376 19.3107,-44.4376 30.5058,-44.4376"/>
<polygon fill="#000000" stroke="#000000" points="30.5696,-47.9377 40.5696,-44.4376 30.5696,-40.9377 30.5696,-47.9377"/>
</g>
<!-- 1 -->
<g id="node2" class="node">
<title>1</title>
<ellipse fill="none" stroke="#000000" cx="151.3146" cy="-44.4376" rx="18" ry="18"/>
<ellipse fill="none" stroke="#000000" cx="151.3146" cy="-44.4376" rx="22" ry="22"/>
<text text-anchor="middle" x="151.3146" y="-40.2376" font-family="Times,serif" font-size="14.00" fill="#000000">1</text>
</g>
<!-- 1&#45;&gt;1 -->
<g id="edge9" class="edge">
<title>1&#45;&gt;1</title>
<path fill="none" stroke="#000000" d="M143.6319,-65.4283C142.6834,-75.5248 145.2443,-84.4376 151.3146,-84.4376 155.2034,-84.4376 157.6519,-80.7798 158.6602,-75.4962"/>
<polygon fill="#000000" stroke="#000000" points="162.1606,-75.5399 158.9973,-65.4283 155.1645,-75.3056 162.1606,-75.5399"/>
<text text-anchor="middle" x="151.3146" y="-88.6376" font-family="Times,serif" font-size="14.00" fill="#000000">c</text>
</g>
<!-- 3 -->
<g id="node4" class="node">
<title>3</title>
<ellipse fill="none" stroke="#000000" cx="234.3146" cy="-102.4376" rx="18" ry="18"/>
<text text-anchor="middle" x="234.3146" y="-98.2376" font-family="Times,serif" font-size="14.00" fill="#000000">3</text>
</g>
<!-- 1&#45;&gt;3 -->
<g id="edge3" class="edge">
<title>1&#45;&gt;3</title>
<path fill="none" stroke="#000000" d="M169.735,-57.3097C181.9194,-65.8241 197.9958,-77.0582 211.0602,-86.1875"/>
<polygon fill="#000000" stroke="#000000" points="209.3369,-89.2531 219.5387,-92.1122 213.3465,-83.5152 209.3369,-89.2531"/>
<text text-anchor="middle" x="194.8146" y="-80.6376" font-family="Times,serif" font-size="14.00" fill="#000000">a</text>
</g>
<!-- 5 -->
<g id="node6" class="node">
<title>5</title>
<ellipse fill="none" stroke="#000000" cx="234.3146" cy="-47.4376" rx="18" ry="18"/>
<text text-anchor="middle" x="234.3146" y="-43.2376" font-family="Times,serif" font-size="14.00" fill="#000000">5</text>
</g>
<!-- 1&#45;&gt;5 -->
<g id="edge8" class="edge">
<title>1&#45;&gt;5</title>
<path fill="none" stroke="#000000" d="M173.5571,-45.2415C183.569,-45.6034 195.5023,-46.0347 206.1318,-46.4189"/>
<polygon fill="#000000" stroke="#000000" points="206.0873,-49.9195 216.2073,-46.7831 206.3402,-42.9241 206.0873,-49.9195"/>
<text text-anchor="middle" x="194.8146" y="-49.6376" font-family="Times,serif" font-size="14.00" fill="#000000">b</text>
</g>
<!-- 0&#45;&gt;1 -->
<g id="edge2" class="edge">
<title>0&#45;&gt;1</title>
<path fill="none" stroke="#000000" d="M76.9174,-44.4376C88.8607,-44.4376 104.7813,-44.4376 118.8297,-44.4376"/>
<polygon fill="#000000" stroke="#000000" points="119.1109,-47.9377 129.1108,-44.4376 119.1108,-40.9377 119.1109,-47.9377"/>
<text text-anchor="middle" x="102.9573" y="-48.6376" font-family="Times,serif" font-size="14.00" fill="#000000">b,c</text>
</g>
<!-- 2 -->
<g id="node5" class="node">
<title>2</title>
<ellipse fill="none" stroke="#000000" cx="313.3146" cy="-62.4376" rx="18" ry="18"/>
<text text-anchor="middle" x="313.3146" y="-58.2376" font-family="Times,serif" font-size="14.00" fill="#000000">2</text>
</g>
<!-- 3&#45;&gt;2 -->
<g id="edge5" class="edge">
<title>3&#45;&gt;2</title>
<path fill="none" stroke="#000000" d="M250.6835,-94.1495C261.4532,-88.6965 275.765,-81.45 287.9889,-75.2607"/>
<polygon fill="#000000" stroke="#000000" points="289.8965,-78.218 297.237,-70.5781 286.7344,-71.9729 289.8965,-78.218"/>
<text text-anchor="middle" x="273.8146" y="-87.6376" font-family="Times,serif" font-size="14.00" fill="#000000">b</text>
</g>
<!-- 2&#45;&gt;1 -->
<g id="edge6" class="edge">
<title>2&#45;&gt;1</title>
<path fill="none" stroke="#000000" d="M303.0196,-47.2785C292.2818,-32.952 274.0034,-12.3889 252.3146,-3.6376 226.2275,6.8885 196.3564,-8.5929 175.9063,-23.4122"/>
<polygon fill="#000000" stroke="#000000" points="173.574,-20.7897 167.7573,-29.645 177.8267,-26.3498 173.574,-20.7897"/>
<text text-anchor="middle" x="234.3146" y="-8.6376" font-family="Times,serif" font-size="14.00" fill="#000000">c</text>
</g>
<!-- 2&#45;&gt;3 -->
<g id="edge4" class="edge">
<title>2&#45;&gt;3</title>
<path fill="none" stroke="#000000" d="M295.4595,-59.8929C287.4449,-59.5022 278.0697,-60.1244 270.3146,-63.6376 262.6637,-67.1035 255.8868,-73.041 250.3352,-79.2431"/>
<polygon fill="#000000" stroke="#000000" points="247.5646,-77.1028 243.9849,-87.0746 253.0018,-81.5117 247.5646,-77.1028"/>
<text text-anchor="middle" x="273.8146" y="-67.6376" font-family="Times,serif" font-size="14.00" fill="#000000">a</text>
</g>
<!-- 5&#45;&gt;1 -->
<g id="edge7" class="edge">
<title>5&#45;&gt;1</title>
<path fill="none" stroke="#000000" d="M220.0964,-36.3623C213.7912,-32.1276 206.0559,-27.7988 198.3146,-25.6376 191.8709,-23.8386 185.1035,-24.772 178.7746,-26.9717"/>
<polygon fill="#000000" stroke="#000000" points="176.9669,-23.948 169.2999,-31.2601 179.8534,-30.3252 176.9669,-23.948"/>
<text text-anchor="middle" x="194.8146" y="-30.6376" font-family="Times,serif" font-size="14.00" fill="#000000">a</text>
</g>
</g>
</svg>
