<?xml version="1.0" encoding="UTF-8" standalone="no"?>
<!DOCTYPE svg PUBLIC "-//W3C//DTD SVG 1.1//EN"
 "http://www.w3.org/Graphics/SVG/1.1/DTD/svg11.dtd">
<!-- Generated by graphviz version 2.40.1 (20161225.0304)
 -->
<!-- Title: %0 Pages: 1 -->
<svg width="344pt" height="126pt"
 viewBox="0.00 0.00 343.98 125.83" xmlns="http://www.w3.org/2000/svg" xmlns:xlink="http://www.w3.org/1999/xlink">
<g id="graph0" class="graph" transform="scale(1 1) rotate(0) translate(4 121.8266)">
<title>%0</title>
<polygon fill="#ffffff" stroke="transparent" points="-4,4 -4,-121.8266 339.9752,-121.8266 339.9752,4 -4,4"/>
<!-- start -->
<g id="node1" class="node">
<title>start</title>
<ellipse fill="#000000" stroke="#000000" cx="1.8" cy="-61.0266" rx="1.8" ry="1.8"/>
</g>
<!-- 0 -->
<g id="node3" class="node">
<title>0</title>
<ellipse fill="none" stroke="#000000" cx="58.6" cy="-61.0266" rx="18" ry="18"/>
<text text-anchor="middle" x="58.6" y="-56.8266" font-family="Times,serif" font-size="14.00" fill="#000000">0</text>
</g>
<!-- start&#45;&gt;0 -->
<g id="edge1" class="edge">
<title>start&#45;&gt;0</title>
<path fill="none" stroke="#000000" d="M3.6898,-61.0266C8.0522,-61.0266 19.3107,-61.0266 30.5058,-61.0266"/>
<polygon fill="#000000" stroke="#000000" points="30.5696,-64.5267 40.5696,-61.0266 30.5696,-57.5267 30.5696,-64.5267"/>
</g>
<!-- 1 -->
<g id="node2" class="node">
<title>1</title>
<ellipse fill="none" stroke="#000000" cx="151.3146" cy="-61.0266" rx="18" ry="18"/>
<ellipse fill="none" stroke="#000000" cx="151.3146" cy="-61.0266" rx="22" ry="22"/>
<text text-anchor="middle" x="151.3146" y="-56.8266" font-family="Times,serif" font-size="14.00" fill="#000000">1</text>
</g>
<!-- 1&#45;&gt;1 -->
<g id="edge9" class="edge">
<title>1&#45;&gt;1</title>
<path fill="none" stroke="#000000" d="M143.3083,-81.6074C142.2005,-91.8713 144.8693,-101.0266 151.3146,-101.0266 155.4436,-101.0266 158.0228,-97.2693 159.052,-91.8702"/>
<polygon fill="#000000" stroke="#000000" points="162.5577,-91.6957 159.3209,-81.6074 155.5601,-91.5122 162.5577,-91.6957"/>
<text text-anchor="middle" x="151.3146" y="-105.2266" font-family="Times,serif" font-size="14.00" fill="#000000">c</text>
</g>
<!-- 2 -->
<g id="node4" class="node">
<title>2</title>
<ellipse fill="none" stroke="#000000" cx="238.9752" cy="-94.0266" rx="18" ry="18"/>
<text text-anchor="middle" x="238.9752" y="-89.8266" font-family="Times,serif" font-size="14.00" fill="#000000">2</text>
</g>
<!-- 1&#45;&gt;2 -->
<g id="edge3" class="edge">
<title>1&#45;&gt;2</title>
<path fill="none" stroke="#000000" d="M164.8605,-78.994C171.8153,-86.718 180.9956,-94.9065 191.3146,-99.0266 197.6022,-101.5371 204.7082,-101.9463 211.4771,-101.3365"/>
<polygon fill="#000000" stroke="#000000" points="212.3539,-104.7405 221.6702,-99.695 211.2409,-97.8295 212.3539,-104.7405"/>
<text text-anchor="middle" x="197.1449" y="-105.2266" font-family="Times,serif" font-size="14.00" fill="#000000">λ</text>
</g>
<!-- 5 -->
<g id="node6" class="node">
<title>5</title>
<ellipse fill="none" stroke="#000000" cx="238.9752" cy="-27.0266" rx="18" ry="18"/>
<text text-anchor="middle" x="238.9752" y="-22.8266" font-family="Times,serif" font-size="14.00" fill="#000000">5</text>
</g>
<!-- 1&#45;&gt;5 -->
<g id="edge8" class="edge">
<title>1&#45;&gt;5</title>
<path fill="none" stroke="#000000" d="M172.0889,-52.9691C184.2733,-48.2432 199.7808,-42.2285 212.7955,-37.1806"/>
<polygon fill="#000000" stroke="#000000" points="214.1081,-40.4256 222.1657,-33.5463 211.5768,-33.8993 214.1081,-40.4256"/>
<text text-anchor="middle" x="197.1449" y="-50.2266" font-family="Times,serif" font-size="14.00" fill="#000000">b</text>
</g>
<!-- 0&#45;&gt;1 -->
<g id="edge2" class="edge">
<title>0&#45;&gt;1</title>
<path fill="none" stroke="#000000" d="M76.9174,-61.0266C88.8607,-61.0266 104.7813,-61.0266 118.8297,-61.0266"/>
<polygon fill="#000000" stroke="#000000" points="119.1109,-64.5267 129.1108,-61.0266 119.1108,-57.5267 119.1109,-64.5267"/>
<text text-anchor="middle" x="102.9573" y="-65.2266" font-family="Times,serif" font-size="14.00" fill="#000000">b,c</text>
</g>
<!-- 2&#45;&gt;1 -->
<g id="edge6" class="edge">
<title>2&#45;&gt;1</title>
<path fill="none" stroke="#000000" d="M222.6198,-86.4681C216.5072,-83.7442 209.4723,-80.7278 202.9752,-78.2266 196.3368,-75.671 189.1374,-73.1316 182.2804,-70.8198"/>
<polygon fill="#000000" stroke="#000000" points="183.1774,-67.4302 172.5842,-67.6201 180.9837,-74.0776 183.1774,-67.4302"/>
<text text-anchor="middle" x="197.1449" y="-82.2266" font-family="Times,serif" font-size="14.00" fill="#000000">c</text>
</g>
<!-- 3 -->
<g id="node5" class="node">
<title>3</title>
<ellipse fill="none" stroke="#000000" cx="317.9752" cy="-94.0266" rx="18" ry="18"/>
<text text-anchor="middle" x="317.9752" y="-89.8266" font-family="Times,serif" font-size="14.00" fill="#000000">3</text>
</g>
<!-- 2&#45;&gt;3 -->
<g id="edge4" class="edge">
<title>2&#45;&gt;3</title>
<path fill="none" stroke="#000000" d="M257.298,-94.0266C266.8699,-94.0266 278.7975,-94.0266 289.5381,-94.0266"/>
<polygon fill="#000000" stroke="#000000" points="289.7518,-97.5267 299.7518,-94.0266 289.7518,-90.5267 289.7518,-97.5267"/>
<text text-anchor="middle" x="278.4752" y="-98.2266" font-family="Times,serif" font-size="14.00" fill="#000000">a</text>
</g>
<!-- 3&#45;&gt;2 -->
<g id="edge5" class="edge">
<title>3&#45;&gt;2</title>
<path fill="none" stroke="#000000" d="M303.3407,-83.2332C297.0887,-79.2629 289.5049,-75.2455 281.9752,-73.2266 274.9791,-71.3508 267.7514,-73.1763 261.2645,-76.3957"/>
<polygon fill="#000000" stroke="#000000" points="259.0909,-73.6234 252.4038,-81.8413 262.7561,-79.5871 259.0909,-73.6234"/>
<text text-anchor="middle" x="278.4752" y="-77.2266" font-family="Times,serif" font-size="14.00" fill="#000000">b</text>
</g>
<!-- 5&#45;&gt;1 -->
<g id="edge7" class="edge">
<title>5&#45;&gt;1</title>
<path fill="none" stroke="#000000" d="M226.8056,-13.6969C217.1607,-4.819 203.3514,4.143 191.3146,-2.2266 179.4641,-8.4976 170.4698,-20.0289 164.0409,-31.2293"/>
<polygon fill="#000000" stroke="#000000" points="160.7596,-29.9521 159.2376,-40.437 166.9659,-33.1896 160.7596,-29.9521"/>
<text text-anchor="middle" x="197.1449" y="-7.2266" font-family="Times,serif" font-size="14.00" fill="#000000">a</text>
</g>
</g>
</svg>
