<?xml version="1.0" encoding="UTF-8" standalone="no"?>
<!DOCTYPE svg PUBLIC "-//W3C//DTD SVG 1.1//EN"
 "http://www.w3.org/Graphics/SVG/1.1/DTD/svg11.dtd">
<!-- Generated by graphviz version 2.40.1 (20161225.0304)
 -->
<!-- Title: %0 Pages: 1 -->
<svg width="1706pt" height="484pt"
 viewBox="0.00 0.00 1705.72 483.80" xmlns="http://www.w3.org/2000/svg" xmlns:xlink="http://www.w3.org/1999/xlink">
<g id="graph0" class="graph" transform="scale(1 1) rotate(0) translate(4 479.8)">
<title>%0</title>
<polygon fill="#ffffff" stroke="transparent" points="-4,4 -4,-479.8 1701.72,-479.8 1701.72,4 -4,4"/>
<!-- start -->
<g id="node1" class="node">
<title>start</title>
<ellipse fill="#000000" stroke="#000000" cx="1.8" cy="-394" rx="1.8" ry="1.8"/>
</g>
<!-- 0 -->
<g id="node10" class="node">
<title>0</title>
<ellipse fill="none" stroke="#000000" cx="58.6" cy="-394" rx="18" ry="18"/>
<text text-anchor="middle" x="58.6" y="-389.8" font-family="Times,serif" font-size="14.00" fill="#000000">0</text>
</g>
<!-- start&#45;&gt;0 -->
<g id="edge1" class="edge">
<title>start&#45;&gt;0</title>
<path fill="none" stroke="#000000" d="M3.6898,-394C8.0522,-394 19.3107,-394 30.5058,-394"/>
<polygon fill="#000000" stroke="#000000" points="30.5696,-397.5001 40.5696,-394 30.5696,-390.5001 30.5696,-397.5001"/>
</g>
<!-- 124cd -->
<g id="node2" class="node">
<title>124cd</title>
<ellipse fill="none" stroke="#000000" cx="875.3737" cy="-144" rx="34.7605" ry="34.7605"/>
<ellipse fill="none" stroke="#000000" cx="875.3737" cy="-144" rx="38.7747" ry="38.7747"/>
<text text-anchor="middle" x="875.3737" y="-139.8" font-family="Times,serif" font-size="14.00" fill="#000000">124cd</text>
</g>
<!-- 124cd&#45;&gt;124cd -->
<g id="edge17" class="edge">
<title>124cd&#45;&gt;124cd</title>
<path fill="none" stroke="#000000" d="M864.1484,-181.0412C864.4835,-192.0618 868.2253,-200.6371 875.3737,-200.6371 880.0649,-200.6371 883.2889,-196.944 885.0458,-191.2904"/>
<polygon fill="#000000" stroke="#000000" points="888.5611,-191.4528 886.599,-181.0412 881.6401,-190.4039 888.5611,-191.4528"/>
<text text-anchor="middle" x="875.3737" y="-204.8371" font-family="Times,serif" font-size="14.00" fill="#000000">a</text>
</g>
<!-- 1357d -->
<g id="node3" class="node">
<title>1357d</title>
<ellipse fill="none" stroke="#000000" cx="996.4764" cy="-249" rx="35.3402" ry="35.3402"/>
<ellipse fill="none" stroke="#000000" cx="996.4764" cy="-249" rx="39.3586" ry="39.3586"/>
<text text-anchor="middle" x="996.4764" y="-244.8" font-family="Times,serif" font-size="14.00" fill="#000000">1357d</text>
</g>
<!-- 124cd&#45;&gt;1357d -->
<g id="edge18" class="edge">
<title>124cd&#45;&gt;1357d</title>
<path fill="none" stroke="#000000" d="M903.6212,-170.4946C912.6035,-178.7679 922.6404,-187.8571 932.0108,-196 940.3003,-203.2035 949.3324,-210.7876 957.9406,-217.8953"/>
<polygon fill="#000000" stroke="#000000" points="955.7448,-220.6211 965.6935,-224.2644 960.1883,-215.2122 955.7448,-220.6211"/>
<text text-anchor="middle" x="935.5108" y="-206.2" font-family="Times,serif" font-size="14.00" fill="#000000">b</text>
</g>
<!-- 137cd -->
<g id="node5" class="node">
<title>137cd</title>
<ellipse fill="none" stroke="#000000" cx="1122.9493" cy="-351" rx="34.7605" ry="34.7605"/>
<ellipse fill="none" stroke="#000000" cx="1122.9493" cy="-351" rx="38.7747" ry="38.7747"/>
<text text-anchor="middle" x="1122.9493" y="-346.8" font-family="Times,serif" font-size="14.00" fill="#000000">137cd</text>
</g>
<!-- 1357d&#45;&gt;137cd -->
<g id="edge20" class="edge">
<title>1357d&#45;&gt;137cd</title>
<path fill="none" stroke="#000000" d="M1027.092,-273.6914C1044.3357,-287.5984 1066.0359,-305.0995 1084.4267,-319.9316"/>
<polygon fill="#000000" stroke="#000000" points="1082.6345,-322.9826 1092.6157,-326.536 1087.029,-317.5339 1082.6345,-322.9826"/>
<text text-anchor="middle" x="1057.442" y="-304.2" font-family="Times,serif" font-size="14.00" fill="#000000">b</text>
</g>
<!-- 12468d -->
<g id="node6" class="node">
<title>12468d</title>
<ellipse fill="none" stroke="#000000" cx="1122.9493" cy="-72" rx="40.014" ry="40.014"/>
<ellipse fill="none" stroke="#000000" cx="1122.9493" cy="-72" rx="44.0147" ry="44.0147"/>
<text text-anchor="middle" x="1122.9493" y="-67.8" font-family="Times,serif" font-size="14.00" fill="#000000">12468d</text>
</g>
<!-- 1357d&#45;&gt;12468d -->
<g id="edge19" class="edge">
<title>1357d&#45;&gt;12468d</title>
<path fill="none" stroke="#000000" d="M1012.8429,-213.254C1023.2851,-192.0389 1037.8526,-165.098 1053.942,-143.2 1062.5539,-131.479 1072.9982,-119.7391 1083.1273,-109.2695"/>
<polygon fill="#000000" stroke="#000000" points="1085.8797,-111.4634 1090.4163,-101.889 1080.8992,-106.5446 1085.8797,-111.4634"/>
<text text-anchor="middle" x="1057.442" y="-148.2" font-family="Times,serif" font-size="14.00" fill="#000000">a</text>
</g>
<!-- 1248d -->
<g id="node4" class="node">
<title>1248d</title>
<ellipse fill="none" stroke="#000000" cx="1249.1356" cy="-276" rx="35.3402" ry="35.3402"/>
<ellipse fill="none" stroke="#000000" cx="1249.1356" cy="-276" rx="39.3586" ry="39.3586"/>
<text text-anchor="middle" x="1249.1356" y="-271.8" font-family="Times,serif" font-size="14.00" fill="#000000">1248d</text>
</g>
<!-- 1248d&#45;&gt;124cd -->
<g id="edge25" class="edge">
<title>1248d&#45;&gt;124cd</title>
<path fill="none" stroke="#000000" d="M1212.1925,-262.953C1143.5716,-238.7184 996.6094,-186.8163 921.5533,-160.309"/>
<polygon fill="#000000" stroke="#000000" points="922.4869,-156.927 911.8921,-156.8971 920.1558,-163.5274 922.4869,-156.927"/>
<text text-anchor="middle" x="1057.442" y="-213.2" font-family="Times,serif" font-size="14.00" fill="#000000">a</text>
</g>
<!-- 13579d -->
<g id="node7" class="node">
<title>13579d</title>
<ellipse fill="none" stroke="#000000" cx="1375.3218" cy="-276" rx="40.014" ry="40.014"/>
<ellipse fill="none" stroke="#000000" cx="1375.3218" cy="-276" rx="44.0147" ry="44.0147"/>
<text text-anchor="middle" x="1375.3218" y="-271.8" font-family="Times,serif" font-size="14.00" fill="#000000">13579d</text>
</g>
<!-- 1248d&#45;&gt;13579d -->
<g id="edge26" class="edge">
<title>1248d&#45;&gt;13579d</title>
<path fill="none" stroke="#000000" d="M1288.37,-276C1298.7836,-276 1310.2141,-276 1321.2668,-276"/>
<polygon fill="#000000" stroke="#000000" points="1321.271,-279.5001 1331.271,-276 1321.271,-272.5001 1321.271,-279.5001"/>
<text text-anchor="middle" x="1309.8144" y="-280.2" font-family="Times,serif" font-size="14.00" fill="#000000">b</text>
</g>
<!-- 137cd&#45;&gt;1248d -->
<g id="edge27" class="edge">
<title>137cd&#45;&gt;1248d</title>
<path fill="none" stroke="#000000" d="M1156.4336,-331.0983C1171.7119,-322.0175 1189.9858,-311.1562 1206.2549,-301.4865"/>
<polygon fill="#000000" stroke="#000000" points="1208.2473,-304.3739 1215.0553,-296.2559 1204.6708,-298.3565 1208.2473,-304.3739"/>
<text text-anchor="middle" x="1188.4567" y="-317.2" font-family="Times,serif" font-size="14.00" fill="#000000">a</text>
</g>
<!-- 137cd&#45;&gt;137cd -->
<g id="edge28" class="edge">
<title>137cd&#45;&gt;137cd</title>
<path fill="none" stroke="#000000" d="M1110.9677,-387.7697C1111.268,-398.9207 1115.2618,-407.6371 1122.9493,-407.6371 1128.1144,-407.6371 1131.6121,-403.7024 1133.4424,-397.7382"/>
<polygon fill="#000000" stroke="#000000" points="1136.9156,-398.177 1134.931,-387.7697 1129.9924,-397.1431 1136.9156,-398.177"/>
<text text-anchor="middle" x="1122.9493" y="-411.8371" font-family="Times,serif" font-size="14.00" fill="#000000">b</text>
</g>
<!-- 12468d&#45;&gt;124cd -->
<g id="edge29" class="edge">
<title>12468d&#45;&gt;124cd</title>
<path fill="none" stroke="#000000" d="M1079.5884,-81.2984C1045.8813,-88.8786 998.1031,-100.3956 957.0108,-113.2 945.1471,-116.8967 932.5042,-121.3868 920.7995,-125.7823"/>
<polygon fill="#000000" stroke="#000000" points="919.3227,-122.5995 911.2259,-129.4327 921.8167,-129.1402 919.3227,-122.5995"/>
<text text-anchor="middle" x="996.4764" y="-118.2" font-family="Times,serif" font-size="14.00" fill="#000000">a</text>
</g>
<!-- 13579cd -->
<g id="node8" class="node">
<title>13579cd</title>
<ellipse fill="none" stroke="#000000" cx="1649.4259" cy="-177" rx="44.106" ry="44.106"/>
<ellipse fill="none" stroke="#000000" cx="1649.4259" cy="-177" rx="48.089" ry="48.089"/>
<text text-anchor="middle" x="1649.4259" y="-172.8" font-family="Times,serif" font-size="14.00" fill="#000000">13579cd</text>
</g>
<!-- 12468d&#45;&gt;13579cd -->
<g id="edge30" class="edge">
<title>12468d&#45;&gt;13579cd</title>
<path fill="none" stroke="#000000" d="M1166.6342,-78.7285C1190.8761,-81.9006 1221.6065,-85 1249.1356,-85 1249.1356,-85 1249.1356,-85 1509.8378,-85 1548.2738,-85 1584.2973,-109.6187 1610.119,-133.3859"/>
<polygon fill="#000000" stroke="#000000" points="1607.804,-136.0145 1617.46,-140.3748 1612.6307,-130.9446 1607.804,-136.0145"/>
<text text-anchor="middle" x="1375.3218" y="-89.2" font-family="Times,serif" font-size="14.00" fill="#000000">b</text>
</g>
<!-- 13579d&#45;&gt;137cd -->
<g id="edge36" class="edge">
<title>13579d&#45;&gt;137cd</title>
<path fill="none" stroke="#000000" d="M1338.0868,-300.2191C1323.1468,-308.9402 1305.4336,-318.079 1288.3144,-324 1250.3203,-337.1409 1205.1542,-343.9624 1171.6329,-347.4578"/>
<polygon fill="#000000" stroke="#000000" points="1171.2351,-343.98 1161.6244,-348.4391 1171.9183,-350.9465 1171.2351,-343.98"/>
<text text-anchor="middle" x="1249.1356" y="-346.2" font-family="Times,serif" font-size="14.00" fill="#000000">b</text>
</g>
<!-- 12468cd -->
<g id="node9" class="node">
<title>12468cd</title>
<ellipse fill="none" stroke="#000000" cx="1509.8378" cy="-217" rx="44.106" ry="44.106"/>
<ellipse fill="none" stroke="#000000" cx="1509.8378" cy="-217" rx="48.089" ry="48.089"/>
<text text-anchor="middle" x="1509.8378" y="-212.8" font-family="Times,serif" font-size="14.00" fill="#000000">12468cd</text>
</g>
<!-- 13579d&#45;&gt;12468cd -->
<g id="edge35" class="edge">
<title>13579d&#45;&gt;12468cd</title>
<path fill="none" stroke="#000000" d="M1415.681,-258.2981C1428.3823,-252.7272 1442.6158,-246.4842 1456.0941,-240.5725"/>
<polygon fill="#000000" stroke="#000000" points="1457.5245,-243.767 1465.2765,-236.545 1454.7128,-237.3565 1457.5245,-243.767"/>
<text text-anchor="middle" x="1440.4364" y="-253.2" font-family="Times,serif" font-size="14.00" fill="#000000">a</text>
</g>
<!-- 13579cd&#45;&gt;137cd -->
<g id="edge38" class="edge">
<title>13579cd&#45;&gt;137cd</title>
<path fill="none" stroke="#000000" d="M1642.0933,-225.0059C1628.8037,-292.156 1593.8799,-406 1509.8378,-406 1249.1356,-406 1249.1356,-406 1249.1356,-406 1218.621,-406 1187.1538,-392.3171 1163.2757,-378.6007"/>
<polygon fill="#000000" stroke="#000000" points="1164.8941,-375.4907 1154.5136,-373.3706 1161.3064,-381.5014 1164.8941,-375.4907"/>
<text text-anchor="middle" x="1375.3218" y="-410.2" font-family="Times,serif" font-size="14.00" fill="#000000">b</text>
</g>
<!-- 13579cd&#45;&gt;12468cd -->
<g id="edge37" class="edge">
<title>13579cd&#45;&gt;12468cd</title>
<path fill="none" stroke="#000000" d="M1600.8197,-174.3074C1592.4778,-174.8316 1583.9752,-176.0044 1576.1318,-178.2 1570.373,-179.8121 1564.5975,-182.05 1558.9879,-184.6449"/>
<polygon fill="#000000" stroke="#000000" points="1557.0948,-181.6793 1549.7361,-189.3017 1560.242,-187.932 1557.0948,-181.6793"/>
<text text-anchor="middle" x="1579.6318" y="-183.2" font-family="Times,serif" font-size="14.00" fill="#000000">a</text>
</g>
<!-- 12468cd&#45;&gt;124cd -->
<g id="edge39" class="edge">
<title>12468cd&#45;&gt;124cd</title>
<path fill="none" stroke="#000000" d="M1473.8171,-184.7686C1448.2135,-165.213 1411.9894,-144 1375.3218,-144 996.4764,-144 996.4764,-144 996.4764,-144 972.6995,-144 946.2967,-144 924.2281,-144"/>
<polygon fill="#000000" stroke="#000000" points="924.0968,-140.5001 914.0968,-144 924.0968,-147.5001 924.0968,-140.5001"/>
<text text-anchor="middle" x="1188.4567" y="-148.2" font-family="Times,serif" font-size="14.00" fill="#000000">a</text>
</g>
<!-- 12468cd&#45;&gt;13579cd -->
<g id="edge40" class="edge">
<title>12468cd&#45;&gt;13579cd</title>
<path fill="none" stroke="#000000" d="M1556.3186,-203.6806C1568.0836,-200.3092 1580.8471,-196.6517 1593.0429,-193.1569"/>
<polygon fill="#000000" stroke="#000000" points="1594.0232,-196.517 1602.6721,-190.3976 1592.0948,-189.7878 1594.0232,-196.517"/>
<text text-anchor="middle" x="1579.6318" y="-201.2" font-family="Times,serif" font-size="14.00" fill="#000000">b</text>
</g>
<!-- 1 -->
<g id="node11" class="node">
<title>1</title>
<ellipse fill="none" stroke="#000000" cx="147.3146" cy="-394" rx="18" ry="18"/>
<text text-anchor="middle" x="147.3146" y="-389.8" font-family="Times,serif" font-size="14.00" fill="#000000">1</text>
</g>
<!-- 0&#45;&gt;1 -->
<g id="edge2" class="edge">
<title>0&#45;&gt;1</title>
<path fill="none" stroke="#000000" d="M76.9817,-394C89.0758,-394 105.1476,-394 118.8746,-394"/>
<polygon fill="#000000" stroke="#000000" points="119.26,-397.5001 129.26,-394 119.2599,-390.5001 119.26,-397.5001"/>
<text text-anchor="middle" x="102.9573" y="-398.2" font-family="Times,serif" font-size="14.00" fill="#000000">a,b</text>
</g>
<!-- 124 -->
<g id="node12" class="node">
<title>124</title>
<ellipse fill="none" stroke="#000000" cx="430.0104" cy="-334" rx="25.5439" ry="25.5439"/>
<text text-anchor="middle" x="430.0104" y="-329.8" font-family="Times,serif" font-size="14.00" fill="#000000">124</text>
</g>
<!-- 1&#45;&gt;124 -->
<g id="edge3" class="edge">
<title>1&#45;&gt;124</title>
<path fill="none" stroke="#000000" d="M164.7306,-399.2668C170.5792,-400.7898 177.1763,-402.2443 183.3146,-403 186.4024,-403.3801 187.2036,-403.0225 190.3146,-403 221.0032,-402.7778 228.9892,-406.4214 259.3585,-402 306.3841,-395.1536 318.4766,-391.4415 362.2738,-373 375.0039,-367.6398 388.3195,-360.3764 399.7426,-353.5707"/>
<polygon fill="#000000" stroke="#000000" points="401.7381,-356.4532 408.4505,-348.256 398.0913,-350.4782 401.7381,-356.4532"/>
<text text-anchor="middle" x="280.4658" y="-403.2" font-family="Times,serif" font-size="14.00" fill="#000000">a</text>
</g>
<!-- 137 -->
<g id="node13" class="node">
<title>137</title>
<ellipse fill="none" stroke="#000000" cx="233.8365" cy="-367" rx="25.5439" ry="25.5439"/>
<text text-anchor="middle" x="233.8365" y="-362.8" font-family="Times,serif" font-size="14.00" fill="#000000">137</text>
</g>
<!-- 1&#45;&gt;137 -->
<g id="edge4" class="edge">
<title>1&#45;&gt;137</title>
<path fill="none" stroke="#000000" d="M164.8236,-388.5361C174.8537,-385.4062 187.7875,-381.37 199.7424,-377.6394"/>
<polygon fill="#000000" stroke="#000000" points="200.9657,-380.9242 209.4691,-374.6041 198.8804,-374.242 200.9657,-380.9242"/>
<text text-anchor="middle" x="186.8146" y="-386.2" font-family="Times,serif" font-size="14.00" fill="#000000">b</text>
</g>
<!-- 124c -->
<g id="node14" class="node">
<title>124c</title>
<ellipse fill="none" stroke="#000000" cx="754.271" cy="-240" rx="29.6185" ry="29.6185"/>
<text text-anchor="middle" x="754.271" y="-235.8" font-family="Times,serif" font-size="14.00" fill="#000000">124c</text>
</g>
<!-- 124&#45;&gt;124c -->
<g id="edge5" class="edge">
<title>124&#45;&gt;124c</title>
<path fill="none" stroke="#000000" d="M451.4787,-319.8031C464.6222,-311.6211 482.0345,-301.6682 498.5323,-295 579.8932,-262.115 603.3418,-261.0019 689.8054,-246 697.6703,-244.6354 706.1325,-243.5662 714.2554,-242.7335"/>
<polygon fill="#000000" stroke="#000000" points="714.6593,-246.2111 724.2925,-241.8007 714.0115,-239.2411 714.6593,-246.2111"/>
<text text-anchor="middle" x="580.3404" y="-272.2" font-family="Times,serif" font-size="14.00" fill="#000000">a</text>
</g>
<!-- 1357 -->
<g id="node15" class="node">
<title>1357</title>
<ellipse fill="none" stroke="#000000" cx="528.8827" cy="-334" rx="30.2015" ry="30.2015"/>
<text text-anchor="middle" x="528.8827" y="-329.8" font-family="Times,serif" font-size="14.00" fill="#000000">1357</text>
</g>
<!-- 124&#45;&gt;1357 -->
<g id="edge6" class="edge">
<title>124&#45;&gt;1357</title>
<path fill="none" stroke="#000000" d="M455.7298,-334C465.6159,-334 477.1604,-334 488.1181,-334"/>
<polygon fill="#000000" stroke="#000000" points="488.3709,-337.5001 498.3709,-334 488.3709,-330.5001 488.3709,-337.5001"/>
<text text-anchor="middle" x="477.0323" y="-338.2" font-family="Times,serif" font-size="14.00" fill="#000000">b</text>
</g>
<!-- 1248 -->
<g id="node16" class="node">
<title>1248</title>
<ellipse fill="none" stroke="#000000" cx="331.9234" cy="-334" rx="30.2015" ry="30.2015"/>
<text text-anchor="middle" x="331.9234" y="-329.8" font-family="Times,serif" font-size="14.00" fill="#000000">1248</text>
</g>
<!-- 137&#45;&gt;1248 -->
<g id="edge7" class="edge">
<title>137&#45;&gt;1248</title>
<path fill="none" stroke="#000000" d="M258.0827,-358.8427C268.7198,-355.264 281.4689,-350.9747 293.3565,-346.9753"/>
<polygon fill="#000000" stroke="#000000" points="294.7124,-350.212 303.0743,-343.7059 292.4802,-343.5774 294.7124,-350.212"/>
<text text-anchor="middle" x="280.4658" y="-355.2" font-family="Times,serif" font-size="14.00" fill="#000000">a</text>
</g>
<!-- 137c -->
<g id="node17" class="node">
<title>137c</title>
<ellipse fill="none" stroke="#000000" cx="754.271" cy="-326" rx="29.6185" ry="29.6185"/>
<text text-anchor="middle" x="754.271" y="-321.8" font-family="Times,serif" font-size="14.00" fill="#000000">137c</text>
</g>
<!-- 137&#45;&gt;137c -->
<g id="edge8" class="edge">
<title>137&#45;&gt;137c</title>
<path fill="none" stroke="#000000" d="M255.0484,-381.7814C292.7449,-407.7877 368.8259,-459 383.3811,-459 383.3811,-459 383.3811,-459 636.6266,-459 687.7804,-459 722.048,-403.1194 739.8279,-363.8011"/>
<polygon fill="#000000" stroke="#000000" points="743.2217,-364.7726 743.9932,-354.2059 736.8006,-361.9851 743.2217,-364.7726"/>
<text text-anchor="middle" x="477.0323" y="-463.2" font-family="Times,serif" font-size="14.00" fill="#000000">b</text>
</g>
<!-- 124c&#45;&gt;124cd -->
<g id="edge9" class="edge">
<title>124c&#45;&gt;124cd</title>
<path fill="none" stroke="#000000" d="M777.9083,-221.2623C794.6522,-207.9892 817.4858,-189.8886 836.8433,-174.5436"/>
<polygon fill="#000000" stroke="#000000" points="839.2365,-177.1129 844.8987,-168.158 834.888,-171.6274 839.2365,-177.1129"/>
<text text-anchor="middle" x="815.2366" y="-196.2" font-family="Times,serif" font-size="14.00" fill="#000000">a</text>
</g>
<!-- 124c&#45;&gt;1357d -->
<g id="edge10" class="edge">
<title>124c&#45;&gt;1357d</title>
<path fill="none" stroke="#000000" d="M784.4568,-241.1217C825.183,-242.635 898.2373,-245.3496 947.0397,-247.163"/>
<polygon fill="#000000" stroke="#000000" points="946.942,-250.6617 957.0651,-247.5355 947.202,-243.6665 946.942,-250.6617"/>
<text text-anchor="middle" x="875.3737" y="-250.2" font-family="Times,serif" font-size="14.00" fill="#000000">b</text>
</g>
<!-- 1357&#45;&gt;137c -->
<g id="edge12" class="edge">
<title>1357&#45;&gt;137c</title>
<path fill="none" stroke="#000000" d="M559.2796,-332.9211C599.3263,-331.4997 669.8593,-328.9961 714.2204,-327.4216"/>
<polygon fill="#000000" stroke="#000000" points="714.4862,-330.9144 724.3557,-327.0618 714.2378,-323.9188 714.4862,-330.9144"/>
<text text-anchor="middle" x="636.6266" y="-335.2" font-family="Times,serif" font-size="14.00" fill="#000000">b</text>
</g>
<!-- 12468 -->
<g id="node18" class="node">
<title>12468</title>
<ellipse fill="none" stroke="#000000" cx="636.6266" cy="-396" rx="35.3587" ry="35.3587"/>
<text text-anchor="middle" x="636.6266" y="-391.8" font-family="Times,serif" font-size="14.00" fill="#000000">12468</text>
</g>
<!-- 1357&#45;&gt;12468 -->
<g id="edge11" class="edge">
<title>1357&#45;&gt;12468</title>
<path fill="none" stroke="#000000" d="M555.2398,-349.1669C567.8117,-356.4013 583.1163,-365.2081 597.0466,-373.2242"/>
<polygon fill="#000000" stroke="#000000" points="595.5467,-376.3992 605.9598,-378.3532 599.0381,-370.332 595.5467,-376.3992"/>
<text text-anchor="middle" x="580.3404" y="-369.2" font-family="Times,serif" font-size="14.00" fill="#000000">a</text>
</g>
<!-- 1248&#45;&gt;124 -->
<g id="edge13" class="edge">
<title>1248&#45;&gt;124</title>
<path fill="none" stroke="#000000" d="M362.4211,-334C372.5439,-334 383.9028,-334 394.3777,-334"/>
<polygon fill="#000000" stroke="#000000" points="394.4793,-337.5001 404.4793,-334 394.4792,-330.5001 394.4793,-337.5001"/>
<text text-anchor="middle" x="383.3811" y="-338.2" font-family="Times,serif" font-size="14.00" fill="#000000">a</text>
</g>
<!-- 13579 -->
<g id="node19" class="node">
<title>13579</title>
<ellipse fill="none" stroke="#000000" cx="636.6266" cy="-158" rx="35.3587" ry="35.3587"/>
<text text-anchor="middle" x="636.6266" y="-153.8" font-family="Times,serif" font-size="14.00" fill="#000000">13579</text>
</g>
<!-- 1248&#45;&gt;13579 -->
<g id="edge14" class="edge">
<title>1248&#45;&gt;13579</title>
<path fill="none" stroke="#000000" d="M358.4308,-318.689C412.1139,-287.6811 533.9322,-217.3174 597.0541,-180.8575"/>
<polygon fill="#000000" stroke="#000000" points="599.0175,-183.7654 605.9262,-175.7329 595.5163,-177.7039 599.0175,-183.7654"/>
<text text-anchor="middle" x="477.0323" y="-257.2" font-family="Times,serif" font-size="14.00" fill="#000000">b</text>
</g>
<!-- 137c&#45;&gt;1248d -->
<g id="edge15" class="edge">
<title>137c&#45;&gt;1248d</title>
<path fill="none" stroke="#000000" d="M784.3389,-323.6919C839.3079,-319.3969 959.6823,-309.6422 1060.942,-299 1108.2189,-294.0313 1162.0485,-287.3487 1199.9909,-282.4674"/>
<polygon fill="#000000" stroke="#000000" points="1200.7838,-285.8941 1210.2527,-281.1413 1199.8866,-278.9518 1200.7838,-285.8941"/>
<text text-anchor="middle" x="996.4764" y="-312.2" font-family="Times,serif" font-size="14.00" fill="#000000">a</text>
</g>
<!-- 137c&#45;&gt;137cd -->
<g id="edge16" class="edge">
<title>137c&#45;&gt;137cd</title>
<path fill="none" stroke="#000000" d="M783.3544,-333.0023C792.398,-334.9285 802.4356,-336.8123 811.7366,-338 903.7717,-349.7522 1012.2325,-351.5908 1073.761,-351.5254"/>
<polygon fill="#000000" stroke="#000000" points="1073.966,-355.025 1083.956,-351.4965 1073.946,-348.025 1073.966,-355.025"/>
<text text-anchor="middle" x="935.5108" y="-352.2" font-family="Times,serif" font-size="14.00" fill="#000000">b</text>
</g>
<!-- 12468&#45;&gt;124c -->
<g id="edge21" class="edge">
<title>12468&#45;&gt;124c</title>
<path fill="none" stroke="#000000" d="M659.2959,-368.7488C664.0311,-361.975 668.5634,-354.4974 671.8054,-347 688.3075,-308.8382 660.969,-285.1516 689.8054,-255.2 696.3065,-248.4475 705.2037,-244.4542 714.3119,-242.1474"/>
<polygon fill="#000000" stroke="#000000" points="715.0131,-245.5768 724.1747,-240.2556 713.6944,-238.7021 715.0131,-245.5768"/>
<text text-anchor="middle" x="693.3054" y="-260.2" font-family="Times,serif" font-size="14.00" fill="#000000">a</text>
</g>
<!-- 13579c -->
<g id="node20" class="node">
<title>13579c</title>
<ellipse fill="none" stroke="#000000" cx="996.4764" cy="-436" rx="39.4312" ry="39.4312"/>
<text text-anchor="middle" x="996.4764" y="-431.8" font-family="Times,serif" font-size="14.00" fill="#000000">13579c</text>
</g>
<!-- 12468&#45;&gt;13579c -->
<g id="edge22" class="edge">
<title>12468&#45;&gt;13579c</title>
<path fill="none" stroke="#000000" d="M671.7857,-399.9082C736.2234,-407.0709 873.3835,-422.3173 947.1272,-430.5145"/>
<polygon fill="#000000" stroke="#000000" points="946.7722,-433.9965 957.0977,-431.6228 947.5456,-427.0393 946.7722,-433.9965"/>
<text text-anchor="middle" x="815.2366" y="-420.2" font-family="Times,serif" font-size="14.00" fill="#000000">b</text>
</g>
<!-- 13579&#45;&gt;137c -->
<g id="edge24" class="edge">
<title>13579&#45;&gt;137c</title>
<path fill="none" stroke="#000000" d="M647.8234,-191.5622C656.8204,-215.4766 671.0476,-247.5794 689.8054,-272 698.5933,-283.4408 710.2016,-294.0948 721.1438,-302.8649"/>
<polygon fill="#000000" stroke="#000000" points="719.2708,-305.8409 729.3237,-309.1861 723.5511,-300.302 719.2708,-305.8409"/>
<text text-anchor="middle" x="693.3054" y="-284.2" font-family="Times,serif" font-size="14.00" fill="#000000">b</text>
</g>
<!-- 12468c -->
<g id="node21" class="node">
<title>12468c</title>
<ellipse fill="none" stroke="#000000" cx="754.271" cy="-144" rx="39.4312" ry="39.4312"/>
<text text-anchor="middle" x="754.271" y="-139.8" font-family="Times,serif" font-size="14.00" fill="#000000">12468c</text>
</g>
<!-- 13579&#45;&gt;12468c -->
<g id="edge23" class="edge">
<title>13579&#45;&gt;12468c</title>
<path fill="none" stroke="#000000" d="M671.6053,-153.8374C681.9766,-152.6032 693.5384,-151.2273 704.6508,-149.9049"/>
<polygon fill="#000000" stroke="#000000" points="705.1665,-153.3684 714.6828,-148.7111 704.3393,-146.4174 705.1665,-153.3684"/>
<text text-anchor="middle" x="693.3054" y="-156.2" font-family="Times,serif" font-size="14.00" fill="#000000">a</text>
</g>
<!-- 13579c&#45;&gt;137cd -->
<g id="edge32" class="edge">
<title>13579c&#45;&gt;137cd</title>
<path fill="none" stroke="#000000" d="M1029.3755,-413.8891C1045.4556,-403.082 1064.9656,-389.9697 1082.001,-378.5206"/>
<polygon fill="#000000" stroke="#000000" points="1084.3052,-381.189 1090.6526,-372.706 1080.4005,-375.3792 1084.3052,-381.189"/>
<text text-anchor="middle" x="1057.442" y="-400.2" font-family="Times,serif" font-size="14.00" fill="#000000">b</text>
</g>
<!-- 13579c&#45;&gt;12468cd -->
<g id="edge31" class="edge">
<title>13579c&#45;&gt;12468cd</title>
<path fill="none" stroke="#000000" d="M1035.8657,-439.4152C1070.7162,-441.4681 1122.7521,-442.156 1166.9567,-433 1226.354,-420.6971 1370.712,-365.2737 1419.3291,-329 1442.1481,-311.9745 1462.5761,-287.9325 1478.2246,-266.4858"/>
<polygon fill="#000000" stroke="#000000" points="1481.2442,-268.2795 1484.1981,-258.1048 1475.5439,-264.2167 1481.2442,-268.2795"/>
<text text-anchor="middle" x="1249.1356" y="-424.2" font-family="Times,serif" font-size="14.00" fill="#000000">a</text>
</g>
<!-- 12468c&#45;&gt;124cd -->
<g id="edge33" class="edge">
<title>12468c&#45;&gt;124cd</title>
<path fill="none" stroke="#000000" d="M793.9246,-144C804.2751,-144 815.5541,-144 826.3286,-144"/>
<polygon fill="#000000" stroke="#000000" points="826.4573,-147.5001 836.4573,-144 826.4572,-140.5001 826.4573,-147.5001"/>
<text text-anchor="middle" x="815.2366" y="-148.2" font-family="Times,serif" font-size="14.00" fill="#000000">a</text>
</g>
<!-- 12468c&#45;&gt;13579cd -->
<g id="edge34" class="edge">
<title>12468c&#45;&gt;13579cd</title>
<path fill="none" stroke="#000000" d="M767.1357,-106.5416C784.453,-63.8751 819.6789,0 875.3737,0 875.3737,0 875.3737,0 1509.8378,0 1572.4695,0 1611.3457,-69.1744 1631.6906,-121.0341"/>
<polygon fill="#000000" stroke="#000000" points="1628.4592,-122.3841 1635.2753,-130.4953 1635.0051,-119.9039 1628.4592,-122.3841"/>
<text text-anchor="middle" x="1188.4567" y="-4.2" font-family="Times,serif" font-size="14.00" fill="#000000">b</text>
</g>
</g>
</svg>
