<?xml version="1.0" encoding="UTF-8" standalone="no"?>
<!DOCTYPE svg PUBLIC "-//W3C//DTD SVG 1.1//EN"
 "http://www.w3.org/Graphics/SVG/1.1/DTD/svg11.dtd">
<!-- Generated by graphviz version 2.40.1 (20161225.0304)
 -->
<!-- Title: %0 Pages: 1 -->
<svg width="751pt" height="159pt"
 viewBox="0.00 0.00 751.39 158.80" xmlns="http://www.w3.org/2000/svg" xmlns:xlink="http://www.w3.org/1999/xlink">
<g id="graph0" class="graph" transform="scale(1 1) rotate(0) translate(4 154.8)">
<title>%0</title>
<polygon fill="#ffffff" stroke="transparent" points="-4,4 -4,-154.8 747.3876,-154.8 747.3876,4 -4,4"/>
<!-- start -->
<g id="node1" class="node">
<title>start</title>
<ellipse fill="#000000" stroke="#000000" cx="1.8" cy="-82" rx="1.8" ry="1.8"/>
</g>
<!-- 0 -->
<g id="node3" class="node">
<title>0</title>
<ellipse fill="none" stroke="#000000" cx="58.6" cy="-82" rx="18" ry="18"/>
<text text-anchor="middle" x="58.6" y="-77.8" font-family="Times,serif" font-size="14.00" fill="#000000">0</text>
</g>
<!-- start&#45;&gt;0 -->
<g id="edge1" class="edge">
<title>start&#45;&gt;0</title>
<path fill="none" stroke="#000000" d="M3.6898,-82C8.0522,-82 19.3107,-82 30.5058,-82"/>
<polygon fill="#000000" stroke="#000000" points="30.5696,-85.5001 40.5696,-82 30.5696,-78.5001 30.5696,-85.5001"/>
</g>
<!-- d -->
<g id="node2" class="node">
<title>d</title>
<ellipse fill="none" stroke="#000000" cx="721.3876" cy="-89" rx="18" ry="18"/>
<ellipse fill="none" stroke="#000000" cx="721.3876" cy="-89" rx="22" ry="22"/>
<text text-anchor="middle" x="721.3876" y="-84.8" font-family="Times,serif" font-size="14.00" fill="#000000">d</text>
</g>
<!-- d&#45;&gt;d -->
<g id="edge13" class="edge">
<title>d&#45;&gt;d</title>
<path fill="none" stroke="#000000" d="M712.6535,-109.5808C711.445,-119.8447 714.3563,-129 721.3876,-129 725.892,-129 728.7056,-125.2427 729.8284,-119.8436"/>
<polygon fill="#000000" stroke="#000000" points="733.3345,-119.6768 730.1217,-109.5808 726.3374,-119.4767 733.3345,-119.6768"/>
<text text-anchor="middle" x="721.3876" y="-133.2" font-family="Times,serif" font-size="14.00" fill="#000000">a,b</text>
</g>
<!-- 1 -->
<g id="node4" class="node">
<title>1</title>
<ellipse fill="none" stroke="#000000" cx="147.3146" cy="-82" rx="18" ry="18"/>
<text text-anchor="middle" x="147.3146" y="-77.8" font-family="Times,serif" font-size="14.00" fill="#000000">1</text>
</g>
<!-- 0&#45;&gt;1 -->
<g id="edge2" class="edge">
<title>0&#45;&gt;1</title>
<path fill="none" stroke="#000000" d="M76.9817,-82C89.0758,-82 105.1476,-82 118.8746,-82"/>
<polygon fill="#000000" stroke="#000000" points="119.26,-85.5001 129.26,-82 119.2599,-78.5001 119.26,-85.5001"/>
<text text-anchor="middle" x="102.9573" y="-86.2" font-family="Times,serif" font-size="14.00" fill="#000000">a,b</text>
</g>
<!-- 2 -->
<g id="node5" class="node">
<title>2</title>
<ellipse fill="none" stroke="#000000" cx="382.7438" cy="-104" rx="18" ry="18"/>
<text text-anchor="middle" x="382.7438" y="-99.8" font-family="Times,serif" font-size="14.00" fill="#000000">2</text>
</g>
<!-- 1&#45;&gt;2 -->
<g id="edge3" class="edge">
<title>1&#45;&gt;2</title>
<path fill="none" stroke="#000000" d="M164.7961,-86.4324C170.6491,-87.7696 177.2322,-89.1157 183.3146,-90 243.9079,-98.8096 315.6949,-102.1259 354.4733,-103.3364"/>
<polygon fill="#000000" stroke="#000000" points="354.4023,-106.8357 364.4988,-103.6248 354.6036,-99.8386 354.4023,-106.8357"/>
<text text-anchor="middle" x="265.4219" y="-103.2" font-family="Times,serif" font-size="14.00" fill="#000000">a</text>
</g>
<!-- 3 -->
<g id="node6" class="node">
<title>3</title>
<ellipse fill="none" stroke="#000000" cx="226.3146" cy="-53" rx="18" ry="18"/>
<text text-anchor="middle" x="226.3146" y="-48.8" font-family="Times,serif" font-size="14.00" fill="#000000">3</text>
</g>
<!-- 1&#45;&gt;3 -->
<g id="edge4" class="edge">
<title>1&#45;&gt;3</title>
<path fill="none" stroke="#000000" d="M164.4564,-75.7074C174.7052,-71.9452 187.9482,-67.0839 199.5499,-62.825"/>
<polygon fill="#000000" stroke="#000000" points="201.0249,-66.012 209.2062,-59.2803 198.6126,-59.4408 201.0249,-66.012"/>
<text text-anchor="middle" x="186.8146" y="-73.2" font-family="Times,serif" font-size="14.00" fill="#000000">b</text>
</g>
<!-- c -->
<g id="node8" class="node">
<title>c</title>
<ellipse fill="none" stroke="#000000" cx="628.673" cy="-89" rx="18" ry="18"/>
<text text-anchor="middle" x="628.673" y="-84.8" font-family="Times,serif" font-size="14.00" fill="#000000">c</text>
</g>
<!-- 2&#45;&gt;c -->
<g id="edge7" class="edge">
<title>2&#45;&gt;c</title>
<path fill="none" stroke="#000000" d="M398.0079,-114.237C404.2309,-118.0507 411.6263,-122.1422 418.7438,-125 429.3476,-129.2576 432.3963,-129.6574 443.7438,-131 510.3241,-138.8778 531.2112,-133.785 592.673,-107 596.2122,-105.4576 599.9006,-103.7426 603.5089,-102.0012"/>
<polygon fill="#000000" stroke="#000000" points="605.3148,-105.0123 612.7157,-97.431 602.2024,-98.7423 605.3148,-105.0123"/>
<text text-anchor="middle" x="500.8511" y="-138.2" font-family="Times,serif" font-size="14.00" fill="#000000">a</text>
</g>
<!-- 6 -->
<g id="node9" class="node">
<title>6</title>
<ellipse fill="none" stroke="#000000" cx="461.7438" cy="-104" rx="18" ry="18"/>
<text text-anchor="middle" x="461.7438" y="-99.8" font-family="Times,serif" font-size="14.00" fill="#000000">6</text>
</g>
<!-- 2&#45;&gt;6 -->
<g id="edge8" class="edge">
<title>2&#45;&gt;6</title>
<path fill="none" stroke="#000000" d="M401.0666,-104C410.6385,-104 422.5661,-104 433.3067,-104"/>
<polygon fill="#000000" stroke="#000000" points="433.5204,-107.5001 443.5204,-104 433.5204,-100.5001 433.5204,-107.5001"/>
<text text-anchor="middle" x="422.2438" y="-108.2" font-family="Times,serif" font-size="14.00" fill="#000000">b</text>
</g>
<!-- 4 -->
<g id="node7" class="node">
<title>4</title>
<ellipse fill="none" stroke="#000000" cx="304.5292" cy="-53" rx="18" ry="18"/>
<text text-anchor="middle" x="304.5292" y="-48.8" font-family="Times,serif" font-size="14.00" fill="#000000">4</text>
</g>
<!-- 3&#45;&gt;4 -->
<g id="edge5" class="edge">
<title>3&#45;&gt;4</title>
<path fill="none" stroke="#000000" d="M244.4552,-53C253.932,-53 265.741,-53 276.3748,-53"/>
<polygon fill="#000000" stroke="#000000" points="276.487,-56.5001 286.487,-53 276.4869,-49.5001 276.487,-56.5001"/>
<text text-anchor="middle" x="265.4219" y="-57.2" font-family="Times,serif" font-size="14.00" fill="#000000">a</text>
</g>
<!-- 3&#45;&gt;c -->
<g id="edge6" class="edge">
<title>3&#45;&gt;c</title>
<path fill="none" stroke="#000000" d="M237.6699,-38.797C251.6013,-23.0977 276.8084,0 304.5292,0 304.5292,0 304.5292,0 539.9584,0 575.9046,0 602.329,-36.8675 616.5979,-63.1454"/>
<polygon fill="#000000" stroke="#000000" points="613.6047,-64.9775 621.3,-72.2598 619.8256,-61.768 613.6047,-64.9775"/>
<text text-anchor="middle" x="422.2438" y="-4.2" font-family="Times,serif" font-size="14.00" fill="#000000">b</text>
</g>
<!-- 4&#45;&gt;2 -->
<g id="edge14" class="edge">
<title>4&#45;&gt;2</title>
<path fill="none" stroke="#000000" d="M321.041,-60.2274C329.0386,-63.9917 338.6407,-68.9093 346.7438,-74.2 351.6692,-77.4159 356.6921,-81.2004 361.3624,-84.9734"/>
<polygon fill="#000000" stroke="#000000" points="359.3807,-87.8796 369.2906,-91.6274 363.8808,-82.5177 359.3807,-87.8796"/>
<text text-anchor="middle" x="343.6365" y="-79.2" font-family="Times,serif" font-size="14.00" fill="#000000">a</text>
</g>
<!-- 5 -->
<g id="node10" class="node">
<title>5</title>
<ellipse fill="none" stroke="#000000" cx="539.9584" cy="-51" rx="18" ry="18"/>
<text text-anchor="middle" x="539.9584" y="-46.8" font-family="Times,serif" font-size="14.00" fill="#000000">5</text>
</g>
<!-- 4&#45;&gt;5 -->
<g id="edge15" class="edge">
<title>4&#45;&gt;5</title>
<path fill="none" stroke="#000000" d="M322.612,-52.8464C363.3537,-52.5003 462.5835,-51.6573 511.601,-51.2409"/>
<polygon fill="#000000" stroke="#000000" points="511.8441,-54.7391 521.814,-51.1541 511.7846,-47.7393 511.8441,-54.7391"/>
<text text-anchor="middle" x="422.2438" y="-57.2" font-family="Times,serif" font-size="14.00" fill="#000000">b</text>
</g>
<!-- c&#45;&gt;d -->
<g id="edge12" class="edge">
<title>c&#45;&gt;d</title>
<path fill="none" stroke="#000000" d="M646.9904,-89C658.9337,-89 674.8543,-89 688.9027,-89"/>
<polygon fill="#000000" stroke="#000000" points="689.1839,-92.5001 699.1838,-89 689.1838,-85.5001 689.1839,-92.5001"/>
<text text-anchor="middle" x="673.0303" y="-93.2" font-family="Times,serif" font-size="14.00" fill="#000000">a,b</text>
</g>
<!-- 6&#45;&gt;c -->
<g id="edge10" class="edge">
<title>6&#45;&gt;c</title>
<path fill="none" stroke="#000000" d="M479.9259,-102.3662C508.9004,-99.7626 565.7804,-94.6514 600.1935,-91.5591"/>
<polygon fill="#000000" stroke="#000000" points="600.8667,-95.0128 610.5133,-90.6318 600.2402,-88.0409 600.8667,-95.0128"/>
<text text-anchor="middle" x="539.9584" y="-103.2" font-family="Times,serif" font-size="14.00" fill="#000000">b</text>
</g>
<!-- 6&#45;&gt;5 -->
<g id="edge9" class="edge">
<title>6&#45;&gt;5</title>
<path fill="none" stroke="#000000" d="M475.2839,-91.7578C481.8387,-86.1054 489.96,-79.4908 497.7438,-74.2 502.9721,-70.6462 508.7936,-67.1683 514.4021,-64.0313"/>
<polygon fill="#000000" stroke="#000000" points="516.3608,-66.9514 523.4973,-59.1206 513.0351,-60.7918 516.3608,-66.9514"/>
<text text-anchor="middle" x="500.8511" y="-79.2" font-family="Times,serif" font-size="14.00" fill="#000000">a</text>
</g>
<!-- 5&#45;&gt;c -->
<g id="edge11" class="edge">
<title>5&#45;&gt;c</title>
<path fill="none" stroke="#000000" d="M556.6449,-58.1475C569.6557,-63.7205 587.9548,-71.5588 602.8524,-77.94"/>
<polygon fill="#000000" stroke="#000000" points="601.4909,-81.1644 612.0613,-81.8845 604.2472,-74.7298 601.4909,-81.1644"/>
<text text-anchor="middle" x="584.3157" y="-78.2" font-family="Times,serif" font-size="14.00" fill="#000000">a,b</text>
</g>
</g>
</svg>
