<?xml version="1.0" encoding="UTF-8" standalone="no"?>
<!DOCTYPE svg PUBLIC "-//W3C//DTD SVG 1.1//EN"
 "http://www.w3.org/Graphics/SVG/1.1/DTD/svg11.dtd">
<!-- Generated by graphviz version 2.40.1 (20161225.0304)
 -->
<!-- Title: %0 Pages: 1 -->
<svg width="644pt" height="197pt"
 viewBox="0.00 0.00 644.03 197.00" xmlns="http://www.w3.org/2000/svg" xmlns:xlink="http://www.w3.org/1999/xlink">
<g id="graph0" class="graph" transform="scale(1 1) rotate(0) translate(4 193)">
<title>%0</title>
<polygon fill="#ffffff" stroke="transparent" points="-4,4 -4,-193 640.0292,-193 640.0292,4 -4,4"/>
<!-- start -->
<g id="node1" class="node">
<title>start</title>
<ellipse fill="#000000" stroke="#000000" cx="1.8" cy="-110" rx="1.8" ry="1.8"/>
</g>
<!-- 0 -->
<g id="node3" class="node">
<title>0</title>
<ellipse fill="none" stroke="#000000" cx="58.6" cy="-110" rx="18" ry="18"/>
<text text-anchor="middle" x="58.6" y="-105.8" font-family="Times,serif" font-size="14.00" fill="#000000">0</text>
</g>
<!-- start&#45;&gt;0 -->
<g id="edge1" class="edge">
<title>start&#45;&gt;0</title>
<path fill="none" stroke="#000000" d="M3.6898,-110C8.0522,-110 19.3107,-110 30.5058,-110"/>
<polygon fill="#000000" stroke="#000000" points="30.5696,-113.5001 40.5696,-110 30.5696,-106.5001 30.5696,-113.5001"/>
</g>
<!-- d -->
<g id="node2" class="node">
<title>d</title>
<ellipse fill="none" stroke="#000000" cx="614.0292" cy="-110" rx="18" ry="18"/>
<ellipse fill="none" stroke="#000000" cx="614.0292" cy="-110" rx="22" ry="22"/>
<text text-anchor="middle" x="614.0292" y="-105.8" font-family="Times,serif" font-size="14.00" fill="#000000">d</text>
</g>
<!-- d&#45;&gt;d -->
<g id="edge17" class="edge">
<title>d&#45;&gt;d</title>
<path fill="none" stroke="#000000" d="M605.2951,-130.5808C604.0866,-140.8447 606.9979,-150 614.0292,-150 618.5336,-150 621.3472,-146.2427 622.47,-140.8436"/>
<polygon fill="#000000" stroke="#000000" points="625.9761,-140.6768 622.7633,-130.5808 618.979,-140.4767 625.9761,-140.6768"/>
<text text-anchor="middle" x="614.0292" y="-154.2" font-family="Times,serif" font-size="14.00" fill="#000000">a,b</text>
</g>
<!-- 1 -->
<g id="node4" class="node">
<title>1</title>
<ellipse fill="none" stroke="#000000" cx="147.3146" cy="-110" rx="18" ry="18"/>
<text text-anchor="middle" x="147.3146" y="-105.8" font-family="Times,serif" font-size="14.00" fill="#000000">1</text>
</g>
<!-- 0&#45;&gt;1 -->
<g id="edge2" class="edge">
<title>0&#45;&gt;1</title>
<path fill="none" stroke="#000000" d="M76.9817,-110C89.0758,-110 105.1476,-110 118.8746,-110"/>
<polygon fill="#000000" stroke="#000000" points="119.26,-113.5001 129.26,-110 119.2599,-106.5001 119.26,-113.5001"/>
<text text-anchor="middle" x="102.9573" y="-114.2" font-family="Times,serif" font-size="14.00" fill="#000000">a,b</text>
</g>
<!-- 1&#45;&gt;1 -->
<g id="edge3" class="edge">
<title>1&#45;&gt;1</title>
<path fill="none" stroke="#000000" d="M140.581,-127.0373C139.2068,-136.8579 141.4513,-146 147.3146,-146 150.9792,-146 153.2301,-142.4289 154.0675,-137.3529"/>
<polygon fill="#000000" stroke="#000000" points="157.567,-137.0307 154.0482,-127.0373 150.567,-137.0439 157.567,-137.0307"/>
<text text-anchor="middle" x="147.3146" y="-150.2" font-family="Times,serif" font-size="14.00" fill="#000000">a,b</text>
</g>
<!-- 2 -->
<g id="node5" class="node">
<title>2</title>
<ellipse fill="none" stroke="#000000" cx="280.3146" cy="-171" rx="18" ry="18"/>
<text text-anchor="middle" x="280.3146" y="-166.8" font-family="Times,serif" font-size="14.00" fill="#000000">2</text>
</g>
<!-- 1&#45;&gt;2 -->
<g id="edge4" class="edge">
<title>1&#45;&gt;2</title>
<path fill="none" stroke="#000000" d="M160.0833,-122.727C166.593,-128.6455 174.8991,-135.3803 183.3146,-140 205.2223,-152.0261 232.5119,-160.2231 252.5599,-165.1529"/>
<polygon fill="#000000" stroke="#000000" points="251.7824,-168.5654 262.3168,-167.436 253.3773,-161.7495 251.7824,-168.5654"/>
<text text-anchor="middle" x="186.8146" y="-147.2" font-family="Times,serif" font-size="14.00" fill="#000000">a</text>
</g>
<!-- 3 -->
<g id="node7" class="node">
<title>3</title>
<ellipse fill="none" stroke="#000000" cx="388.3146" cy="-126" rx="18" ry="18"/>
<text text-anchor="middle" x="388.3146" y="-121.8" font-family="Times,serif" font-size="14.00" fill="#000000">3</text>
</g>
<!-- 1&#45;&gt;3 -->
<g id="edge6" class="edge">
<title>1&#45;&gt;3</title>
<path fill="none" stroke="#000000" d="M165.4288,-111.2026C207.1403,-113.9718 310.2152,-120.815 360.2152,-124.1345"/>
<polygon fill="#000000" stroke="#000000" points="360.1091,-127.635 370.319,-124.8053 360.5728,-120.6504 360.1091,-127.635"/>
<text text-anchor="middle" x="226.3146" y="-120.2" font-family="Times,serif" font-size="14.00" fill="#000000">b</text>
</g>
<!-- 4 -->
<g id="node8" class="node">
<title>4</title>
<ellipse fill="none" stroke="#000000" cx="226.3146" cy="-72" rx="18" ry="18"/>
<text text-anchor="middle" x="226.3146" y="-67.8" font-family="Times,serif" font-size="14.00" fill="#000000">4</text>
</g>
<!-- 1&#45;&gt;4 -->
<g id="edge8" class="edge">
<title>1&#45;&gt;4</title>
<path fill="none" stroke="#000000" d="M163.6835,-102.1264C174.3818,-96.9803 188.5756,-90.1529 200.7458,-84.2989"/>
<polygon fill="#000000" stroke="#000000" points="202.4722,-87.3524 209.9667,-79.8635 199.4379,-81.0442 202.4722,-87.3524"/>
<text text-anchor="middle" x="186.8146" y="-96.2" font-family="Times,serif" font-size="14.00" fill="#000000">a</text>
</g>
<!-- 7 -->
<g id="node11" class="node">
<title>7</title>
<ellipse fill="none" stroke="#000000" cx="226.3146" cy="-18" rx="18" ry="18"/>
<text text-anchor="middle" x="226.3146" y="-13.8" font-family="Times,serif" font-size="14.00" fill="#000000">7</text>
</g>
<!-- 1&#45;&gt;7 -->
<g id="edge12" class="edge">
<title>1&#45;&gt;7</title>
<path fill="none" stroke="#000000" d="M159.313,-96.0272C172.1476,-81.0806 192.6724,-57.1782 207.6266,-39.7632"/>
<polygon fill="#000000" stroke="#000000" points="210.6028,-41.6698 214.4621,-31.8029 205.292,-37.1095 210.6028,-41.6698"/>
<text text-anchor="middle" x="186.8146" y="-70.2" font-family="Times,serif" font-size="14.00" fill="#000000">b</text>
</g>
<!-- c -->
<g id="node6" class="node">
<title>c</title>
<ellipse fill="none" stroke="#000000" cx="521.3146" cy="-110" rx="18" ry="18"/>
<text text-anchor="middle" x="521.3146" y="-105.8" font-family="Times,serif" font-size="14.00" fill="#000000">c</text>
</g>
<!-- 2&#45;&gt;c -->
<g id="edge5" class="edge">
<title>2&#45;&gt;c</title>
<path fill="none" stroke="#000000" d="M298.3996,-170.0174C331.3647,-167.8068 403.104,-161.05 460.3146,-142 472.9518,-137.7921 486.139,-131.1887 497.0057,-125.0707"/>
<polygon fill="#000000" stroke="#000000" points="499.0109,-127.953 505.8857,-119.8916 495.4842,-121.9063 499.0109,-127.953"/>
<text text-anchor="middle" x="388.3146" y="-166.2" font-family="Times,serif" font-size="14.00" fill="#000000">a</text>
</g>
<!-- c&#45;&gt;d -->
<g id="edge16" class="edge">
<title>c&#45;&gt;d</title>
<path fill="none" stroke="#000000" d="M539.632,-110C551.5753,-110 567.4959,-110 581.5443,-110"/>
<polygon fill="#000000" stroke="#000000" points="581.8255,-113.5001 591.8254,-110 581.8254,-106.5001 581.8255,-113.5001"/>
<text text-anchor="middle" x="565.6719" y="-114.2" font-family="Times,serif" font-size="14.00" fill="#000000">a,b</text>
</g>
<!-- 3&#45;&gt;c -->
<g id="edge7" class="edge">
<title>3&#45;&gt;c</title>
<path fill="none" stroke="#000000" d="M406.2516,-123.8422C428.5617,-121.1582 466.9063,-116.5454 493.1516,-113.388"/>
<polygon fill="#000000" stroke="#000000" points="493.7267,-116.8442 503.237,-112.1747 492.8906,-109.8943 493.7267,-116.8442"/>
<text text-anchor="middle" x="442.3146" y="-125.2" font-family="Times,serif" font-size="14.00" fill="#000000">b</text>
</g>
<!-- 5 -->
<g id="node9" class="node">
<title>5</title>
<ellipse fill="none" stroke="#000000" cx="334.3146" cy="-72" rx="18" ry="18"/>
<text text-anchor="middle" x="334.3146" y="-67.8" font-family="Times,serif" font-size="14.00" fill="#000000">5</text>
</g>
<!-- 4&#45;&gt;5 -->
<g id="edge9" class="edge">
<title>4&#45;&gt;5</title>
<path fill="none" stroke="#000000" d="M244.6353,-72C261.4936,-72 286.7495,-72 306.1676,-72"/>
<polygon fill="#000000" stroke="#000000" points="306.2645,-75.5001 316.2644,-72 306.2644,-68.5001 306.2645,-75.5001"/>
<text text-anchor="middle" x="280.3146" y="-76.2" font-family="Times,serif" font-size="14.00" fill="#000000">b</text>
</g>
<!-- 6 -->
<g id="node10" class="node">
<title>6</title>
<ellipse fill="none" stroke="#000000" cx="442.3146" cy="-72" rx="18" ry="18"/>
<text text-anchor="middle" x="442.3146" y="-67.8" font-family="Times,serif" font-size="14.00" fill="#000000">6</text>
</g>
<!-- 5&#45;&gt;6 -->
<g id="edge10" class="edge">
<title>5&#45;&gt;6</title>
<path fill="none" stroke="#000000" d="M352.6353,-72C369.4936,-72 394.7495,-72 414.1676,-72"/>
<polygon fill="#000000" stroke="#000000" points="414.2645,-75.5001 424.2644,-72 414.2644,-68.5001 414.2645,-75.5001"/>
<text text-anchor="middle" x="388.3146" y="-76.2" font-family="Times,serif" font-size="14.00" fill="#000000">a</text>
</g>
<!-- 6&#45;&gt;c -->
<g id="edge11" class="edge">
<title>6&#45;&gt;c</title>
<path fill="none" stroke="#000000" d="M458.6835,-79.8736C469.3818,-85.0197 483.5756,-91.8471 495.7458,-97.7011"/>
<polygon fill="#000000" stroke="#000000" points="494.4379,-100.9558 504.9667,-102.1365 497.4722,-94.6476 494.4379,-100.9558"/>
<text text-anchor="middle" x="481.8146" y="-96.2" font-family="Times,serif" font-size="14.00" fill="#000000">b</text>
</g>
<!-- 8 -->
<g id="node12" class="node">
<title>8</title>
<ellipse fill="none" stroke="#000000" cx="334.3146" cy="-18" rx="18" ry="18"/>
<text text-anchor="middle" x="334.3146" y="-13.8" font-family="Times,serif" font-size="14.00" fill="#000000">8</text>
</g>
<!-- 7&#45;&gt;8 -->
<g id="edge13" class="edge">
<title>7&#45;&gt;8</title>
<path fill="none" stroke="#000000" d="M244.6353,-18C261.4936,-18 286.7495,-18 306.1676,-18"/>
<polygon fill="#000000" stroke="#000000" points="306.2645,-21.5001 316.2644,-18 306.2644,-14.5001 306.2645,-21.5001"/>
<text text-anchor="middle" x="280.3146" y="-22.2" font-family="Times,serif" font-size="14.00" fill="#000000">a</text>
</g>
<!-- 9 -->
<g id="node13" class="node">
<title>9</title>
<ellipse fill="none" stroke="#000000" cx="442.3146" cy="-18" rx="18" ry="18"/>
<text text-anchor="middle" x="442.3146" y="-13.8" font-family="Times,serif" font-size="14.00" fill="#000000">9</text>
</g>
<!-- 8&#45;&gt;9 -->
<g id="edge14" class="edge">
<title>8&#45;&gt;9</title>
<path fill="none" stroke="#000000" d="M352.6353,-18C369.4936,-18 394.7495,-18 414.1676,-18"/>
<polygon fill="#000000" stroke="#000000" points="414.2645,-21.5001 424.2644,-18 414.2644,-14.5001 414.2645,-21.5001"/>
<text text-anchor="middle" x="388.3146" y="-22.2" font-family="Times,serif" font-size="14.00" fill="#000000">b</text>
</g>
<!-- 9&#45;&gt;c -->
<g id="edge15" class="edge">
<title>9&#45;&gt;c</title>
<path fill="none" stroke="#000000" d="M454.313,-31.9728C467.1476,-46.9194 487.6724,-70.8218 502.6266,-88.2368"/>
<polygon fill="#000000" stroke="#000000" points="500.292,-90.8905 509.4621,-96.1971 505.6028,-86.3302 500.292,-90.8905"/>
<text text-anchor="middle" x="481.8146" y="-70.2" font-family="Times,serif" font-size="14.00" fill="#000000">a</text>
</g>
</g>
</svg>
