<?xml version="1.0" encoding="UTF-8" standalone="no"?>
<!DOCTYPE svg PUBLIC "-//W3C//DTD SVG 1.1//EN"
 "http://www.w3.org/Graphics/SVG/1.1/DTD/svg11.dtd">
<!-- Generated by graphviz version 2.40.1 (20161225.0304)
 -->
<!-- Title: %0 Pages: 1 -->
<svg width="329pt" height="163pt"
 viewBox="0.00 0.00 328.81 163.00" xmlns="http://www.w3.org/2000/svg" xmlns:xlink="http://www.w3.org/1999/xlink">
<g id="graph0" class="graph" transform="scale(1 1) rotate(0) translate(4 159)">
<title>%0</title>
<polygon fill="#ffffff" stroke="transparent" points="-4,4 -4,-159 324.8146,-159 324.8146,4 -4,4"/>
<!-- start -->
<g id="node1" class="node">
<title>start</title>
<ellipse fill="#000000" stroke="#000000" cx="1.8" cy="-54" rx="1.8" ry="1.8"/>
</g>
<!-- 0 -->
<g id="node3" class="node">
<title>0</title>
<ellipse fill="none" stroke="#000000" cx="58.6" cy="-54" rx="18" ry="18"/>
<text text-anchor="middle" x="58.6" y="-49.8" font-family="Times,serif" font-size="14.00" fill="#000000">0</text>
</g>
<!-- start&#45;&gt;0 -->
<g id="edge1" class="edge">
<title>start&#45;&gt;0</title>
<path fill="none" stroke="#000000" d="M3.6898,-54C8.0522,-54 19.3107,-54 30.5058,-54"/>
<polygon fill="#000000" stroke="#000000" points="30.5696,-57.5001 40.5696,-54 30.5696,-50.5001 30.5696,-57.5001"/>
</g>
<!-- 3 -->
<g id="node2" class="node">
<title>3</title>
<ellipse fill="none" stroke="#000000" cx="141.6" cy="-112" rx="18" ry="18"/>
<ellipse fill="none" stroke="#000000" cx="141.6" cy="-112" rx="22" ry="22"/>
<text text-anchor="middle" x="141.6" y="-107.8" font-family="Times,serif" font-size="14.00" fill="#000000">3</text>
</g>
<!-- 4 -->
<g id="node6" class="node">
<title>4</title>
<ellipse fill="none" stroke="#000000" cx="223.8146" cy="-137" rx="18" ry="18"/>
<text text-anchor="middle" x="223.8146" y="-132.8" font-family="Times,serif" font-size="14.00" fill="#000000">4</text>
</g>
<!-- 3&#45;&gt;4 -->
<g id="edge6" class="edge">
<title>3&#45;&gt;4</title>
<path fill="none" stroke="#000000" d="M162.7723,-118.4381C173.1903,-121.606 185.8622,-125.4593 196.9546,-128.8324"/>
<polygon fill="#000000" stroke="#000000" points="196.0018,-132.2008 206.5876,-131.7616 198.0384,-125.5036 196.0018,-132.2008"/>
<text text-anchor="middle" x="184.7073" y="-129.2" font-family="Times,serif" font-size="14.00" fill="#000000">a</text>
</g>
<!-- 0&#45;&gt;3 -->
<g id="edge5" class="edge">
<title>0&#45;&gt;3</title>
<path fill="none" stroke="#000000" d="M73.4387,-64.3692C84.9137,-72.3879 101.1048,-83.7021 114.8273,-93.2914"/>
<polygon fill="#000000" stroke="#000000" points="113.2124,-96.4327 123.4142,-99.2918 117.222,-90.6948 113.2124,-96.4327"/>
<text text-anchor="middle" x="98.1" y="-87.2" font-family="Times,serif" font-size="14.00" fill="#000000">b</text>
</g>
<!-- 1 -->
<g id="node4" class="node">
<title>1</title>
<ellipse fill="none" stroke="#000000" cx="141.6" cy="-54" rx="18" ry="18"/>
<text text-anchor="middle" x="141.6" y="-49.8" font-family="Times,serif" font-size="14.00" fill="#000000">1</text>
</g>
<!-- 0&#45;&gt;1 -->
<g id="edge2" class="edge">
<title>0&#45;&gt;1</title>
<path fill="none" stroke="#000000" d="M76.6098,-54C87.3037,-54 101.1006,-54 113.2294,-54"/>
<polygon fill="#000000" stroke="#000000" points="113.3388,-57.5001 123.3388,-54 113.3387,-50.5001 113.3388,-57.5001"/>
<text text-anchor="middle" x="98.1" y="-58.2" font-family="Times,serif" font-size="14.00" fill="#000000">a</text>
</g>
<!-- 2 -->
<g id="node5" class="node">
<title>2</title>
<ellipse fill="none" stroke="#000000" cx="223.8146" cy="-18" rx="18" ry="18"/>
<text text-anchor="middle" x="223.8146" y="-13.8" font-family="Times,serif" font-size="14.00" fill="#000000">2</text>
</g>
<!-- 1&#45;&gt;2 -->
<g id="edge3" class="edge">
<title>1&#45;&gt;2</title>
<path fill="none" stroke="#000000" d="M158.2374,-46.7149C169.6039,-41.7377 184.8949,-35.0421 197.8521,-29.3684"/>
<polygon fill="#000000" stroke="#000000" points="199.4456,-32.4916 207.202,-25.2743 196.6378,-26.0794 199.4456,-32.4916"/>
<text text-anchor="middle" x="184.7073" y="-40.2" font-family="Times,serif" font-size="14.00" fill="#000000">a</text>
</g>
<!-- 2&#45;&gt;0 -->
<g id="edge4" class="edge">
<title>2&#45;&gt;0</title>
<path fill="none" stroke="#000000" d="M206.3739,-12.7515C185.2832,-7.291 148.9607,-.7508 119.6,-10.2 104.5676,-15.0379 90.1044,-25.1031 79.037,-34.366"/>
<polygon fill="#000000" stroke="#000000" points="76.4753,-31.9581 71.2824,-41.1931 81.1009,-37.2121 76.4753,-31.9581"/>
<text text-anchor="middle" x="141.6" y="-15.2" font-family="Times,serif" font-size="14.00" fill="#000000">b</text>
</g>
<!-- 5 -->
<g id="node7" class="node">
<title>5</title>
<ellipse fill="none" stroke="#000000" cx="302.8146" cy="-100" rx="18" ry="18"/>
<text text-anchor="middle" x="302.8146" y="-95.8" font-family="Times,serif" font-size="14.00" fill="#000000">5</text>
</g>
<!-- 4&#45;&gt;5 -->
<g id="edge7" class="edge">
<title>4&#45;&gt;5</title>
<path fill="none" stroke="#000000" d="M240.1835,-129.3336C250.8818,-124.3229 265.0756,-117.6752 277.2458,-111.9753"/>
<polygon fill="#000000" stroke="#000000" points="278.8953,-115.0677 286.4667,-107.6566 275.9262,-108.7285 278.8953,-115.0677"/>
<text text-anchor="middle" x="263.3146" y="-123.2" font-family="Times,serif" font-size="14.00" fill="#000000">b</text>
</g>
<!-- 5&#45;&gt;3 -->
<g id="edge8" class="edge">
<title>5&#45;&gt;3</title>
<path fill="none" stroke="#000000" d="M284.8544,-96.4742C265.3212,-93.1666 233.2202,-89.2707 205.8146,-93.2 194.5737,-94.8117 182.5539,-97.9339 171.9893,-101.178"/>
<polygon fill="#000000" stroke="#000000" points="170.8203,-97.8775 162.3792,-104.2804 172.9708,-104.539 170.8203,-97.8775"/>
<text text-anchor="middle" x="223.8146" y="-97.2" font-family="Times,serif" font-size="14.00" fill="#000000">a</text>
</g>
</g>
</svg>
